<svg width="91" height="91" viewBox="0 0 91 91" fill="none" xmlns="http://www.w3.org/2000/svg">
<path d="M50.5 15.605C50.5 18.385 48.2425 20.64 45.5 20.64C42.7575 20.64 40.5 18.385 40.5 15.605V5.535C40.5 2.7525 42.7575 0.5 45.5 0.5C48.2425 0.5 50.5 2.7525 50.5 5.535V15.605Z" fill="#FFCC4D"/>
<path d="M23.4501 90.5C22.8901 90.5 22.3201 90.37 21.7851 90.1025C20.8972 89.6462 20.2246 88.8588 19.9126 87.9106C19.6005 86.9623 19.6742 85.9294 20.1176 85.035L42.4676 39.7175C43.0976 38.4375 44.3876 37.63 45.8001 37.63C47.2126 37.63 48.5026 38.4375 49.1326 39.7175L71.4851 85.035C71.9286 85.9291 72.0026 86.9618 71.6911 87.91C71.3795 88.8582 70.7075 89.6457 69.8201 90.1025C69.3817 90.3238 68.9037 90.4556 68.414 90.4903C67.9242 90.525 67.4324 90.4619 66.9672 90.3046C66.5021 90.1473 66.0729 89.899 65.7047 89.5741C65.3365 89.2493 65.0366 88.8544 64.8226 88.4125L45.8026 49.85L26.7851 88.4125C26.4794 89.037 26.005 89.5636 25.4157 89.9325C24.8263 90.3014 24.1454 90.498 23.4501 90.5Z" fill="#FFAC33"/>
<path d="M45.8025 51.48C45.1431 51.4753 44.5123 51.2102 44.0475 50.7425L9.27999 15.495C8.30999 14.51 8.30999 12.9175 9.27999 11.935C10.25 10.9525 11.8225 10.9525 12.79 11.935L45.8025 45.4L78.81 11.9325C79.0392 11.6994 79.3125 11.5141 79.6141 11.3877C79.9156 11.2613 80.2393 11.1962 80.5662 11.1962C80.8932 11.1962 81.2169 11.2613 81.5184 11.3877C81.82 11.5141 82.0933 11.6994 82.3225 11.9325C82.7885 12.4078 83.0495 13.0469 83.0495 13.7125C83.0495 14.3782 82.7885 15.0173 82.3225 15.4925L47.56 50.7425C47.0945 51.2108 46.4627 51.4759 45.8025 51.48Z" fill="#58595B"/>
<path d="M85.5376 48.9626C85.5376 71.2076 67.7501 89.2401 45.8026 89.2401C23.8601 89.2401 6.07007 71.2076 6.07007 48.9626C6.07007 26.7126 23.8601 8.68005 45.8026 8.68005C67.7476 8.67755 85.5376 26.7126 85.5376 48.9626Z" fill="#DD2E44"/>
<path d="M75.6024 48.9625C75.6024 65.6475 62.2649 79.1725 45.8024 79.1725C29.3449 79.1725 16.0049 65.6475 16.0049 48.9625C16.0049 32.275 29.3449 18.75 45.8024 18.75C62.2649 18.7475 75.6024 32.275 75.6024 48.9625Z" fill="#E6E7E8"/>
<path d="M75.6001 3.64246C73.638 3.64227 71.6956 4.03354 69.8867 4.79336C68.0777 5.55317 66.4385 6.66627 65.0651 8.06746L86.1376 29.4275C88.9433 26.5821 90.5113 22.7435 90.5001 18.7475C90.5001 10.4075 83.8276 3.64246 75.6001 3.64246ZM15.4001 3.64246C17.3621 3.64227 19.3045 4.03354 21.1135 4.79336C22.9224 5.55317 24.5616 6.66627 25.9351 8.06746L4.86256 29.4275C2.0568 26.5821 0.488816 22.7435 0.50006 18.7475C0.50006 10.4075 7.17006 3.64246 15.4001 3.64246Z" fill="#FFCC4D"/>
<path d="M58 50.5H45.5C44.837 50.5 44.2011 50.2366 43.7322 49.7678C43.2634 49.2989 43 48.663 43 48V25.5C43 24.837 43.2634 24.2011 43.7322 23.7322C44.2011 23.2634 44.837 23 45.5 23C46.163 23 46.7989 23.2634 47.2678 23.7322C47.7366 24.2011 48 24.837 48 25.5V45.5H58C58.663 45.5 59.2989 45.7634 59.7678 46.2322C60.2366 46.7011 60.5 47.337 60.5 48C60.5 48.663 60.2366 49.2989 59.7678 49.7678C59.2989 50.2366 58.663 50.5 58 50.5Z" fill="#414042"/>
</svg>
