<svg width="97" height="97" viewBox="0 0 97 97" fill="none" xmlns="http://www.w3.org/2000/svg">
<path d="M96.5 48.5C96.5 75.0093 75.0093 96.5 48.5 96.5C21.9933 96.5 0.5 75.0093 0.5 48.5C0.5 21.9933 21.9933 0.5 48.5 0.5C75.0093 0.5 96.5 21.9933 96.5 48.5Z" fill="#FFCC4D"/>
<path d="M31.1667 55.1667C34.8486 55.1667 37.8333 50.988 37.8333 45.8333C37.8333 40.6787 34.8486 36.5 31.1667 36.5C27.4848 36.5 24.5 40.6787 24.5 45.8333C24.5 50.988 27.4848 55.1667 31.1667 55.1667Z" fill="#664500"/>
<path d="M65.8337 55.1667C69.5156 55.1667 72.5003 50.988 72.5003 45.8333C72.5003 40.6787 69.5156 36.5 65.8337 36.5C62.1518 36.5 59.167 40.6787 59.167 45.8333C59.167 50.988 62.1518 55.1667 65.8337 55.1667Z" fill="#664500"/>
<path d="M16.497 36.5C16.002 36.4995 15.5169 36.3612 15.096 36.1007C14.6751 35.8401 14.3351 35.4676 14.1139 35.0247C13.8928 34.5819 13.7993 34.0862 13.8438 33.5932C13.8884 33.1002 14.0693 32.6293 14.3663 32.2333C23.065 20.6333 34.6757 20.5 35.1663 20.5C35.5165 20.4993 35.8634 20.5676 36.1872 20.701C36.511 20.8343 36.8054 21.0302 37.0535 21.2773C37.3016 21.5244 37.4987 21.818 37.6333 22.1413C37.768 22.4645 37.8376 22.8111 37.8383 23.1613C37.839 23.5115 37.7708 23.8584 37.6374 24.1822C37.504 24.506 37.3082 24.8004 37.0611 25.0485C36.8139 25.2966 36.5204 25.4936 36.1971 25.6283C35.8738 25.763 35.5272 25.8326 35.177 25.8333C34.7637 25.8387 25.6623 26.0627 18.633 35.4333C18.3843 35.7649 18.0618 36.0339 17.6911 36.2191C17.3203 36.4042 16.9114 36.5004 16.497 36.5ZM80.5023 36.5C80.0879 36.5004 79.6791 36.4042 79.3083 36.2191C78.9375 36.0339 78.615 35.7649 78.3663 35.4333C71.3237 26.044 62.2037 25.836 61.817 25.8333C61.1116 25.827 60.4375 25.5414 59.9422 25.0391C59.4469 24.5368 59.1708 23.8588 59.1743 23.1533C59.1758 22.4491 59.4565 21.7743 59.9549 21.2768C60.4534 20.7794 61.1288 20.5 61.833 20.5C62.3237 20.5 73.9317 20.6333 82.633 32.2333C82.93 32.6293 83.1109 33.1002 83.1555 33.5932C83.2001 34.0862 83.1066 34.5819 82.8854 35.0247C82.6643 35.4676 82.3242 35.8401 81.9033 36.1007C81.4825 36.3612 80.9974 36.4995 80.5023 36.5ZM63.1264 76.1773C63.097 76.06 60.073 64.5 48.4997 64.5C36.9263 64.5 33.9023 76.06 33.873 76.1773C33.8084 76.4535 33.8336 76.7431 33.9449 77.0039C34.0561 77.2648 34.2477 77.4834 34.4917 77.628C34.7396 77.7724 35.0268 77.8347 35.3123 77.8059C35.5978 77.7772 35.8668 77.6589 36.081 77.468C36.105 77.4467 38.7823 75.1667 48.4997 75.1667C58.073 75.1667 60.8117 77.38 60.9157 77.468C61.1251 77.6664 61.3932 77.7915 61.6797 77.8246C61.9663 77.8577 62.2558 77.7969 62.5049 77.6515C62.754 77.5061 62.9492 77.2838 63.0613 77.018C63.1733 76.7522 63.1962 76.4572 63.1264 76.1773Z" fill="#664500"/>
<path d="M43.1667 83.1667C43.1667 90.532 37.1987 96.5 29.8333 96.5C22.468 96.5 16.5 90.532 16.5 83.1667C16.5 75.8013 27.1667 56.5 29.8333 56.5C32.5 56.5 43.1667 75.8013 43.1667 83.1667Z" fill="#5DADEC"/>
</svg>
