<svg width="91" height="91" viewBox="0 0 91 91" fill="none" xmlns="http://www.w3.org/2000/svg">
<path d="M39.875 81.125C31.0142 77.8113 23.6235 66.4721 19.9245 59.8302C18.3274 56.9626 19.1688 53.4401 21.7318 51.3896C24.5887 49.1041 28.7072 49.3321 31.2943 51.9192L34.2501 54.875V33.3125C34.2501 30.7237 36.3487 28.625 38.9375 28.625C41.5264 28.625 43.625 30.7237 43.625 33.3125V44.5625C43.625 41.9737 45.7237 39.875 48.3125 39.875C50.9014 39.875 53 41.9737 53 44.5625V48.3125C53 45.7237 55.0987 43.625 57.6875 43.625C60.2764 43.625 62.375 45.7237 62.375 48.3125V52.0625C62.375 49.4737 64.4737 47.375 67.0625 47.375C69.6514 47.375 71.75 49.4737 71.75 52.0625V66.815C71.75 68.8218 71.2539 70.805 70.0972 72.4451C68.178 75.1661 64.7282 79.313 60.5 81.125C53.9375 83.9375 48.069 84.1893 39.875 81.125Z" fill="#43576F" stroke="black" stroke-width="2" stroke-linecap="round" stroke-linejoin="round"/>
<path d="M23 17.375L28.625 23" stroke="black" stroke-width="1.5" stroke-linecap="round" stroke-linejoin="round"/>
<path d="M36.125 8L38 19.25" stroke="black" stroke-width="1.5" stroke-linecap="round" stroke-linejoin="round"/>
<path d="M51.125 15.5L47.375 21.125" stroke="black" stroke-width="1.5" stroke-linecap="round" stroke-linejoin="round"/>
</svg>
