<svg width="139" height="139" viewBox="18 18 158 158" fill="none" xmlns="http://www.w3.org/2000/svg">
<path d="M111.23 38.6527C111.373 38.6625 111.515 38.6723 111.663 38.6823C111.81 38.6945 111.957 38.7067 112.109 38.7193C112.259 38.7301 112.409 38.7408 112.564 38.7519C112.933 38.7786 113.303 38.8079 113.672 38.8377C114.052 39.9776 113.861 41.2358 113.861 42.4373C116.237 42.4373 118.613 42.4373 121.061 42.4373C121.123 43.5627 121.186 44.688 121.25 45.8475C122.438 45.91 123.626 45.9725 124.85 46.0369C124.85 47.2248 124.85 48.4127 124.85 49.6366C125.725 49.574 126.6 49.5115 127.502 49.4471C127.439 49.1345 127.377 48.8219 127.312 48.4998C127.367 48.1824 127.43 47.8663 127.502 47.5526C127.502 47.3025 127.502 47.0524 127.502 46.7948C127.751 46.2856 127.751 46.2856 128.07 45.8475C128.258 45.785 128.445 45.7225 128.639 45.658C128.764 45.6151 128.889 45.5721 129.018 45.5278C129.396 45.4686 129.396 45.4686 129.965 45.8475C130.353 45.9009 130.353 45.9009 130.783 45.8875C130.947 45.8869 131.111 45.8862 131.281 45.8856C131.546 45.8817 131.546 45.8817 131.817 45.8778C132 45.8769 132.182 45.8759 132.37 45.8748C132.954 45.8715 133.537 45.8656 134.121 45.8593C134.704 45.8541 135.287 45.8494 135.87 45.8458C136.233 45.8435 136.596 45.8402 136.959 45.8357C137.206 45.8339 137.206 45.8339 137.459 45.832C137.603 45.8304 137.748 45.8289 137.897 45.8273C138.301 45.8475 138.301 45.8475 139.059 46.0369C139.059 47.2248 139.059 48.4127 139.059 49.6366C140.309 49.6366 141.559 49.6366 142.848 49.6366C143.161 50.2636 143.056 50.9611 143.049 51.6495C143.048 51.8014 143.047 51.9533 143.046 52.1098C143.044 52.4853 143.041 52.8607 143.037 53.2362C143.174 53.2203 143.312 53.2044 143.453 53.1881C143.728 53.1591 143.728 53.1591 144.008 53.1296C144.188 53.1098 144.369 53.09 144.554 53.0697C145.151 53.0455 145.672 53.1304 146.258 53.2362C146.287 55.0822 146.315 56.9283 146.342 58.7744C146.354 59.6316 146.367 60.4887 146.381 61.3458C146.394 62.1725 146.406 62.9992 146.417 63.8259C146.422 64.1419 146.427 64.4578 146.432 64.7736C146.439 65.215 146.446 65.6564 146.451 66.0978C146.455 66.295 146.455 66.295 146.459 66.4963C146.469 67.4019 146.469 67.4019 146.258 67.8241C145.132 67.8241 144.007 67.8241 142.848 67.8241C142.864 68.0817 142.879 68.3394 142.896 68.6048C142.915 68.9405 142.935 69.2763 142.954 69.612C142.965 69.7821 142.975 69.9522 142.986 70.1275C142.996 70.2893 143.005 70.4511 143.014 70.6178C143.023 70.7676 143.032 70.9174 143.041 71.0717C143.037 71.4237 143.037 71.4237 142.848 71.6131C142.579 71.6295 142.31 71.6334 142.042 71.6316C141.896 71.6311 141.75 71.6307 141.6 71.6302C141.414 71.6285 141.228 71.6267 141.036 71.625C140.151 71.6191 140.151 71.6191 139.248 71.6131C139.186 73.4262 139.123 75.2393 139.059 77.1073C139.184 77.1073 139.309 77.1073 139.437 77.1073C139.437 77.6074 139.437 78.1076 139.437 78.6229C140.438 78.6229 141.438 78.6229 142.469 78.6229C142.467 78.3948 142.464 78.1667 142.462 77.9317C142.46 77.6332 142.459 77.3347 142.457 77.0362C142.455 76.8858 142.454 76.7353 142.452 76.5803C142.447 75.4451 142.447 75.4451 142.658 75.0233C142.971 75.0233 143.283 75.0233 143.605 75.0233C143.668 74.8982 143.731 74.7732 143.795 74.6444C143.92 74.7694 144.045 74.8944 144.174 75.0233C144.722 75.1112 144.722 75.1112 145.334 75.1417C145.542 75.1558 145.749 75.17 145.963 75.1846C146.203 75.1985 146.203 75.1985 146.447 75.2127C146.444 75.5344 146.444 75.5344 146.441 75.8625C146.439 76.1432 146.437 76.4239 146.435 76.7047C146.434 76.8461 146.432 76.9875 146.431 77.1332C146.408 77.9027 146.408 77.9027 146.637 78.6229C147.825 78.6229 149.012 78.6229 150.236 78.6229C150.236 79.8733 150.236 81.1237 150.236 82.4119C149.861 82.4119 149.486 82.4119 149.1 82.4119C149.037 82.537 148.975 82.662 148.91 82.7909C148.91 82.6658 148.91 82.5408 148.91 82.4119C148.694 82.422 148.694 82.422 148.473 82.4323C147.818 82.4623 147.162 82.4904 146.506 82.5185C146.279 82.5291 146.052 82.5398 145.819 82.5507C145.599 82.5599 145.38 82.569 145.154 82.5785C144.953 82.5874 144.752 82.5963 144.544 82.6055C144.013 82.6016 143.552 82.5356 143.037 82.4119C143.039 82.6105 143.042 82.809 143.044 83.0136C143.046 83.2748 143.047 83.5361 143.049 83.7973C143.051 83.9281 143.052 84.0589 143.054 84.1936C143.057 84.7893 143.037 85.2526 142.848 85.8221C143.973 85.8221 145.098 85.8221 146.258 85.8221C146.437 86.5387 146.473 87.1014 146.471 87.835C146.471 88.0524 146.472 88.2698 146.472 88.4937C146.447 89.0428 146.447 89.0428 146.258 89.4217C147.571 89.4217 148.884 89.4217 150.236 89.4217C150.236 90.7971 150.236 92.1726 150.236 93.5897C149.111 93.5897 147.986 93.5897 146.826 93.5897C146.826 93.6522 146.826 93.7147 146.826 93.7791C146.36 93.7893 145.895 93.7969 145.429 93.8028C145.297 93.806 145.164 93.8092 145.028 93.8124C144.68 93.8158 144.332 93.7987 143.984 93.7791C143.859 93.6541 143.734 93.5291 143.605 93.4002C143.605 93.5253 143.605 93.6503 143.605 93.7791C141.605 94.0666 141.605 94.0666 140.764 93.5897C140.764 93.6522 140.764 93.7147 140.764 93.7791C140.584 93.8026 140.404 93.826 140.219 93.8502C139.611 93.915 139.611 93.915 139.248 94.3475C139.204 94.8312 139.182 95.2959 139.176 95.7802C139.173 95.9218 139.17 96.0633 139.167 96.2091C139.156 96.6621 139.149 97.1151 139.141 97.5682C139.133 98.0212 139.124 98.4743 139.114 98.9273C139.108 99.2094 139.103 99.4915 139.099 99.7736C139.08 100.747 139.08 100.747 138.869 101.168C138.744 101.105 138.619 101.043 138.49 100.978C138.428 101.041 138.365 101.103 138.301 101.168C137.773 101.375 137.57 101.367 137.022 101.18C136.881 101.113 136.741 101.047 136.596 100.978C136.514 101.072 136.432 101.166 136.347 101.263C136.027 101.547 136.027 101.547 135.459 101.547C135.461 101.734 135.463 101.921 135.466 102.114C135.467 102.356 135.469 102.599 135.471 102.849C135.473 103.091 135.475 103.333 135.477 103.582C135.459 104.199 135.459 104.199 135.27 104.578C134.019 104.578 132.769 104.578 131.48 104.578C131.418 102.077 131.355 99.5764 131.291 96.9998C131.826 96.8215 132.076 96.7965 132.619 96.8333C132.763 96.8425 132.906 96.8516 133.054 96.8611C133.203 96.8717 133.352 96.8823 133.505 96.8933C133.656 96.9032 133.807 96.9131 133.963 96.9232C134.335 96.9478 134.708 96.9737 135.08 96.9998C135.08 96.8748 135.08 96.7498 135.08 96.6209C134.955 96.5584 134.83 96.4959 134.701 96.4315C134.826 96.4315 134.951 96.4315 135.08 96.4315C135.018 95.4937 134.955 94.5559 134.891 93.5897C134.328 93.5272 133.765 93.4646 133.186 93.4002C133.123 93.5878 133.061 93.7753 132.996 93.9686C132.809 93.6873 132.809 93.6873 132.617 93.4002C132.617 93.5253 132.617 93.6503 132.617 93.7791C131.173 94.016 131.173 94.016 130.533 93.5897C130.081 93.5339 129.626 93.4963 129.172 93.4713C128.93 93.4571 128.689 93.4429 128.441 93.4284C128.256 93.4191 128.071 93.4098 127.881 93.4002C127.478 92.524 127.478 92.524 127.691 91.8846C127.566 91.7596 127.441 91.6345 127.312 91.5057C127.375 91.4002 127.438 91.2947 127.502 91.186C127.717 90.6888 127.706 90.3364 127.691 89.8006C127.393 89.8122 127.393 89.8122 127.089 89.824C126.352 89.8521 125.616 89.8776 124.879 89.9024C124.56 89.9135 124.241 89.9252 123.922 89.9377C123.464 89.9555 123.006 89.9708 122.548 89.9856C122.333 89.9948 122.333 89.9948 122.114 90.0041C121.763 90.0142 121.412 90.0039 121.061 89.9901C120.936 89.865 120.81 89.74 120.682 89.6112C120.682 89.4236 120.682 89.236 120.682 89.0428C120.557 88.9803 120.432 88.9178 120.303 88.8534C120.428 88.7908 120.553 88.7283 120.682 88.6639C120.741 88.1496 120.779 87.6524 120.8 87.1364C120.811 86.9209 120.811 86.9209 120.822 86.7009C120.84 86.3449 120.856 85.9888 120.871 85.6326C121.063 85.6336 121.255 85.6346 121.453 85.6357C122.166 85.6391 122.879 85.6413 123.592 85.6431C123.9 85.644 124.209 85.6453 124.518 85.6469C124.961 85.6492 125.404 85.6503 125.848 85.6511C125.986 85.6521 126.124 85.6531 126.266 85.6541C126.857 85.6542 127.316 85.6316 127.881 85.4432C127.881 85.3182 127.881 85.1931 127.881 85.0643C127.756 85.0018 127.631 84.9393 127.502 84.8748C127.533 84.7576 127.564 84.6404 127.597 84.5196C127.68 84.0001 127.698 83.5509 127.691 83.0277C127.68 82.1117 127.764 81.236 127.881 80.328C127.756 80.328 127.631 80.328 127.502 80.328C127.439 80.1404 127.377 79.9528 127.312 79.7596C127.375 79.6971 127.438 79.6346 127.502 79.5701C127.439 79.4451 127.377 79.3201 127.312 79.1912C126.876 79.1427 126.437 79.1143 125.998 79.0965C124.702 79.0438 124.702 79.0438 124.281 78.6229C124.261 78.0649 124.264 77.5264 124.286 76.9696C124.29 76.8061 124.295 76.6427 124.3 76.4743C124.316 75.9511 124.334 75.428 124.352 74.9049C124.363 74.5506 124.374 74.1964 124.385 73.8422C124.411 72.9727 124.441 72.1035 124.471 71.2342C125.534 71.1717 126.596 71.1092 127.691 71.0448C127.629 70.7947 127.566 70.5446 127.502 70.2869C127.564 70.1619 127.627 70.0369 127.691 69.908C127.705 69.5215 127.707 69.1344 127.703 68.7476C127.702 68.5401 127.7 68.3325 127.698 68.1186C127.696 67.9589 127.694 67.7992 127.691 67.6346C128.424 67.3948 129.156 67.424 129.917 67.4333C130.371 67.4372 130.824 67.4411 131.291 67.4452C131.354 66.2573 131.416 65.0694 131.48 63.8455C132.606 63.783 133.731 63.7205 134.891 63.6561C134.891 61.6555 134.891 59.6548 134.891 57.5936C133.848 57.6161 133.848 57.6161 132.805 57.6448C132.426 57.6489 132.048 57.6219 131.67 57.5936C131.269 56.9921 131.248 56.8989 131.295 56.2238C131.305 56.0717 131.315 55.9197 131.325 55.7631C131.337 55.6052 131.349 55.4473 131.362 55.2846C131.373 55.1245 131.384 54.9645 131.395 54.7995C131.421 54.4046 131.451 54.0098 131.48 53.6151C131.355 53.6151 131.23 53.6151 131.102 53.6151C131.039 53.7401 130.977 53.8651 130.912 53.994C130.474 53.9315 130.037 53.8689 129.586 53.8045C129.586 53.867 129.586 53.9296 129.586 53.994C129.227 54.0363 128.868 54.0751 128.508 54.1124C128.308 54.1344 128.108 54.1563 127.902 54.179C127.282 54.1837 126.922 54.0601 126.365 53.8045C126.24 53.8045 126.115 53.8045 125.986 53.8045C125.861 53.9296 125.736 54.0546 125.607 54.1834C125.482 54.1209 125.357 54.0584 125.229 53.994C125.229 53.8689 125.229 53.7439 125.229 53.6151C124.853 53.8026 124.853 53.8026 124.471 53.994C124.289 53.4492 124.269 53.1811 124.304 52.6241C124.313 52.4721 124.323 52.3201 124.332 52.1635C124.343 52.0056 124.353 51.8477 124.364 51.685C124.374 51.5249 124.384 51.3648 124.394 51.1999C124.419 50.805 124.445 50.4102 124.471 50.0155C123.977 50.0104 123.484 50.0066 122.991 50.0036C122.781 50.0012 122.781 50.0012 122.567 49.9988C121.951 49.996 121.46 50.0088 120.871 50.2049C120.538 49.5384 120.612 48.7308 120.584 47.9925C120.566 47.6555 120.531 47.3195 120.492 46.9842C120.367 46.9217 120.242 46.8592 120.113 46.7948C120.113 46.6697 120.113 46.5447 120.113 46.4159C120.301 46.3533 120.488 46.2908 120.682 46.2264C118.431 46.2264 116.18 46.2264 113.861 46.2264C113.696 45.5648 113.662 45.0443 113.684 44.3689C113.669 43.8402 113.577 43.3359 113.482 42.8162C113.284 42.8184 113.085 42.8206 112.881 42.8229C112.62 42.8247 112.358 42.8264 112.097 42.8281C111.966 42.8297 111.835 42.8313 111.701 42.8329C111.105 42.8358 110.642 42.8166 110.072 42.6268C110.107 42.7831 110.143 42.9394 110.179 43.1004C110.276 43.8808 110.193 44.5039 110.072 45.2791C110.197 45.3417 110.322 45.4042 110.451 45.4686C110.326 45.4686 110.201 45.4686 110.072 45.4686C110.072 45.7812 110.072 46.0938 110.072 46.4159C109.76 46.4784 109.447 46.5409 109.125 46.6053C109.125 46.4803 109.125 46.3552 109.125 46.2264C108.25 46.2264 107.374 46.2264 106.473 46.2264C106.566 46.6015 106.566 46.6015 106.662 46.9842C106.68 47.3983 106.687 47.813 106.686 48.2275C106.687 48.5502 106.687 48.5502 106.687 48.8795C106.662 49.4471 106.662 49.4471 106.473 50.0155C105.285 49.9529 104.097 49.8904 102.873 49.826C102.873 51.0139 102.873 52.2018 102.873 53.4256C102.213 53.5576 101.783 53.6351 101.144 53.6151C100.426 53.5764 100.426 53.5764 99.8418 53.8045C99.7168 53.742 99.5917 53.6795 99.4629 53.6151C99.4004 54.8029 99.3379 55.9908 99.2734 57.2147C98.6459 57.2198 98.0183 57.2235 97.3907 57.2265C97.2116 57.2281 97.0325 57.2297 96.8479 57.2313C96.5924 57.2322 96.5924 57.2322 96.3317 57.2332C96.174 57.2342 96.0162 57.2352 95.8537 57.2362C95.4844 57.2147 95.4844 57.2147 95.2949 57.0252C95.2708 56.4981 95.2598 55.9777 95.2594 55.4504C95.2571 55.304 95.2548 55.1576 95.2524 55.0067C95.2489 53.6731 95.2489 53.6731 95.6738 53.0467C95.9264 53.0414 96.179 53.0379 96.4316 53.0349C96.5723 53.0327 96.713 53.0305 96.8579 53.0282C97.5399 53.0524 98.2174 53.1515 98.8945 53.2362C98.8945 52.0483 98.8945 50.8604 98.8945 49.6366C100.145 49.6366 101.395 49.6366 102.684 49.6366C102.621 49.324 102.559 49.0114 102.494 48.6893C102.477 48.2633 102.469 47.8368 102.47 47.4105C102.47 47.1926 102.469 46.9748 102.469 46.7504C102.494 46.2264 102.494 46.2264 102.684 46.0369C102.952 46.0206 103.221 46.0167 103.49 46.0184C103.708 46.0192 103.708 46.0192 103.931 46.0199C104.117 46.0216 104.303 46.0233 104.495 46.0251C105.085 46.029 105.675 46.0329 106.283 46.0369C106.283 44.8491 106.283 43.6612 106.283 42.4373C107.409 42.4373 108.534 42.4373 109.693 42.4373C109.693 41.312 109.693 40.1866 109.693 39.0272C110.546 38.6009 110.546 38.6009 111.23 38.6527ZM136.647 49.8675C136.434 49.8738 136.434 49.8738 136.216 49.8802C135.762 49.8936 135.309 49.9072 134.855 49.9207C134.547 49.9299 134.24 49.939 133.932 49.9481C133.178 49.9705 132.424 49.993 131.67 50.0155C131.67 51.0783 131.67 52.1411 131.67 53.2362C132.92 53.2362 134.171 53.2362 135.459 53.2362C135.459 54.4866 135.459 55.7369 135.459 57.0252C135.834 56.9314 135.834 56.9314 136.217 56.8358C136.471 56.894 136.723 56.9577 136.975 57.0252C137.338 57.0379 137.701 57.0414 138.064 57.0371C138.344 57.0345 138.344 57.0345 138.629 57.0319C138.842 57.0286 138.842 57.0286 139.059 57.0252C139.057 57.1914 139.055 57.3577 139.053 57.5289C139.046 58.1496 139.041 58.7703 139.038 59.3911C139.036 59.659 139.033 59.9269 139.03 60.1948C139.025 60.5814 139.023 60.9679 139.022 61.3545C139.02 61.5867 139.018 61.8188 139.016 62.058C139.059 62.7161 139.2 63.2329 139.437 63.8455C139.312 63.8455 139.187 63.8455 139.059 63.8455C139.059 63.9706 139.059 64.0956 139.059 64.2244C137.808 64.2244 136.558 64.2244 135.27 64.2244C135.27 65.4123 135.27 66.6002 135.27 67.8241C134.082 67.8241 132.894 67.8241 131.67 67.8241C131.607 69.0119 131.545 70.1998 131.48 71.4237C130.355 71.4237 129.23 71.4237 128.07 71.4237C128.059 71.8457 128.047 72.2677 128.035 72.7025C128.028 72.9399 128.022 73.1772 128.015 73.4218C128.074 74.1138 128.178 74.3369 128.639 74.8338C128.701 74.9589 128.764 75.0839 128.828 75.2127C129.063 75.2127 129.297 75.2127 129.539 75.2127C130.186 75.2127 130.833 75.2127 131.48 75.2127C131.492 75.4272 131.503 75.6416 131.515 75.8625C131.531 76.1432 131.547 76.4239 131.563 76.7047C131.571 76.8461 131.578 76.9875 131.586 77.1332C131.616 77.9029 131.616 77.9029 131.859 78.6229C132.922 78.6229 133.985 78.6229 135.08 78.6229C135.08 76.2471 135.08 73.8714 135.08 71.4237C136.268 71.3611 137.456 71.2986 138.68 71.2342C138.68 70.1089 138.68 68.9835 138.68 67.8241C139.055 67.6365 139.055 67.6365 139.437 67.4452C139.437 67.5077 139.437 67.5702 139.437 67.6346C140.5 67.6346 141.563 67.6346 142.658 67.6346C142.658 63.0082 142.658 58.3817 142.658 53.6151C141.199 53.4424 141.199 53.4424 139.805 53.5085C139.496 53.5437 139.187 53.5788 138.869 53.6151C138.807 52.3647 138.744 51.1143 138.68 49.826C138.002 49.826 137.325 49.8471 136.647 49.8675ZM128.449 53.6151C129.207 53.8045 129.207 53.8045 129.207 53.8045L128.449 53.6151ZM139.059 62.8983C139.248 63.4666 139.248 63.4666 139.248 63.4666L139.059 62.8983ZM139.059 77.2967C139.059 77.7343 139.059 78.172 139.059 78.6229C139.121 78.6229 139.184 78.6229 139.248 78.6229C139.248 78.1852 139.248 77.7476 139.248 77.2967C139.186 77.2967 139.123 77.2967 139.059 77.2967ZM131.67 82.4119C131.665 82.8738 131.661 83.3355 131.658 83.7973C131.656 83.9281 131.655 84.0589 131.653 84.1936C131.65 84.7893 131.67 85.2526 131.859 85.8221C132.922 85.8221 133.985 85.8221 135.08 85.8221C135.08 84.6968 135.08 83.5714 135.08 82.4119C133.882 82.2407 132.868 82.2407 131.67 82.4119ZM131.48 93.4002C131.543 93.5253 131.606 93.6503 131.67 93.7791C131.92 93.6541 132.17 93.5291 132.428 93.4002C132.115 93.4002 131.803 93.4002 131.48 93.4002ZM144.363 93.4002C144.363 93.4627 144.363 93.5253 144.363 93.5897C144.738 93.5897 145.114 93.5897 145.5 93.5897C145.5 93.5272 145.5 93.4646 145.5 93.4002C145.125 93.4002 144.75 93.4002 144.363 93.4002ZM135.838 100.789C135.963 100.914 136.088 101.039 136.217 101.168C136.217 101.043 136.217 100.918 136.217 100.789C136.092 100.789 135.967 100.789 135.838 100.789Z" fill="#FCC101"/>
<path d="M41.4633 107.588C41.688 107.589 41.688 107.589 41.9172 107.591C42.1599 107.592 42.1599 107.592 42.4075 107.593C42.5776 107.594 42.7477 107.596 42.923 107.598C43.0938 107.598 43.2646 107.599 43.4406 107.6C43.8641 107.602 44.2875 107.606 44.7109 107.609C44.9916 108.349 45.1376 108.885 45.0188 109.67C44.9873 109.892 44.9873 109.892 44.9551 110.118C44.928 110.283 44.928 110.283 44.9004 110.451C45.0254 110.514 45.1505 110.576 45.2793 110.641C45.1543 110.641 45.0292 110.641 44.9004 110.641C44.9272 111.004 44.955 111.367 44.9833 111.73C44.9987 111.932 45.014 112.134 45.0299 112.343C45.0786 112.807 45.1501 113.225 45.2793 113.672C45.1543 113.672 45.0292 113.672 44.9004 113.672C44.9004 114.047 44.9004 114.422 44.9004 114.809C45.1444 114.806 45.3883 114.804 45.6397 114.802C45.9577 114.8 46.2756 114.798 46.5936 114.797C46.8352 114.794 46.8352 114.794 47.0817 114.792C47.2349 114.791 47.3882 114.791 47.5461 114.79C47.6879 114.789 47.8298 114.788 47.976 114.787C48.3105 114.809 48.3105 114.809 48.5 114.998C48.5168 115.545 48.5218 116.086 48.5185 116.633C48.5182 116.797 48.518 116.96 48.5177 117.129C48.5166 117.654 48.5142 118.179 48.5118 118.704C48.5109 119.059 48.51 119.414 48.5092 119.77C48.5072 120.642 48.5039 121.514 48.5 122.387C48.6719 122.352 48.8439 122.316 49.021 122.28C49.8262 122.197 49.8262 122.197 52.0996 122.387C52.0996 124.7 52.0996 127.013 52.0996 129.397C53.225 129.397 54.3503 129.397 55.5098 129.397C55.8439 129.731 55.7785 130.209 55.8176 130.663C55.8357 130.86 55.8538 131.056 55.8724 131.258C55.8887 131.859 55.8887 131.859 55.6992 132.996C56.9496 132.996 58.2 132.996 59.4883 132.996C59.4883 134.184 59.4883 135.372 59.4883 136.596C59.9259 136.533 60.3636 136.471 60.8144 136.406C61.3298 136.389 61.8388 136.379 62.3538 136.383C62.5622 136.383 62.5622 136.383 62.7748 136.384C64.0235 136.393 65.2541 136.481 66.498 136.596C66.498 137.721 66.498 138.846 66.498 140.006C67.0155 140.017 67.533 140.029 68.0662 140.041C68.5653 140.052 69.0644 140.064 69.5635 140.076C69.9114 140.085 70.2592 140.093 70.6071 140.1C71.1061 140.111 71.605 140.123 72.1039 140.135C72.2604 140.139 72.4169 140.142 72.5782 140.145C73.6757 140.174 73.6757 140.174 73.8867 140.385C73.9031 140.653 73.907 140.922 73.9052 141.191C73.9046 141.353 73.904 141.514 73.9034 141.681C73.9018 141.851 73.9002 142.021 73.8986 142.196C73.8977 142.367 73.8968 142.538 73.896 142.714C73.8937 143.138 73.8906 143.561 73.8867 143.984C74.1281 143.938 74.1281 143.938 74.3743 143.891C75.0321 143.794 75.6516 143.77 76.3163 143.77C76.558 143.77 76.7996 143.769 77.0486 143.769C77.4235 143.77 77.4235 143.77 77.806 143.771C78.0607 143.771 78.3154 143.77 78.5701 143.769C78.811 143.769 79.052 143.77 79.3002 143.77C79.6301 143.77 79.6301 143.77 79.9667 143.77C80.5176 143.795 80.5176 143.795 81.0859 143.984C81.0859 145.235 81.0859 146.485 81.0859 147.773C80.8984 147.773 80.7108 147.773 80.5176 147.773C80.4551 147.899 80.3925 148.024 80.3281 148.152C80.2343 148.121 80.1406 148.09 80.0439 148.058C79.3812 147.925 78.727 147.951 78.0547 147.963C76.4375 147.992 76.4375 147.992 75.7812 147.773C75.7187 147.899 75.6562 148.024 75.5918 148.152C75.5918 148.027 75.5918 147.902 75.5918 147.773C75.4824 147.84 75.373 147.906 75.2603 147.975C74.834 148.152 74.834 148.152 74.4432 148.117C74.0031 147.932 73.8027 147.771 73.5078 147.395C73.4456 146.923 73.4456 146.923 73.4604 146.388C73.4634 146.213 73.4663 146.038 73.4693 145.857C73.5091 145.293 73.6042 144.732 73.6973 144.174C71.1965 144.174 68.6957 144.174 66.1191 144.174C66.0566 142.986 65.9941 141.798 65.9297 140.574C64.9919 140.574 64.0541 140.574 63.0879 140.574C63.0254 140.699 62.9628 140.824 62.8984 140.953C62.8984 140.828 62.8984 140.703 62.8984 140.574C62.7683 140.607 62.6381 140.64 62.504 140.673C61.8727 140.777 61.3211 140.746 60.6842 140.693C60.4686 140.676 60.2529 140.658 60.0307 140.641C59.4883 140.574 59.4883 140.574 59.1094 140.385C59.1094 139.322 59.1094 138.259 59.1094 137.164C57.2338 137.07 57.2338 137.07 55.3203 136.975C55.3203 135.787 55.3203 134.599 55.3203 133.375C54.1324 133.375 52.9446 133.375 51.7207 133.375C51.6269 131.687 51.6269 131.687 51.5312 129.965C50.3382 129.804 50.3382 129.804 49.1749 129.775C48.9522 129.775 48.7295 129.775 48.5 129.775C48.3105 129.586 48.3105 129.586 48.289 128.938C48.2891 128.651 48.2901 128.363 48.292 128.076C48.2923 127.924 48.2926 127.773 48.2929 127.618C48.2939 127.133 48.2963 126.649 48.2987 126.164C48.2997 125.836 48.3005 125.509 48.3013 125.181C48.3034 124.376 48.3067 123.571 48.3105 122.766C48.071 122.77 47.8314 122.774 47.5846 122.779C47.27 122.783 46.9555 122.786 46.641 122.789C46.4831 122.793 46.3252 122.796 46.1625 122.799C46.0105 122.8 45.8585 122.801 45.7019 122.803C45.492 122.806 45.492 122.806 45.278 122.809C44.9004 122.766 44.9004 122.766 44.332 122.387C44.295 121.848 44.2929 121.353 44.318 120.816C44.323 120.661 44.328 120.506 44.3331 120.346C44.3498 119.85 44.3705 119.354 44.3912 118.858C44.4032 118.522 44.4149 118.186 44.4264 117.85C44.4546 117.026 44.4882 116.201 44.5215 115.377C43.3336 115.314 42.1457 115.252 40.9219 115.188C40.9175 114.139 40.9138 113.09 40.9115 112.041C40.9105 111.684 40.9092 111.327 40.9076 110.97C40.9053 110.458 40.9042 109.946 40.9034 109.434C40.9024 109.273 40.9014 109.112 40.9004 108.947C40.9004 108.564 40.9101 108.181 40.9219 107.799C41.1113 107.609 41.1113 107.609 41.4633 107.588Z" fill="#596B79"/>
<path d="M131.48 107.609C132.731 107.609 133.981 107.609 135.27 107.609C135.469 109.23 135.481 110.834 135.471 112.464C135.47 112.729 135.469 112.994 135.468 113.26C135.466 113.902 135.463 114.545 135.459 115.188C134.209 115.188 132.958 115.188 131.67 115.188C131.67 117.688 131.67 120.189 131.67 122.766C130.482 122.766 129.294 122.766 128.07 122.766C128.07 125.016 128.07 127.267 128.07 129.586C127.82 129.586 127.57 129.586 127.312 129.586C127.312 129.711 127.312 129.836 127.312 129.965C127.125 129.965 126.937 129.965 126.744 129.965C126.744 129.84 126.744 129.715 126.744 129.586C126.557 129.586 126.369 129.586 126.176 129.586C126.113 129.711 126.051 129.836 125.986 129.965C125.549 129.84 125.111 129.715 124.66 129.586C124.676 129.701 124.692 129.816 124.708 129.934C124.852 131.115 124.823 132.198 124.66 133.375C123.935 133.617 123.29 133.538 122.541 133.482C122.399 133.472 122.257 133.462 122.11 133.452C121.76 133.427 121.41 133.401 121.061 133.375C121.065 133.536 121.065 133.536 121.07 133.699C121.081 134.183 121.089 134.667 121.096 135.151C121.101 135.32 121.106 135.488 121.11 135.662C121.113 135.904 121.113 135.904 121.116 136.15C121.121 136.373 121.121 136.373 121.125 136.601C121.104 136.724 121.082 136.848 121.061 136.975C120.492 137.354 120.492 137.354 120.113 137.543C119.988 137.418 119.863 137.293 119.734 137.164C118.852 137.052 117.971 137.023 117.082 136.975C117.082 138.1 117.082 139.225 117.082 140.385C116.769 140.447 116.457 140.51 116.135 140.574C116.072 140.699 116.01 140.824 115.945 140.953C115.945 140.828 115.945 140.703 115.945 140.574C115.755 140.59 115.565 140.606 115.369 140.622C113.706 140.75 112.115 140.759 110.451 140.574C109.912 141.653 110.143 142.969 110.072 144.174C107.697 144.174 105.321 144.174 102.873 144.174C102.873 145.362 102.873 146.55 102.873 147.773C102.255 148.186 102.071 148.206 101.357 148.152C101.17 148.09 100.982 148.027 100.789 147.963C100.384 147.934 99.9787 147.916 99.5732 147.903C99.3357 147.895 99.0982 147.887 98.8535 147.879C98.6052 147.871 98.357 147.864 98.1012 147.856C97.8482 147.848 97.5952 147.84 97.3423 147.832C96.723 147.811 96.1037 147.792 95.4844 147.773C95.3232 147.021 95.2695 146.33 95.2712 145.559C95.2708 145.344 95.2703 145.128 95.2698 144.906C95.2949 144.363 95.2949 144.363 95.4844 143.984C96.9637 143.733 98.4519 143.773 99.9484 143.783C100.316 143.784 100.316 143.784 100.692 143.786C101.293 143.788 101.893 143.791 102.494 143.795C102.492 143.583 102.49 143.37 102.487 143.152C102.486 142.873 102.484 142.594 102.482 142.315C102.481 142.175 102.479 142.035 102.477 141.891C102.475 141.275 102.487 140.784 102.684 140.195C104.809 140.195 106.935 140.195 109.125 140.195C109.188 140.07 109.25 139.945 109.314 139.816C109.314 139.941 109.314 140.066 109.314 140.195C109.502 140.195 109.69 140.195 109.883 140.195C109.883 139.007 109.883 137.82 109.883 136.596C112.134 136.533 114.384 136.471 116.703 136.406C116.766 135.281 116.828 134.156 116.893 132.996C117.888 132.854 118.566 132.8 119.533 132.89C119.912 132.925 120.291 132.96 120.682 132.996C120.682 131.808 120.682 130.62 120.682 129.396C121.87 129.396 123.057 129.396 124.281 129.396C124.285 128.939 124.289 128.482 124.293 128.011C124.295 127.868 124.297 127.725 124.298 127.577C124.301 126.993 124.278 126.544 124.092 125.986C124.085 125.612 124.085 125.612 124.108 125.192C124.121 124.965 124.121 124.965 124.133 124.733C124.143 124.576 124.153 124.419 124.163 124.258C124.175 124.02 124.175 124.02 124.188 123.777C124.257 122.601 124.257 122.601 124.471 122.387C125.013 122.373 125.551 122.369 126.093 122.375C126.246 122.376 126.398 122.377 126.556 122.377C126.934 122.38 127.313 122.383 127.691 122.387C127.661 122.261 127.63 122.135 127.598 122.006C127.482 121.321 127.474 120.652 127.478 119.959C127.479 119.82 127.479 119.681 127.479 119.538C127.491 118.084 127.582 116.637 127.691 115.188C127.566 115.125 127.441 115.062 127.312 114.998C128.632 114.558 130.09 114.809 131.48 114.809C131.48 112.433 131.48 110.057 131.48 107.609Z" fill="#5B6C79"/>
<path d="M76.583 53.0118C76.9613 53.0114 77.3397 53.0079 77.718 53.0043C77.959 53.004 78.2 53.0036 78.4484 53.0032C78.668 53.0024 78.8876 53.0017 79.1139 53.0009C79.8243 53.0515 80.4187 53.1762 81.0859 53.4258C81.3583 54.0178 81.3583 54.0178 81.4648 54.5625C81.3398 54.5625 81.2148 54.5625 81.0859 54.5625C81.1211 54.6875 81.1563 54.8126 81.1925 54.9414C81.3009 55.6849 81.2095 56.2839 81.0859 57.0254C80.8965 57.2148 80.8965 57.2148 80.2315 57.2364C79.9359 57.2363 79.6402 57.2352 79.3446 57.2333C79.1893 57.2331 79.034 57.2328 78.8739 57.2325C78.3759 57.2315 77.8778 57.2291 77.3798 57.2267C77.0429 57.2257 76.7061 57.2249 76.3692 57.2241C75.5417 57.2222 74.7142 57.2185 73.8867 57.2148C73.8867 58.3402 73.8867 59.4656 73.8867 60.625C71.4485 60.6875 69.0102 60.75 66.498 60.8145C66.498 61.8773 66.498 62.9401 66.498 64.0352C65.6524 64.3734 65.287 64.4612 64.4207 64.4577C64.2067 64.4574 63.9926 64.457 63.7721 64.4566C63.4393 64.4531 63.4393 64.4531 63.0997 64.4496C62.8786 64.4495 62.6575 64.4493 62.4296 64.4492C61.4095 64.444 60.5018 64.3935 59.4883 64.2246C59.4883 65.4125 59.4883 66.6004 59.4883 67.8242C57.6127 67.918 57.6127 67.918 55.6992 68.0137C55.7617 68.2012 55.8243 68.3888 55.8887 68.582C55.7636 68.582 55.6386 68.582 55.5098 68.582C55.5762 68.7344 55.6426 68.8868 55.7111 69.0438C55.9337 69.8899 55.8395 70.571 55.6992 71.4238C55.0682 71.5711 54.436 71.6585 53.7928 71.7317C53.6343 71.7498 53.4759 71.7678 53.3126 71.7865C52.8574 71.8027 52.8574 71.8027 52.0996 71.6133C52.0996 73.989 52.0996 76.3648 52.0996 78.8125C50.9743 78.875 49.8489 78.9375 48.6895 79.002C48.6269 81.3152 48.5644 83.6284 48.5 86.0117C47.7637 86.159 47.2308 86.2175 46.4989 86.2012C45.862 86.187 45.3226 86.2064 44.7109 86.3906C44.7405 86.4978 44.77 86.605 44.8005 86.7155C44.8374 86.8545 44.8742 86.9934 44.9122 87.1366C44.9683 87.3443 44.9683 87.3443 45.0255 87.5562C45.0467 87.6717 45.068 87.7872 45.0898 87.9062C45.0273 87.9688 44.9648 88.0313 44.9004 88.0957C44.8927 88.4114 44.8923 88.7273 44.9004 89.043C45.0254 89.043 45.1505 89.043 45.2793 89.043C45.2793 89.168 45.2793 89.293 45.2793 89.4219C45.1543 89.4219 45.0292 89.4219 44.9004 89.4219C44.9356 89.5508 44.9707 89.6798 45.007 89.8126C45.1074 90.487 45.0125 91.0227 44.9004 91.6953C44.8631 92.0069 44.8276 92.3187 44.7938 92.6307C44.7779 92.777 44.7621 92.9233 44.7457 93.074C44.7285 93.2356 44.7285 93.2356 44.7109 93.4004C43.4059 93.7267 42.2397 93.5887 40.9219 93.4004C40.9219 90.8996 40.9219 88.3988 40.9219 85.8223C42.1097 85.8223 43.2976 85.8223 44.5215 85.8223C44.5215 83.4465 44.5215 81.0708 44.5215 78.623C45.7094 78.5605 46.8972 78.498 48.1211 78.4336C48.1836 76.0579 48.2461 73.6821 48.3105 71.2344C49.9048 71.1406 49.9048 71.1406 51.5312 71.0449C51.5938 69.9196 51.6563 68.7942 51.7207 67.6348C52.4067 67.4061 53.0327 67.4249 53.7455 67.4335C54.2027 67.4374 54.6598 67.4413 55.1309 67.4453C55.1934 66.32 55.2559 65.1946 55.3203 64.0352C56.1157 63.717 56.4194 63.6071 57.2148 63.6207C57.3711 63.622 57.5274 63.6232 57.6885 63.6244C58.1621 63.6563 58.1621 63.6563 59.1094 63.8457C59.1094 62.7204 59.1094 61.595 59.1094 60.4356C61.3601 60.373 63.6108 60.3105 65.9297 60.2461C65.9922 59.1207 66.0547 57.9954 66.1191 56.8359C68.6199 56.8359 71.1207 56.8359 73.6973 56.8359C73.6347 56.4608 73.5722 56.0857 73.5078 55.6992C73.5232 55.2645 73.5509 54.83 73.5907 54.3967C73.61 54.1784 73.6293 53.9601 73.6492 53.7351C73.665 53.5705 73.6809 53.4059 73.6973 53.2363C74.6327 52.9245 75.6034 53.0117 76.583 53.0118Z" fill="#596B79"/>
<path d="M111.23 38.6527C111.373 38.6625 111.515 38.6723 111.663 38.6823C111.81 38.6945 111.957 38.7067 112.109 38.7193C112.259 38.7301 112.409 38.7408 112.564 38.7519C112.933 38.7786 113.303 38.8079 113.672 38.8377C114.052 39.9776 113.861 41.2358 113.861 42.4373C116.237 42.4373 118.613 42.4373 121.061 42.4373C121.123 43.5627 121.186 44.688 121.25 45.8475C122.438 45.91 123.626 45.9725 124.85 46.0369C124.85 47.2248 124.85 48.4127 124.85 49.6366C125.725 49.574 126.6 49.5115 127.502 49.4471C127.439 49.1345 127.377 48.8219 127.312 48.4998C127.391 47.8373 127.503 47.5515 127.881 46.9842C127.881 49.1099 127.881 51.2355 127.881 53.4256C128.881 53.4256 129.881 53.4256 130.912 53.4256C130.912 53.6132 130.912 53.8007 130.912 53.994C130.474 53.9315 130.037 53.8689 129.586 53.8045C129.586 53.867 129.586 53.9296 129.586 53.994C129.227 54.0363 128.868 54.0751 128.508 54.1124C128.308 54.1344 128.108 54.1563 127.902 54.179C127.282 54.1837 126.922 54.0601 126.365 53.8045C126.24 53.8045 126.115 53.8045 125.986 53.8045C125.861 53.9296 125.736 54.0546 125.607 54.1834C125.482 54.1209 125.357 54.0584 125.229 53.994C125.229 53.8689 125.229 53.7439 125.229 53.6151C124.853 53.8026 124.853 53.8026 124.471 53.994C124.289 53.4492 124.269 53.1811 124.304 52.6241C124.313 52.4721 124.323 52.3201 124.332 52.1635C124.343 52.0056 124.353 51.8477 124.364 51.685C124.374 51.5249 124.384 51.3648 124.394 51.1999C124.419 50.805 124.445 50.4102 124.471 50.0155C123.977 50.0104 123.484 50.0066 122.991 50.0036C122.781 50.0012 122.781 50.0012 122.567 49.9988C121.951 49.996 121.46 50.0088 120.871 50.2049C120.538 49.5384 120.612 48.7308 120.584 47.9925C120.566 47.6555 120.531 47.3195 120.492 46.9842C120.367 46.9217 120.242 46.8592 120.113 46.7948C120.113 46.6697 120.113 46.5447 120.113 46.4159C120.301 46.3533 120.488 46.2908 120.682 46.2264C118.431 46.2264 116.18 46.2264 113.861 46.2264C113.696 45.5648 113.662 45.0443 113.684 44.3689C113.669 43.8402 113.577 43.3359 113.482 42.8162C113.284 42.8184 113.085 42.8206 112.881 42.8229C112.62 42.8247 112.358 42.8264 112.097 42.8281C111.966 42.8297 111.835 42.8313 111.701 42.8329C111.105 42.8358 110.642 42.8166 110.072 42.6268C110.107 42.7831 110.143 42.9394 110.179 43.1004C110.276 43.8808 110.193 44.5039 110.072 45.2791C110.197 45.3417 110.322 45.4042 110.451 45.4686C110.326 45.4686 110.201 45.4686 110.072 45.4686C110.072 45.7812 110.072 46.0938 110.072 46.4159C109.76 46.4784 109.447 46.5409 109.125 46.6053C109.125 46.4803 109.125 46.3552 109.125 46.2264C108.25 46.2264 107.374 46.2264 106.473 46.2264C106.566 46.6015 106.566 46.6015 106.662 46.9842C106.68 47.3983 106.687 47.813 106.686 48.2275C106.687 48.5502 106.687 48.5502 106.687 48.8795C106.662 49.4471 106.662 49.4471 106.473 50.0155C105.285 49.9529 104.097 49.8904 102.873 49.826C102.873 51.0139 102.873 52.2018 102.873 53.4256C102.213 53.5576 101.783 53.6351 101.144 53.6151C100.426 53.5764 100.426 53.5764 99.8418 53.8045C99.7168 53.742 99.5917 53.6795 99.4629 53.6151C99.4004 54.8029 99.3379 55.9908 99.2734 57.2147C98.6459 57.2198 98.0183 57.2235 97.3907 57.2265C97.2116 57.2281 97.0325 57.2297 96.8479 57.2313C96.5924 57.2322 96.5924 57.2322 96.3317 57.2332C96.174 57.2342 96.0162 57.2352 95.8537 57.2362C95.4844 57.2147 95.4844 57.2147 95.2949 57.0252C95.2708 56.4981 95.2598 55.9777 95.2594 55.4504C95.2571 55.304 95.2548 55.1576 95.2524 55.0067C95.2489 53.6731 95.2489 53.6731 95.6738 53.0467C95.9264 53.0414 96.179 53.0379 96.4316 53.0349C96.5723 53.0327 96.713 53.0305 96.8579 53.0282C97.5399 53.0524 98.2174 53.1515 98.8945 53.2362C98.8945 52.0483 98.8945 50.8604 98.8945 49.6366C100.145 49.6366 101.395 49.6366 102.684 49.6366C102.621 49.324 102.559 49.0114 102.494 48.6893C102.477 48.2633 102.469 47.8368 102.47 47.4105C102.47 47.1926 102.469 46.9748 102.469 46.7504C102.494 46.2264 102.494 46.2264 102.684 46.0369C102.952 46.0206 103.221 46.0167 103.49 46.0184C103.708 46.0192 103.708 46.0192 103.931 46.0199C104.117 46.0216 104.303 46.0233 104.495 46.0251C105.085 46.029 105.675 46.0329 106.283 46.0369C106.283 44.8491 106.283 43.6612 106.283 42.4373C107.409 42.4373 108.534 42.4373 109.693 42.4373C109.693 41.312 109.693 40.1866 109.693 39.0272C110.546 38.6009 110.546 38.6009 111.23 38.6527ZM128.449 53.6151C129.207 53.8045 129.207 53.8045 129.207 53.8045L128.449 53.6151Z" fill="#5F6D79"/>
<path d="M132.554 53.2181C132.723 53.2187 132.893 53.2193 133.067 53.2199C133.243 53.2215 133.419 53.2231 133.6 53.2247C133.867 53.226 133.867 53.226 134.14 53.2273C134.58 53.2295 135.019 53.2329 135.459 53.2366C135.553 55.0184 135.553 55.0184 135.648 56.8362C135.836 56.7736 136.024 56.7111 136.217 56.6467C136.708 56.6934 137.186 56.7512 137.673 56.8243C137.806 56.8432 137.939 56.8622 138.076 56.8817C138.404 56.9285 138.731 56.9769 139.059 57.0256C139.226 58.5531 139.264 60.0604 139.241 61.595C139.237 61.9664 139.242 62.3378 139.248 62.7092C139.311 62.7717 139.373 62.8342 139.437 62.8987C139.445 63.2143 139.446 63.5303 139.437 63.8459C139.312 63.8459 139.187 63.8459 139.059 63.8459C139.059 63.971 139.059 64.096 139.059 64.2248C138.326 64.4646 137.594 64.4354 136.833 64.4261C136.379 64.4222 135.926 64.4183 135.459 64.4143C135.459 65.5396 135.459 66.665 135.459 67.8244C134.924 68.0028 134.674 68.0277 134.131 67.991C134.001 67.9828 133.872 67.9746 133.739 67.9662C133.494 67.9488 133.494 67.9488 133.245 67.931C132.465 67.8783 132.465 67.8783 131.67 67.8244C131.67 69.0123 131.67 70.2002 131.67 71.4241C131.062 71.6266 130.615 71.6388 129.977 71.6372C129.78 71.6377 129.583 71.6382 129.379 71.6387C128.908 71.6172 128.519 71.5603 128.07 71.4241C128.133 71.6116 128.195 71.7992 128.26 71.9924C128.272 72.4689 128.259 72.942 128.248 73.4185C128.259 73.8658 128.299 74.2239 128.449 74.6448C128.574 74.7073 128.699 74.7698 128.828 74.8342C128.828 74.9592 128.828 75.0843 128.828 75.2131C128.516 75.2131 128.203 75.2131 127.881 75.2131C127.881 76.4635 127.881 77.7139 127.881 79.0022C127.196 79.2306 126.694 79.1823 125.974 79.1324C125.738 79.1175 125.501 79.1026 125.257 79.0873C124.66 79.0022 124.66 79.0022 124.281 78.6233C124.261 78.0652 124.264 77.5268 124.286 76.97C124.29 76.8065 124.295 76.6431 124.3 76.4747C124.316 75.9514 124.334 75.4284 124.352 74.9053C124.363 74.551 124.374 74.1968 124.385 73.8425C124.411 72.9731 124.441 72.1039 124.471 71.2346C126.065 71.1408 126.065 71.1408 127.691 71.0451C127.629 70.7951 127.566 70.545 127.502 70.2873C127.564 70.1623 127.627 70.0373 127.691 69.9084C127.705 69.5218 127.707 69.1348 127.703 68.748C127.702 68.5404 127.7 68.3329 127.698 68.119C127.696 67.9593 127.694 67.7995 127.691 67.635C128.424 67.3952 129.156 67.4244 129.917 67.4337C130.371 67.4376 130.824 67.4415 131.291 67.4455C131.354 66.2577 131.416 65.0698 131.48 63.8459C132.606 63.7834 133.731 63.7209 134.891 63.6565C134.891 61.6558 134.891 59.6552 134.891 57.594C133.848 57.6164 133.848 57.6164 132.805 57.6452C132.426 57.6493 132.048 57.6222 131.67 57.594C131.269 56.9925 131.248 56.8993 131.295 56.2241C131.305 56.0721 131.315 55.9201 131.325 55.7635C131.337 55.6056 131.349 55.4477 131.362 55.285C131.378 55.0449 131.378 55.0449 131.395 54.7999C131.421 54.405 131.451 54.0102 131.48 53.6155C131.355 53.5529 131.23 53.4904 131.102 53.426C131.648 53.244 131.988 53.2144 132.554 53.2181ZM139.059 62.8987C139.248 63.467 139.248 63.467 139.248 63.467L139.059 62.8987Z" fill="#80776F"/>
<path d="M129.563 45.6483C130.018 45.8742 130.299 45.8926 130.804 45.8877C130.968 45.887 131.133 45.8864 131.302 45.8857C131.566 45.8819 131.566 45.8819 131.836 45.878C132.018 45.877 132.2 45.876 132.388 45.875C132.969 45.8716 133.551 45.8657 134.133 45.8595C134.715 45.8543 135.296 45.8496 135.878 45.846C136.24 45.8437 136.602 45.8404 136.963 45.8359C137.128 45.8347 137.292 45.8334 137.462 45.8322C137.606 45.8306 137.75 45.829 137.898 45.8274C138.301 45.8476 138.301 45.8476 139.059 46.0371C139.059 47.225 139.059 48.4128 139.059 49.6367C140.309 49.6367 141.559 49.6367 142.848 49.6367C143.161 50.2638 143.056 50.9612 143.049 51.6496C143.048 51.8016 143.047 51.9535 143.046 52.11C143.044 52.4854 143.041 52.8609 143.037 53.2363C143.174 53.2204 143.312 53.2046 143.453 53.1882C143.728 53.1593 143.728 53.1593 144.008 53.1298C144.278 53.1001 144.278 53.1001 144.554 53.0698C145.121 53.0469 145.121 53.0469 146.258 53.2363C146.258 54.4867 146.258 55.7371 146.258 57.0254C145.07 57.0254 143.882 57.0254 142.658 57.0254C142.658 55.9 142.658 54.7747 142.658 53.6152C141.408 53.6152 140.157 53.6152 138.869 53.6152C138.775 53.8028 138.775 53.8028 138.68 53.9941C138.68 52.6187 138.68 51.2433 138.68 49.8262C138.492 49.8887 138.305 49.9512 138.111 50.0156C137.621 50.0317 137.137 50.0376 136.647 50.0341C136.505 50.0339 136.362 50.0336 136.216 50.0333C135.762 50.0322 135.309 50.0299 134.855 50.0275C134.547 50.0265 134.24 50.0256 133.932 50.0249C133.178 50.0228 132.424 50.0195 131.67 50.0156C131.732 50.2032 131.795 50.3907 131.859 50.584C131.877 50.9625 131.884 51.3417 131.883 51.7207C131.884 52.0196 131.884 52.0196 131.885 52.3246C131.859 52.8574 131.859 52.8574 131.67 53.4258C130.42 53.4258 129.169 53.4258 127.881 53.4258C127.881 51.2376 127.881 49.0494 127.881 46.7949C127.756 46.7324 127.631 46.6699 127.502 46.6055C128.738 45.2322 128.738 45.2322 129.563 45.6483Z" fill="#E7A40E"/>
<path d="M142.848 57.0254C143.91 57.0254 144.973 57.0254 146.068 57.0254C146.068 60.5265 146.068 64.0276 146.068 67.6348C145.006 67.6348 143.943 67.6348 142.848 67.6348C142.848 64.1337 142.848 60.6326 142.848 57.0254Z" fill="#EEAB09"/>
<path d="M120.871 85.6328C122.059 85.6953 123.247 85.7579 124.471 85.8223C124.471 87.0727 124.471 88.323 124.471 89.6113C126.846 89.6113 129.222 89.6113 131.67 89.6113C131.67 90.7992 131.67 91.9871 131.67 93.2109C132.233 93.2109 132.795 93.2109 133.375 93.2109C133.25 93.461 133.125 93.7111 132.996 93.9688C132.871 93.7812 132.746 93.5936 132.617 93.4004C132.617 93.5254 132.617 93.6505 132.617 93.7793C131.173 94.0161 131.173 94.0161 130.533 93.5898C130.081 93.534 129.626 93.4965 129.172 93.4714C128.93 93.4573 128.689 93.4431 128.441 93.4285C128.256 93.4192 128.071 93.41 127.881 93.4004C127.478 92.5242 127.478 92.5242 127.691 91.8848C127.566 91.7597 127.441 91.6347 127.312 91.5059C127.375 91.4004 127.438 91.2949 127.502 91.1862C127.717 90.689 127.706 90.3365 127.691 89.8008C127.493 89.8085 127.294 89.8162 127.089 89.8242C126.352 89.8523 125.616 89.8778 124.879 89.9025C124.56 89.9136 124.241 89.9254 123.922 89.9379C123.464 89.9557 123.006 89.971 122.548 89.9858C122.405 89.9919 122.262 89.998 122.114 90.0043C121.763 90.0144 121.412 90.004 121.061 89.9902C120.936 89.8652 120.81 89.7402 120.682 89.6113C120.682 89.4238 120.682 89.2362 120.682 89.043C120.557 88.9804 120.432 88.9179 120.303 88.8535C120.428 88.791 120.553 88.7285 120.682 88.6641C120.741 88.1483 120.779 87.6538 120.8 87.1366C120.823 86.6403 120.847 86.1441 120.871 85.6328ZM131.48 93.4004C131.543 93.5254 131.606 93.6505 131.67 93.7793C131.92 93.6543 132.17 93.5292 132.428 93.4004C132.115 93.4004 131.803 93.4004 131.48 93.4004Z" fill="#E4581C"/>
<path d="M86.1693 53.0151C86.3187 53.0144 86.468 53.0138 86.6218 53.0132C86.9386 53.0122 87.2554 53.0118 87.5722 53.0118C88.0562 53.0114 88.5401 53.0079 89.0241 53.0043C89.3316 53.0038 89.6391 53.0034 89.9466 53.0032C90.1636 53.0012 90.1636 53.0012 90.385 52.9991C91.103 53.0022 91.655 53.022 92.2637 53.4258C92.2688 53.8442 92.2725 54.2625 92.2755 54.6809C92.2777 54.9139 92.2799 55.1469 92.2822 55.3869C92.2637 56.0781 92.2637 56.0781 92.0742 57.2149C89.5734 57.2149 87.0727 57.2149 84.4961 57.2149C84.4961 56.2771 84.4961 55.3393 84.4961 54.3731C84.3711 54.3105 84.246 54.248 84.1172 54.1836C84.2422 54.1836 84.3673 54.1836 84.4961 54.1836C84.4902 53.955 84.4902 53.955 84.4843 53.7218C84.5089 52.7109 85.3695 53.0162 86.1693 53.0151Z" fill="#596A78"/>
<path d="M44.9004 96.9998C44.9276 97.8154 44.9546 98.631 44.9813 99.4466C44.9905 99.7237 44.9996 100.001 45.0089 100.278C45.0222 100.678 45.0353 101.077 45.0484 101.477C45.0563 101.717 45.0643 101.957 45.0725 102.205C45.0782 102.425 45.0839 102.646 45.0898 102.873C45.0985 103.077 45.1072 103.282 45.1161 103.493C45.0898 104.01 45.0898 104.01 44.7109 104.578C44.3405 104.645 44.3405 104.645 43.8932 104.64C43.7329 104.639 43.5725 104.638 43.4073 104.637C43.2397 104.633 43.072 104.629 42.8993 104.625C42.6467 104.624 42.6467 104.624 42.389 104.622C41.1405 104.607 41.1405 104.607 40.9219 104.388C40.9051 103.842 40.9 103.3 40.9034 102.754C40.9036 102.59 40.9039 102.426 40.9042 102.258C40.9052 101.732 40.9076 101.207 40.91 100.682C40.911 100.327 40.9118 99.9721 40.9126 99.617C40.9147 98.7446 40.918 97.8722 40.9219 96.9998C41.4073 96.9627 41.8927 96.9275 42.3783 96.8932C42.5149 96.8826 42.6516 96.872 42.7924 96.8611C43.5312 96.8104 44.1826 96.8087 44.9004 96.9998Z" fill="#596B78"/>
<path d="M131.847 96.7852C133 96.7888 134.123 96.8688 135.27 96.9998C135.332 98.2502 135.395 99.5006 135.459 100.789C135.709 100.914 135.959 101.039 136.217 101.168C136.154 101.293 136.092 101.418 136.027 101.547C135.84 101.547 135.652 101.547 135.459 101.547C135.461 101.734 135.463 101.921 135.466 102.114C135.467 102.356 135.469 102.599 135.471 102.849C135.473 103.091 135.475 103.333 135.477 103.582C135.459 104.199 135.459 104.199 135.27 104.578C134.019 104.578 132.769 104.578 131.48 104.578C131.449 103.502 131.418 102.426 131.389 101.351C131.379 100.984 131.369 100.618 131.358 100.252C131.342 99.7265 131.328 99.2013 131.314 98.676C131.309 98.5112 131.304 98.3464 131.298 98.1766C131.289 97.7845 131.289 97.3921 131.291 96.9998C131.48 96.8103 131.48 96.8103 131.847 96.7852Z" fill="#7F746D"/>
<path d="M92.0742 143.985C92.3602 144.557 92.2909 145.146 92.2874 145.773C92.2881 145.902 92.2888 146.031 92.2896 146.164C92.2884 146.752 92.2616 147.212 92.0742 147.774C90.4206 147.89 88.771 147.982 87.1129 147.987C86.9159 147.988 86.9159 147.988 86.7148 147.989C85.9391 147.987 85.2725 147.903 84.4961 147.774C84.4961 146.523 84.4961 145.273 84.4961 143.985C85.3317 143.953 86.1673 143.922 87.003 143.893C87.2867 143.883 87.5704 143.873 87.8541 143.862C88.2642 143.846 88.6743 143.832 89.0844 143.818C89.3305 143.809 89.5765 143.8 89.83 143.791C90.6064 143.795 91.3099 143.849 92.0742 143.985Z" fill="#576A78"/>
<path d="M129.965 45.8474C130.411 45.9323 130.411 45.9323 130.865 45.9658C131.016 45.98 131.168 45.9942 131.324 46.0088C131.438 46.018 131.552 46.0273 131.67 46.0369C131.702 46.7473 131.734 47.4578 131.765 48.1682C131.774 48.366 131.783 48.5639 131.792 48.7677C131.956 52.5668 131.956 52.5668 131.67 53.4256C130.42 53.4256 129.169 53.4256 127.881 53.4256C127.881 51.2374 127.881 49.0492 127.881 46.7947C127.756 46.7322 127.631 46.6697 127.502 46.6052C128.312 45.7056 128.857 45.2894 129.965 45.8474Z" fill="#DF5C1F"/>
<path d="M143.605 74.6445C143.793 74.7696 143.981 74.8946 144.174 75.0234C144.736 75.1104 144.736 75.1104 145.346 75.1418C145.552 75.156 145.758 75.1702 145.97 75.1848C146.206 75.1987 146.206 75.1987 146.447 75.2129C146.445 75.4273 146.443 75.6417 146.441 75.8627C146.439 76.1434 146.437 76.4241 146.435 76.7048C146.434 76.8462 146.432 76.9876 146.431 77.1333C146.408 77.9028 146.408 77.9028 146.637 78.623C147.825 78.623 149.012 78.623 150.236 78.623C150.236 79.8734 150.236 81.1238 150.236 82.4121C149.861 82.4121 149.486 82.4121 149.1 82.4121C149.006 82.5997 149.006 82.5997 148.91 82.791C148.91 82.666 148.91 82.5409 148.91 82.4121C148.035 82.4121 147.16 82.4121 146.258 82.4121C146.258 81.2242 146.258 80.0364 146.258 78.8125C145.07 78.75 143.882 78.6875 142.658 78.623C142.331 75.6779 142.331 75.6779 142.658 75.0234C142.971 75.0234 143.283 75.0234 143.605 75.0234C143.605 74.8984 143.605 74.7734 143.605 74.6445Z" fill="#E45D1C"/>
<path d="M139.059 46.037C139.059 47.2249 139.059 48.4128 139.059 49.6366C136.62 49.6366 134.182 49.6366 131.67 49.6366C131.67 48.4487 131.67 47.2609 131.67 46.037C132.57 46.0055 133.47 45.9747 134.37 45.9457C134.676 45.9356 134.982 45.9251 135.288 45.9142C135.728 45.8986 136.169 45.8844 136.61 45.8705C136.814 45.8628 136.814 45.8628 137.022 45.855C137.754 45.8334 138.329 45.8911 139.059 46.037Z" fill="#E8A40C"/>
<path d="M123.334 46.0371C123.834 46.0371 124.334 46.0371 124.85 46.0371C124.85 47.225 124.85 48.4129 124.85 49.6367C125.725 49.5742 126.6 49.5117 127.502 49.4473C127.408 48.9784 127.408 48.9784 127.312 48.5C127.391 47.8374 127.503 47.5516 127.881 46.9844C127.881 49.11 127.881 51.2357 127.881 53.4258C128.881 53.4258 129.881 53.4258 130.912 53.4258C130.912 53.6133 130.912 53.8009 130.912 53.9941C130.474 53.9316 130.037 53.8691 129.586 53.8047C129.586 53.8672 129.586 53.9297 129.586 53.9941C129.227 54.0365 128.868 54.0753 128.508 54.1125C128.308 54.1345 128.108 54.1565 127.902 54.1792C127.282 54.1838 126.922 54.0603 126.365 53.8047C126.24 53.8047 126.115 53.8047 125.986 53.8047C125.861 53.9297 125.736 54.0548 125.607 54.1836C125.482 54.1211 125.357 54.0586 125.229 53.9941C125.229 53.8691 125.229 53.7441 125.229 53.6152C124.978 53.7403 124.728 53.8653 124.471 53.9941C124.289 53.4494 124.269 53.1813 124.304 52.6243C124.318 52.3963 124.318 52.3963 124.332 52.1636C124.343 52.0057 124.353 51.8479 124.364 51.6852C124.379 51.4451 124.379 51.4451 124.394 51.2001C124.419 50.8052 124.445 50.4104 124.471 50.0156C124.096 50.0156 123.72 50.0156 123.334 50.0156C123.334 49.9531 123.334 49.8906 123.334 49.8262C123.647 49.8262 123.959 49.8262 124.281 49.8262C124.281 49.7011 124.281 49.5761 124.281 49.4473C124.406 49.4473 124.531 49.4473 124.66 49.4473C124.598 48.3844 124.535 47.3216 124.471 46.2266C124.096 46.2266 123.72 46.2266 123.334 46.2266C123.334 46.164 123.334 46.1015 123.334 46.0371ZM128.449 53.6152C129.207 53.8047 129.207 53.8047 129.207 53.8047L128.449 53.6152Z" fill="#7D7570"/>
<path d="M138.869 67.2559C139.016 67.2969 139.016 67.2969 139.165 67.3387C139.757 67.4753 140.352 67.5538 140.953 67.6348C140.953 67.6973 140.953 67.7598 140.953 67.8242C140.265 67.8242 139.578 67.8242 138.869 67.8242C138.883 68.0401 138.897 68.256 138.911 68.4784C139.045 70.7275 139.075 72.9596 139.059 75.2129C136.995 75.3067 136.995 75.3067 134.891 75.4023C134.887 74.7498 134.883 74.0972 134.879 73.4249C134.877 73.2189 134.875 73.013 134.874 72.8007C134.873 72.6397 134.873 72.4786 134.872 72.3126C134.871 72.1469 134.87 71.9813 134.869 71.8106C134.891 71.4238 134.891 71.4238 135.08 71.2344C135.348 71.218 135.617 71.2141 135.886 71.2159C136.129 71.2168 136.129 71.2168 136.376 71.2177C136.546 71.2193 136.716 71.2209 136.892 71.2225C137.063 71.2234 137.233 71.2242 137.409 71.2251C137.833 71.2274 138.256 71.2305 138.68 71.2344C138.662 70.9948 138.644 70.7552 138.625 70.5084C138.604 70.1939 138.582 69.8793 138.561 69.5648C138.549 69.4069 138.537 69.249 138.524 69.0864C138.51 68.8583 138.51 68.8583 138.495 68.6257C138.485 68.4858 138.475 68.3459 138.465 68.2018C138.49 67.8242 138.49 67.8242 138.869 67.2559Z" fill="#E1611E"/>
<path d="M146.258 89.4219C147.571 89.4219 148.884 89.4219 150.236 89.4219C150.236 90.7973 150.236 92.1727 150.236 93.5898C148.923 93.5273 147.611 93.4648 146.258 93.4004C146.258 92.0875 146.258 90.7746 146.258 89.4219Z" fill="#E25D1C"/>
<path d="M135.27 97C136.52 97 137.77 97 139.059 97C139.063 97.6174 139.066 98.2348 139.07 98.8708C139.072 99.0652 139.074 99.2596 139.076 99.4598C139.076 99.6127 139.077 99.7657 139.077 99.9232C139.079 100.158 139.079 100.158 139.08 100.398C139.059 100.789 139.059 100.789 138.869 101.168C138.744 101.105 138.619 101.043 138.49 100.979C138.428 101.041 138.365 101.104 138.301 101.168C137.612 101.439 137.256 101.257 136.596 100.979C136.471 101.041 136.346 101.104 136.217 101.168C136.217 101.043 136.217 100.918 136.217 100.789C135.904 100.789 135.592 100.789 135.27 100.789C135.27 99.5387 135.27 98.2883 135.27 97Z" fill="#DD5920"/>
<path d="M142.848 52.8574C142.91 52.9825 142.973 53.1075 143.037 53.2363C143.243 53.2125 143.243 53.2125 143.453 53.1882C143.636 53.1689 143.819 53.1496 144.008 53.1298C144.188 53.11 144.369 53.0902 144.554 53.0698C145.121 53.0469 145.121 53.0469 146.258 53.2363C146.258 54.4867 146.258 55.7371 146.258 57.0254C145.07 57.0254 143.882 57.0254 142.658 57.0254C142.596 55.8375 142.533 54.6496 142.469 53.4258C142.594 53.4258 142.719 53.4258 142.848 53.4258C142.848 53.2382 142.848 53.0507 142.848 52.8574Z" fill="#E05D1C"/>
<path d="M130.344 74.834C130.781 74.959 131.219 75.0841 131.67 75.2129C131.707 75.639 131.742 76.0653 131.776 76.4917C131.796 76.7291 131.816 76.9665 131.836 77.211C131.859 77.8652 131.859 77.8652 131.67 78.623C130.42 78.623 129.169 78.623 127.881 78.623C127.881 77.4977 127.881 76.3723 127.881 75.2129C128.467 75.1697 129.053 75.1266 129.638 75.0834C130.137 75.0795 130.137 75.0795 130.344 74.834Z" fill="#E35A1E"/>
<path d="M130.344 74.834C130.781 74.959 131.219 75.0841 131.67 75.2129C131.67 75.5255 131.67 75.8381 131.67 76.1602C131.607 75.9101 131.545 75.66 131.48 75.4023C130.261 75.4961 130.261 75.4961 129.018 75.5918C128.955 76.5296 128.893 77.4674 128.828 78.4336C129.703 78.4336 130.579 78.4336 131.48 78.4336C131.48 78.4961 131.48 78.5586 131.48 78.623C130.293 78.623 129.105 78.623 127.881 78.623C127.881 77.4977 127.881 76.3723 127.881 75.2129C128.467 75.1697 129.053 75.1266 129.638 75.0834C130.137 75.0795 130.137 75.0795 130.344 74.834Z" fill="#D65325"/>
<path d="M131.67 78.2441C131.795 78.4317 131.92 78.6193 132.049 78.8125C130.736 78.8125 129.423 78.8125 128.07 78.8125C128.07 81.1257 128.07 83.4389 128.07 85.8223C127.82 85.6972 127.57 85.5722 127.312 85.4434C127.5 85.4434 127.688 85.4434 127.881 85.4434C127.881 85.3183 127.881 85.1933 127.881 85.0645C127.756 85.0019 127.631 84.9394 127.502 84.875C127.549 84.6992 127.549 84.6992 127.597 84.5198C127.68 84.0003 127.698 83.5511 127.691 83.0278C127.68 82.1119 127.764 81.2362 127.881 80.3281C127.756 80.3281 127.631 80.3281 127.502 80.3281C127.439 80.1406 127.377 79.953 127.312 79.7598C127.375 79.6972 127.438 79.6347 127.502 79.5703C127.502 79.4453 127.502 79.3202 127.502 79.1914C127.627 79.1914 127.752 79.1914 127.881 79.1914C127.881 79.0038 127.881 78.8163 127.881 78.623C129.131 78.623 130.382 78.623 131.67 78.623C131.67 78.498 131.67 78.373 131.67 78.2441ZM124.471 85.8223C125.596 85.8223 126.721 85.8223 127.881 85.8223C127.881 85.8848 127.881 85.9473 127.881 86.0117C127.037 86.1055 127.037 86.1055 126.176 86.2012C126.176 86.2637 126.176 86.3262 126.176 86.3906C125.676 86.3906 125.175 86.3906 124.66 86.3906C124.66 87.4535 124.66 88.5163 124.66 89.6113C124.598 89.6113 124.535 89.6113 124.471 89.6113C124.471 88.3609 124.471 87.1105 124.471 85.8223Z" fill="#F4B009"/>
<path d="M124.281 89.4219C125.469 89.4844 126.657 89.5469 127.881 89.6113C127.881 89.7364 127.881 89.8614 127.881 89.9902C128.068 90.0528 128.256 90.1153 128.449 90.1797C128.387 91.1175 128.324 92.0553 128.26 93.0215C130.792 93.1153 130.792 93.1153 133.375 93.2109C133.25 93.461 133.125 93.7111 132.996 93.9688C132.871 93.7812 132.746 93.5936 132.617 93.4004C132.617 93.5254 132.617 93.6505 132.617 93.7793C131.173 94.0161 131.173 94.0161 130.533 93.5898C130.081 93.534 129.626 93.4965 129.172 93.4714C128.81 93.4502 128.81 93.4502 128.441 93.4285C128.256 93.4192 128.071 93.41 127.881 93.4004C127.478 92.5242 127.478 92.5242 127.691 91.8848C127.566 91.7597 127.441 91.6347 127.312 91.5059C127.375 91.4004 127.438 91.2949 127.502 91.1862C127.754 90.6827 127.754 90.6827 127.691 89.8008C126.566 89.8008 125.441 89.8008 124.281 89.8008C124.281 89.6757 124.281 89.5507 124.281 89.4219ZM131.48 93.4004C131.543 93.5254 131.606 93.6505 131.67 93.7793C131.92 93.6543 132.17 93.5292 132.428 93.4004C132.115 93.4004 131.803 93.4004 131.48 93.4004Z" fill="#E0771B"/>
<path d="M139.438 93.2109C140.398 93.1969 141.359 93.1865 142.32 93.1797C142.647 93.1768 142.974 93.1729 143.301 93.168C143.771 93.1611 144.241 93.1579 144.71 93.1554C144.857 93.1525 145.003 93.1495 145.154 93.1465C146.172 93.1462 146.172 93.1462 146.639 93.4985C146.701 93.5912 146.762 93.6838 146.826 93.7793C146.36 93.7895 145.895 93.797 145.429 93.8029C145.23 93.8077 145.23 93.8077 145.028 93.8126C144.68 93.8159 144.332 93.7988 143.984 93.7793C143.859 93.6542 143.734 93.5292 143.605 93.4003C143.605 93.5254 143.605 93.6504 143.605 93.7793C143.306 93.8216 143.006 93.8604 142.706 93.8977C142.455 93.9306 142.455 93.9306 142.199 93.9643C141.656 93.9692 141.422 93.847 140.953 93.5898C140.449 93.4922 139.95 93.4516 139.438 93.4003C139.438 93.3378 139.438 93.2753 139.438 93.2109ZM144.363 93.4003C144.363 93.4629 144.363 93.5254 144.363 93.5898C144.738 93.5898 145.114 93.5898 145.5 93.5898C145.5 93.5273 145.5 93.4648 145.5 93.4003C145.125 93.4003 144.75 93.4003 144.363 93.4003Z" fill="#E3910F"/>
<path d="M130.912 53.4259C130.912 53.6135 130.912 53.8011 130.912 53.9943C130.474 53.9318 130.037 53.8693 129.586 53.8048C129.586 53.8674 129.586 53.9299 129.586 53.9943C129.227 54.0366 128.868 54.0754 128.508 54.1127C128.208 54.1457 128.208 54.1457 127.902 54.1793C127.282 54.184 126.922 54.0604 126.365 53.8048C126.24 53.8048 126.115 53.8048 125.986 53.8048C125.861 53.9299 125.736 54.0549 125.607 54.1837C125.482 54.1212 125.357 54.0587 125.229 53.9943C125.229 53.8693 125.229 53.7442 125.229 53.6154C124.853 53.8029 124.853 53.8029 124.471 53.9943C124.471 53.8067 124.471 53.6192 124.471 53.4259C126.642 53.2493 128.741 53.2493 130.912 53.4259ZM128.449 53.6154C129.207 53.8048 129.207 53.8048 129.207 53.8048L128.449 53.6154Z" fill="#947660"/>
<path d="M123.334 46.0371C123.834 46.0371 124.334 46.0371 124.85 46.0371C124.85 47.225 124.85 48.4129 124.85 49.6367C125.725 49.5742 126.6 49.5117 127.502 49.4473C127.408 48.9784 127.408 48.9784 127.312 48.5C127.391 47.8374 127.503 47.5516 127.881 46.9844C127.881 47.9222 127.881 48.86 127.881 49.8262C126.818 49.8262 125.755 49.8262 124.66 49.8262C124.598 48.6383 124.535 47.4504 124.471 46.2266C124.096 46.2266 123.72 46.2266 123.334 46.2266C123.334 46.164 123.334 46.1015 123.334 46.0371Z" fill="#877465"/>
<path d="M127.312 75.7812C127.772 76.4703 127.765 76.8909 127.81 77.7113C127.824 77.9523 127.838 78.1934 127.853 78.4417C127.862 78.6266 127.871 78.8115 127.881 79.002C127.186 79.2337 126.68 79.1687 125.951 79.1085C125.71 79.0892 125.469 79.0699 125.22 79.0501C125.036 79.0342 124.851 79.0183 124.66 79.002C124.66 78.9394 124.66 78.8769 124.66 78.8125C125.535 78.75 126.411 78.6875 127.312 78.623C127.312 77.6853 127.312 76.7475 127.312 75.7812Z" fill="#9C7F5C"/>
<path d="M128.07 71.2344C128.328 71.955 128.266 72.6711 128.248 73.425C128.259 73.8695 128.3 74.2262 128.449 74.6446C128.574 74.7071 128.699 74.7696 128.828 74.8341C128.828 74.9591 128.828 75.0841 128.828 75.213C128.516 75.213 128.203 75.213 127.881 75.213C127.881 73.9626 127.881 72.7122 127.881 71.4239C127.006 71.4239 126.13 71.4239 125.229 71.4239C125.229 71.3614 125.229 71.2989 125.229 71.2344C125.631 71.1976 126.034 71.1624 126.436 71.1279C126.66 71.1081 126.885 71.0883 127.116 71.0679C127.691 71.045 127.691 71.045 128.07 71.2344Z" fill="#8C7669"/>
<path d="M146.258 89.6113C146.383 89.6113 146.508 89.6113 146.637 89.6113C146.637 90.5491 146.637 91.4869 146.637 92.4531C146.762 92.4531 146.887 92.4531 147.016 92.4531C147.016 92.6407 147.016 92.8282 147.016 93.0215C146.766 93.0215 146.515 93.0215 146.258 93.0215C146.258 91.8961 146.258 90.7708 146.258 89.6113Z" fill="#E04B20"/>
<path d="M129.965 45.8476C130.469 45.938 130.97 45.986 131.48 46.0371C131.48 46.0996 131.48 46.1621 131.48 46.2266C130.355 46.2266 129.23 46.2266 128.07 46.2266C128.008 46.4766 127.945 46.7267 127.881 46.9844C127.756 46.8593 127.631 46.7343 127.502 46.6055C128.294 45.7254 128.875 45.2561 129.965 45.8476Z" fill="#C76225"/>
<path d="M138.869 93.4004C139.494 93.4629 140.12 93.5254 140.764 93.5898C140.764 93.6524 140.764 93.7149 140.764 93.7793C140.584 93.8027 140.404 93.8262 140.219 93.8503C139.611 93.9151 139.611 93.9151 139.248 94.3477C139.191 94.7957 139.154 95.2465 139.13 95.6975C139.115 95.9403 139.101 96.183 139.087 96.4331C139.077 96.6202 139.068 96.8073 139.059 97C138.996 97 138.934 97 138.869 97C138.869 95.8121 138.869 94.6243 138.869 93.4004Z" fill="#F1AC07"/>
<path d="M139.438 93.2109C140.688 93.2109 141.938 93.2109 143.227 93.2109C142.288 93.9146 142.288 93.9146 141.711 93.9688C141.458 93.8424 141.206 93.7161 140.953 93.5898C140.448 93.5006 139.948 93.4514 139.438 93.4004C139.438 93.3379 139.438 93.2754 139.438 93.2109Z" fill="#F2A709"/>
<path d="M111.211 38.6713C111.355 38.6805 111.498 38.6896 111.646 38.6991C111.795 38.7097 111.944 38.7203 112.097 38.7313C112.248 38.7412 112.399 38.7511 112.555 38.7612C112.927 38.7858 113.3 38.8117 113.672 38.8378C113.672 38.9004 113.672 38.9629 113.672 39.0273C113.432 39.0388 113.193 39.0502 112.946 39.0621C112.631 39.0781 112.317 39.0941 112.002 39.1102C111.844 39.1176 111.687 39.1251 111.524 39.1327C111.372 39.1407 111.22 39.1486 111.063 39.1568C110.853 39.1672 110.853 39.1672 110.639 39.1778C110.222 39.207 110.222 39.207 109.693 39.4062C109.756 39.2186 109.818 39.0311 109.883 38.8378C110.418 38.6595 110.667 38.6345 111.211 38.6713Z" fill="#57636D"/>
<path d="M128.26 73.8867C128.295 74.0684 128.295 74.0684 128.331 74.2538C128.389 74.4472 128.389 74.4472 128.449 74.6445C128.574 74.7071 128.699 74.7696 128.828 74.834C128.828 74.959 128.828 75.0841 128.828 75.2129C128.516 75.2129 128.203 75.2129 127.881 75.2129C127.857 74.7629 127.857 74.7629 127.881 74.2656C128.006 74.1406 128.131 74.0155 128.26 73.8867Z" fill="#A5764D"/>
<path d="M127.691 46.9844C127.754 46.9844 127.816 46.9844 127.881 46.9844C127.881 47.8596 127.881 48.7349 127.881 49.6367C127.464 49.22 127.394 49.0696 127.312 48.5C127.391 47.9653 127.52 47.4978 127.691 46.9844Z" fill="#AC7443"/>
<path d="M129.396 93.5898C129.772 93.5898 130.147 93.5898 130.533 93.5898C130.533 93.6524 130.533 93.7149 130.533 93.7793C130.158 93.7793 129.783 93.7793 129.396 93.7793C129.396 93.7168 129.396 93.6543 129.396 93.5898Z" fill="#D07827"/>
<path d="M128.26 93.5898C128.51 93.6524 128.76 93.7149 129.018 93.7793C128.767 93.8418 128.517 93.9043 128.26 93.9688C128.26 93.8437 128.26 93.7187 128.26 93.5898Z" fill="#CD7628"/>
<path d="M121.439 45.4688C121.69 45.5938 121.94 45.7188 122.197 45.8477C121.885 45.8477 121.572 45.8477 121.25 45.8477C121.313 45.7226 121.375 45.5976 121.439 45.4688Z" fill="#726F6D"/>
<path d="M139.248 97.3789C139.311 97.3789 139.373 97.3789 139.438 97.3789C139.438 97.6915 139.438 98.0041 139.438 98.3262C139.375 98.3262 139.312 98.3262 139.248 98.3262C139.248 98.0136 139.248 97.701 139.248 97.3789Z" fill="#D08025"/>
<path d="M90.748 147.963C91.5059 148.152 91.5059 148.152 91.5059 148.152L90.748 147.963Z" fill="#546470"/>
<path d="M131.67 45.4688C131.795 45.5938 131.92 45.7188 132.049 45.8477C131.861 45.7851 131.674 45.7226 131.48 45.6582C131.543 45.5957 131.606 45.5332 131.67 45.4688Z" fill="#C57B1D"/>
<path d="M130.912 45.4688C131.1 45.5313 131.287 45.5938 131.48 45.6582C131.293 45.6582 131.105 45.6582 130.912 45.6582C130.912 45.5957 130.912 45.5332 130.912 45.4688Z" fill="#C17421"/>
<path d="M50.2051 129.775C50.7734 129.965 50.7734 129.965 50.7734 129.965L50.2051 129.775Z" fill="#586876"/>
<path d="M45.0898 111.967C45.2149 112.092 45.3399 112.217 45.4688 112.346C45.3437 112.346 45.2187 112.346 45.0898 112.346C45.0898 112.221 45.0898 112.096 45.0898 111.967Z" fill="#5C6D7B"/>
<path d="M138.869 101.357C139.438 101.547 139.438 101.547 139.438 101.547L138.869 101.357Z" fill="#A66B3F"/>
<path d="M133.375 93.5898C133.943 93.7793 133.943 93.7793 133.943 93.7793L133.375 93.5898Z" fill="#EBA117"/>
<path d="M43.0059 93.5898C43.5742 93.7793 43.5742 93.7793 43.5742 93.7793L43.0059 93.5898Z" fill="#5B6D79"/>
<path d="M145.689 85.4434C146.258 85.6328 146.258 85.6328 146.258 85.6328L145.689 85.4434Z" fill="#F09C0D"/>
<path d="M143.227 85.4434C143.795 85.6328 143.795 85.6328 143.795 85.6328L143.227 85.4434Z" fill="#FDB504"/>
<path d="M135.648 56.2676C135.836 56.3614 135.836 56.3614 136.027 56.457C135.84 56.5508 135.84 56.5508 135.648 56.6465C135.648 56.5214 135.648 56.3964 135.648 56.2676Z" fill="#9F7F57"/>
<path d="M139.059 53.8047C139.627 53.9941 139.627 53.9941 139.627 53.9941L139.059 53.8047Z" fill="#CF942A"/>
<path d="M141.9 49.2578C142.469 49.4473 142.469 49.4473 142.469 49.4473L141.9 49.2578Z" fill="#CA8A0E"/>
<path d="M98.8945 147.963C99.2734 148.152 99.2734 148.152 99.2734 148.152L98.8945 147.963Z" fill="#556573"/>
<path d="M89.4219 147.963C89.8008 148.152 89.8008 148.152 89.8008 148.152L89.4219 147.963Z" fill="#546571"/>
<path d="M86.7695 147.963C87.1484 148.152 87.1484 148.152 87.1484 148.152L86.7695 147.963Z" fill="#536673"/>
<path d="M70.8555 144.363C71.2344 144.553 71.2344 144.553 71.2344 144.553L70.8555 144.363Z" fill="#5A6C79"/>
<path d="M61.5723 140.764C61.9512 140.953 61.9512 140.953 61.9512 140.953L61.5723 140.764Z" fill="#546673"/>
<path d="M117.271 137.543C117.65 137.732 117.65 137.732 117.65 137.732L117.271 137.543Z" fill="#5A6D7A"/>
<path d="M120.113 132.049C120.492 132.238 120.492 132.238 120.492 132.238L120.113 132.049Z" fill="#5D6B79"/>
<path d="M50.7734 129.965C51.1523 130.154 51.1523 130.154 51.1523 130.154L50.7734 129.965Z" fill="#576877"/>
<path d="M147.395 93.5898C147.773 93.7793 147.773 93.7793 147.773 93.7793L147.395 93.5898Z" fill="#CD6E20"/>
<path d="M134.322 93.5898C134.701 93.7793 134.701 93.7793 134.701 93.7793L134.322 93.5898Z" fill="#EDA614"/>
<path d="M45.0898 93.2109C45.4688 93.4004 45.4688 93.4004 45.4688 93.4004L45.0898 93.2109Z" fill="#596B77"/>
<path d="M125.039 89.9902C125.418 90.1797 125.418 90.1797 125.418 90.1797L125.039 89.9902Z" fill="#E0821A"/>
<path d="M119.734 87.9062C120.113 88.0957 120.113 88.0957 120.113 88.0957L119.734 87.9062Z" fill="#B15A20"/>
<path d="M132.617 85.4434C132.996 85.6328 132.996 85.6328 132.996 85.6328L132.617 85.4434Z" fill="#FCB901"/>
<path d="M125.229 85.4434C125.607 85.6328 125.607 85.6328 125.607 85.6328L125.229 85.4434Z" fill="#E99A0D"/>
<path d="M124.281 85.4434C124.66 85.6328 124.66 85.6328 124.66 85.6328L124.281 85.4434Z" fill="#DE8E16"/>
<path d="M122.955 85.4434C123.334 85.6328 123.334 85.6328 123.334 85.6328L122.955 85.4434Z" fill="#D2771C"/>
<path d="M140.006 78.2441C140.385 78.4336 140.385 78.4336 140.385 78.4336L140.006 78.2441Z" fill="#F9B408"/>
<path d="M144.553 68.0137C144.932 68.2031 144.932 68.2031 144.932 68.2031L144.553 68.0137Z" fill="#E09913"/>
<path d="M143.037 68.0137C143.416 68.2031 143.416 68.2031 143.416 68.2031L143.037 68.0137Z" fill="#E29E11"/>
<path d="M132.617 45.6582C132.996 45.8477 132.996 45.8477 132.996 45.8477L132.617 45.6582Z" fill="#CB8615"/>
</svg>
