<svg width="36" height="37" viewBox="0 0 36 37" fill="none" xmlns="http://www.w3.org/2000/svg">
<path d="M24.187 10.157L29.845 4.50299L32 6.65999L26.342 12.315L24.187 10.157Z" fill="#CCD6DD"/>
<path d="M14 36.5C21.732 36.5 28 30.232 28 22.5C28 14.768 21.732 8.5 14 8.5C6.26801 8.5 0 14.768 0 22.5C0 30.232 6.26801 36.5 14 36.5Z" fill="#31373D"/>
<path d="M19 11.842L24.658 6.185L30.315 11.843L24.657 17.5L19 11.842Z" fill="#31373D"/>
<path d="M32 8.5C34.2091 8.5 36 6.70914 36 4.5C36 2.29086 34.2091 0.5 32 0.5C29.7909 0.5 28 2.29086 28 4.5C28 6.70914 29.7909 8.5 32 8.5Z" fill="#F18F26"/>
<path d="M32 6.5C33.1046 6.5 34 5.60457 34 4.5C34 3.39543 33.1046 2.5 32 2.5C30.8954 2.5 30 3.39543 30 4.5C30 5.60457 30.8954 6.5 32 6.5Z" fill="#FDCB58"/>
</svg>
