<svg width="36" height="37" viewBox="0 0 36 37" fill="none" xmlns="http://www.w3.org/2000/svg">
<path d="M22 0.5L18 8.50022L13 3.49958V10.4993L3 8.50022L11 16.5004L0 22.4996H12L6 34.4999L18 26.4997L29 36.5L26 22.4996H36L28 16.4994L36 7.4997L24 10.4993L22 0.5Z" fill="#BB1A34"/>
<path d="M22.914 13.3793L24.774 12.9139L30 11.6074L26.619 15.4102L25.3 16.8951L26.89 18.0859L29.815 20.2803H23.897L24.37 22.4906L25.921 29.7255L20.076 24.412L19.02 23.4513L17.832 24.2436L12.592 27.7374L14.998 22.9261L16.32 20.2803H9.564L13.323 18.2284L15.468 17.0605L13.741 15.3315L10.697 12.2891L13.918 12.9328L16.104 13.3703V9.15594L17.554 10.6059L19.348 12.3987L20.481 10.1306L21.754 7.5834" fill="#FCAB40"/>
<path d="M21.512 14.7515L22.279 14.5592L24.437 14.0201L23.041 15.5906L22.496 16.2035L23.152 16.6948L24.36 17.6006H21.917L22.112 18.5135L22.753 21.5001L20.34 19.3067L19.903 18.9101L19.413 19.2369L17.25 20.6799L18.243 18.6928L18.789 17.6006H16L17.553 16.7536L18.438 16.2712L17.725 15.5577L16.468 14.3011L17.797 14.5672L18.7 14.7475V13.0086L19.299 13.6065L20.039 14.3469L20.507 13.4112L21.032 12.3588" fill="#F5F8FA"/>
</svg>
