<svg width="36" height="37" viewBox="0 0 36 37" fill="none" xmlns="http://www.w3.org/2000/svg">
<path d="M35.733 20.4282C35.374 17.1591 34.999 15.499 33.9991 13.4989C33.9991 13.4989 36.9989 4.49848 34.999 0.798308C34.3251 -0.447751 27.5955 2.48639 24.9996 4.49848C24.9996 4.49848 20.9999 3.50044 18 3.50044C15.0002 3.50044 11.0005 4.49848 11.0005 4.49848C8.40461 2.48639 1.67501 -0.447751 1.00105 0.798308C-0.998833 4.49848 2.00099 13.4989 2.00099 13.4989C1.00105 15.499 0.626071 17.1591 0.267092 20.4282C-0.127885 24.0124 0.658069 26.8695 1.00105 27.4996C1.39102 28.2156 3.36791 30.5247 6.00075 32.4998C10.0005 35.5 16.0002 36.5 18 36.5C19.9999 36.5 25.9996 35.5 29.9993 32.4998C32.6322 30.5247 34.609 28.2156 34.999 27.4996C35.342 26.8695 36.128 24.0124 35.733 20.4282Z" fill="#FFCC4D"/>
<path d="M18 19.9992C20.9998 19.9992 20.9998 20.4992 20.9998 21.4993C20.9998 22.4993 19.4999 24.4994 18 24.4994C16.5001 24.4994 15.0002 22.4993 15.0002 21.4993C15.0002 20.4992 14.9992 19.9992 18 19.9992Z" fill="#E75A70"/>
<path d="M2.00105 3.49831C2.44803 2.15624 7.64072 4.49835 8.64066 5.4984C8.64066 5.4984 4.00093 8.49854 3.00099 11.4987C3.00099 11.4987 1.00111 6.49845 2.00105 3.49831ZM33.9991 3.49831C33.5522 2.15624 28.3595 4.49835 27.3595 5.4984C27.3595 5.4984 31.9993 8.49854 32.9992 11.4987C32.9992 11.4987 34.9991 6.49845 33.9991 3.49831Z" fill="#F18F26"/>
<path d="M4.93475 6.10155C4.93475 4.68748 11.0004 7.49862 10.0005 8.49866C9.00051 9.49871 8.00057 10.1017 7.00063 11.1018C6.00069 12.1018 4.93475 7.1016 4.93475 6.10155ZM31.0652 6.10155C31.0652 4.68748 24.9996 7.49862 25.9995 8.49866C26.9994 9.49871 27.9994 10.1017 28.9993 11.1018C29.9993 12.1018 31.0652 7.1016 31.0652 6.10155Z" fill="#FFCC4D"/>
<path d="M0.70203 25.4995C0.554039 25.4995 0.408048 25.4345 0.309054 25.3095C0.138064 25.0924 0.175062 24.7784 0.392049 24.6074C0.554039 24.4804 4.41181 21.4873 11.0394 22.0023C11.3144 22.0223 11.5204 22.2633 11.4994 22.5383C11.4784 22.8133 11.2424 23.0393 10.9624 22.9983C4.72979 22.5243 1.04801 25.3645 1.01201 25.3935C0.919017 25.4645 0.810024 25.4995 0.70203 25.4995ZM9.5695 20.8362C9.52051 20.8362 9.46951 20.8292 9.42051 20.8142C4.6308 19.3172 0.684031 20.4672 0.644034 20.4782C0.37905 20.5592 0.101066 20.4082 0.0210709 20.1432C-0.0579244 19.8782 0.0920667 19.6002 0.356051 19.5212C0.529041 19.4692 4.6418 18.2741 9.71749 19.8592C9.98148 19.9422 10.1285 20.2222 10.0455 20.4862C9.97948 20.6992 9.78249 20.8362 9.5695 20.8362ZM35.298 25.4995C35.446 25.4995 35.592 25.4345 35.6909 25.3095C35.8619 25.0924 35.8249 24.7784 35.608 24.6074C35.446 24.4804 31.5882 21.4873 24.9606 22.0023C24.6856 22.0223 24.4796 22.2633 24.5006 22.5383C24.5216 22.8133 24.7576 23.0393 25.0376 22.9983C31.2702 22.5243 34.952 25.3645 34.988 25.3935C35.081 25.4645 35.19 25.4995 35.298 25.4995ZM26.4305 20.8362C26.4795 20.8362 26.5305 20.8292 26.5795 20.8142C31.3692 19.3172 35.316 20.4672 35.356 20.4782C35.6209 20.5592 35.8989 20.4082 35.9789 20.1432C36.0579 19.8782 35.9079 19.6002 35.6439 19.5212C35.471 19.4692 31.3582 18.2741 26.2825 19.8592C26.0185 19.9422 25.8715 20.2222 25.9545 20.4862C26.0195 20.6992 26.2175 20.8362 26.4305 20.8362Z" fill="#FEE7B8"/>
<path d="M28.0224 24.6904C27.0454 24.8824 22.9997 26.4995 18 26.4995C13.0003 26.4995 8.95452 24.8824 7.97758 24.6904C7.00063 24.4994 6.88564 25.7635 7.44261 27.6316C8.00057 29.4997 11.0004 33.4999 18 33.4999C24.9996 33.4999 27.9994 29.4997 28.5574 27.6316C29.1143 25.7635 28.9993 24.4994 28.0224 24.6904Z" fill="#292F33"/>
<path d="M8.00061 25.4995C8.00061 25.4995 13.0003 27.4996 18 27.4996C22.9997 27.4996 27.9994 25.4995 27.9994 25.4995C27.9994 25.4995 27.4995 28.4996 26.4995 28.4996C25.4996 28.4996 24.9996 27.4996 24.9996 27.4996C24.9996 27.4996 20.9998 29.4997 18 29.4997C15.0002 29.4997 11.0004 27.4996 11.0004 27.4996C11.0004 27.4996 10.5005 28.4996 9.50052 28.4996C8.50058 28.4996 8.00061 25.4995 8.00061 25.4995Z" fill="#F5F8FA"/>
<path d="M16.2261 5.61543C15.3672 3.18432 12.7013 1.90826 10.2705 2.7653C8.79357 3.28532 7.74963 4.47638 7.34265 5.86944C6.15172 5.0404 4.59181 4.76939 3.1179 5.28942C0.687047 6.14646 -0.589877 8.81458 0.268072 11.2457C0.390065 11.5907 0.552055 11.9087 0.740044 12.2037C2.69093 15.7859 8.32759 18.304 11.7414 18.335C14.3782 16.1679 17.1861 10.6707 16.4581 6.65748C16.4201 6.30846 16.3451 5.95945 16.2261 5.61543ZM19.7739 5.61543C20.6329 3.18432 23.2987 1.90826 25.7296 2.7653C27.2065 3.28532 28.2504 4.47638 28.6584 5.86944C29.8493 5.0404 31.4092 4.76939 32.8831 5.28942C35.313 6.14646 36.5899 8.81458 35.733 11.2457C35.61 11.5907 35.449 11.9087 35.26 12.2037C33.3091 15.7859 27.6724 18.304 24.2586 18.335C21.6218 16.1679 18.814 10.6707 19.5419 6.65748C19.5799 6.30846 19.6549 5.95945 19.7739 5.61543Z" fill="#DD2E44"/>
</svg>
