<svg width="36" height="37" viewBox="0 0 36 37" fill="none" xmlns="http://www.w3.org/2000/svg">
<path d="M36 11.0882C36 9.91929 35.104 8.97059 34 8.97059C32.896 8.97059 32 9.91929 32 11.0882C32 11.0882 31.989 14.5665 29 15.2113V12.1471C29 5.71471 24.075 0.5 18 0.5C11.925 0.5 7 5.71471 7 12.1471V15.5745C1.778 17.2358 0 24.0387 0 28.0294C0 29.1984 0.896 30.1471 2 30.1471C3.104 30.1471 4 29.1984 4 28.0294C4 28.0294 4.002 24.2812 7.336 23.8386C7.838 28.9644 8.954 34.3824 11 34.3824H12C16 34.3824 15 36.5 19 36.5C23 36.5 22 34.3824 25 34.3824C28 34.3824 27.395 36.5 31 36.5C32.657 36.5 34 35.078 34 33.3235C34 32.6088 31.726 28.0358 30.245 23.5104C35.981 22.0449 36 14.8788 36 11.0882Z" fill="#E1E8ED"/>
<path d="M13 14.2647C14.1046 14.2647 15 13.3166 15 12.1471C15 10.9775 14.1046 10.0294 13 10.0294C11.8954 10.0294 11 10.9775 11 12.1471C11 13.3166 11.8954 14.2647 13 14.2647Z" fill="#292F33"/>
<path d="M23 16.3824C25.2091 16.3824 27 14.4862 27 12.1471C27 9.80798 25.2091 7.91177 23 7.91177C20.7909 7.91177 19 9.80798 19 12.1471C19 14.4862 20.7909 16.3824 23 16.3824Z" fill="#292F33"/>
<path d="M23 15.3235C24.1046 15.3235 25 14.3754 25 13.2059C25 12.0363 24.1046 11.0882 23 11.0882C21.8954 11.0882 21 12.0363 21 13.2059C21 14.3754 21.8954 15.3235 23 15.3235Z" fill="#9AAAB4"/>
<path d="M22.192 20.0787C24.842 22.1826 25.783 25.5962 24.292 27.7012C22.801 29.8061 19.443 29.8061 16.792 27.7012C14.142 25.5973 13.201 22.1836 14.692 20.0787C16.184 17.9727 19.541 17.9738 22.192 20.0787Z" fill="#292F33"/>
</svg>
