<svg width="36" height="37" viewBox="0 0 36 37" fill="none" xmlns="http://www.w3.org/2000/svg">
<path d="M33.5 19.0143C34.8807 19.0143 36 17.4025 36 15.4143C36 13.426 34.8807 11.8143 33.5 11.8143C32.1193 11.8143 31 13.426 31 15.4143C31 17.4025 32.1193 19.0143 33.5 19.0143Z" fill="#F4900C"/>
<path d="M2.5 19.0143C3.88071 19.0143 5 17.4025 5 15.4143C5 13.426 3.88071 11.8143 2.5 11.8143C1.11929 11.8143 0 13.426 0 15.4143C0 17.4025 1.11929 19.0143 2.5 19.0143Z" fill="#F4900C"/>
<path d="M34 20.0429C34 20.6117 33.553 21.0714 33 21.0714H30C29.447 21.0714 29 20.6117 29 20.0429V10.7857C29 10.2179 29.447 9.75714 30 9.75714H33C33.553 9.75714 34 10.2179 34 10.7857V20.0429ZM7 20.0429C7 20.6117 6.552 21.0714 6 21.0714H3C2.448 21.0714 2 20.6117 2 20.0429V10.7857C2 10.2179 2.448 9.75714 3 9.75714H6C6.552 9.75714 7 10.2179 7 10.7857V20.0429Z" fill="#FFAC33"/>
<path d="M28 5.64286C28 8.48274 23.522 9.75714 18 9.75714C12.477 9.75714 8 8.48274 8 5.64286C8 2.80297 12.477 0.5 18 0.5C23.522 0.5 28 2.80297 28 5.64286Z" fill="#FFCC4D"/>
<path d="M25 4.69965C25 6.35668 21.865 7.7 18 7.7C14.134 7.7 11 6.35668 11 4.69965C11 3.04263 14.134 1.69931 18 1.69931C21.865 1.69931 25 3.04263 25 4.69965Z" fill="#F4900C"/>
<path d="M30 6.15715C30 7.57761 28.881 7.70001 27.5 7.70001H8.5C7.119 7.70001 6 7.57761 6 6.15715C6 4.7367 7.119 3.58572 8.5 3.58572H27.5C28.881 3.58572 30 4.7367 30 6.15715Z" fill="#226699"/>
<path d="M30 6.67142H6C4.896 6.67142 4 7.59302 4 8.72856V35.4714H32V8.72856C32 7.59302 31.104 6.67142 30 6.67142Z" fill="#55ACEE"/>
<path d="M35 34.4429V33.4143C35 32.2787 34.104 31.3571 33 31.3571H22.071L18.707 34.8173C18.316 35.2194 17.684 35.2194 17.293 34.8173L13.929 31.3571H2.99999C1.89599 31.3571 0.999989 32.2787 0.999989 33.4143V34.4429C0.999989 35.5784 0.895989 36.5 1.99999 36.5H34C35.104 36.5 35 35.5784 35 34.4429Z" fill="#3B88C3"/>
<path d="M24.5 20.0428C26.9853 20.0428 29 17.9706 29 15.4143C29 12.858 26.9853 10.7857 24.5 10.7857C22.0147 10.7857 20 12.858 20 15.4143C20 17.9706 22.0147 20.0428 24.5 20.0428Z" fill="white"/>
<path d="M24.5 18.213C26.0028 18.213 27.221 16.96 27.221 15.4143C27.221 13.8686 26.0028 12.6155 24.5 12.6155C22.9972 12.6155 21.779 13.8686 21.779 15.4143C21.779 16.96 22.9972 18.213 24.5 18.213Z" fill="#DD2E44"/>
<path d="M11.5 20.0428C13.9853 20.0428 16 17.9706 16 15.4143C16 12.858 13.9853 10.7857 11.5 10.7857C9.01472 10.7857 7 12.858 7 15.4143C7 17.9706 9.01472 20.0428 11.5 20.0428Z" fill="white"/>
<path d="M29 26.7286C29 28.149 27.881 29.3 26.5 29.3H9.5C8.119 29.3 7 28.149 7 26.7286C7 25.3081 8.119 24.1571 9.5 24.1571H26.5C27.881 24.1571 29 25.3081 29 26.7286Z" fill="#F5F8FA"/>
<path d="M17 24.1571H19V29.3H17V24.1571ZM12 24.1571H14V29.3H12V24.1571ZM22 24.1571H24V29.3H22V24.1571ZM7 26.7286C7 27.9731 7.859 29.0099 9 29.2486V24.2086C7.859 24.4472 7 25.484 7 26.7286ZM27 24.2086V29.2475C28.141 29.0089 29 27.9721 29 26.7275C29 25.483 28.141 24.4472 27 24.2086Z" fill="#CCD6DD"/>
<path d="M11.5 18.213C13.0028 18.213 14.221 16.96 14.221 15.4143C14.221 13.8686 13.0028 12.6155 11.5 12.6155C9.99722 12.6155 8.77899 13.8686 8.77899 15.4143C8.77899 16.96 9.99722 18.213 11.5 18.213Z" fill="#DD2E44"/>
</svg>
