<svg width="265" height="133" viewBox="0 0 265 133" fill="none" xmlns="http://www.w3.org/2000/svg">
<path d="M144.152 0C147.311 0 150.284 1.49287 152.171 4.0265L169.001 26.6213C170.888 29.155 173.861 30.6478 177.021 30.6478H255C260.523 30.6478 265 35.125 265 40.6478V83.2696V123C265 128.523 260.523 133 255 133H179.007H89.5033H9.99999C4.47714 133 0 128.523 0 123V83.2696V10C0 4.47716 4.47715 0 10 0H144.152Z" fill="white"/>
<path d="M10 1H144.151C146.995 1 149.671 2.34375 151.369 4.62402L168.199 27.2188C170.275 30.0056 173.546 31.6474 177.021 31.6475H255C259.97 31.6475 264 35.6771 264 40.6475V123C264 127.971 259.971 132 255 132H10C5.02944 132 1 127.971 1 123V10C1 5.02944 5.02944 1 10 1Z" stroke="#087236" stroke-opacity="0.5" stroke-width="2"/>
</svg>
