<svg width="104" height="104" viewBox="0 0 104 104" fill="none" xmlns="http://www.w3.org/2000/svg">
<path d="M2 12C2 6.47716 6.47715 2 12 2H92C97.5228 2 102 6.47715 102 12V92C102 97.5228 97.5229 102 92 102H12C6.47716 102 2 97.5229 2 92V12Z" fill="#087236"/>
<path d="M14.25 1.69469L14.0738 0.710344L14.25 1.69469ZM33.75 2.04916L33.8839 1.05817L33.75 2.04916ZM39.75 2.34823L40.0584 3.29949L39.75 2.34823ZM54.75 1.57037L54.5855 2.55676L54.75 1.57037ZM71.25 1.83122L71.1294 2.82392L71.25 1.83122ZM74.25 2.18995L73.8211 1.28661L74.25 2.18995ZM77.25 2.27538L77.0141 3.24715L77.25 2.27538ZM86.25 2.45084L86.1053 3.44031L86.25 2.45084ZM92.2723 1.69901L92.4182 2.68831L92.2723 1.69901ZM93.7459 2.00101L93.2358 2.86112L93.7459 2.00101ZM95.1498 2.65217L94.8323 3.60043L95.1498 2.65217ZM96.657 2.98968L96.5309 3.98171L96.657 2.98968ZM97.8427 3.85104L96.9489 4.29966L97.8427 3.85104ZM101.724 11.5778L100.844 12.0516L101.724 11.5778ZM102.008 13.0414L101.017 12.9086L102.008 13.0414ZM102.068 16.0414L103.041 15.8116L102.068 16.0414ZM102.088 17.5414L101.109 17.3356L102.088 17.5414ZM101.636 26.5414L100.669 26.7991L101.636 26.5414ZM101.935 29.5414L100.969 29.8028L101.935 29.5414ZM101.539 34.0414L100.551 34.1929L101.539 34.0414ZM102.54 41.5414L101.542 41.612L102.54 41.5414ZM102.127 46.0414L103.012 45.5758L102.127 46.0414ZM102.155 49.0414L103.133 49.2516L102.155 49.0414ZM102.255 65.5414L101.275 65.3433L102.255 65.5414ZM101.96 70.0414L102.958 69.9909L101.96 70.0414ZM102.214 71.5414L101.253 71.8181L102.214 71.5414ZM102.039 74.5414L101.2 75.0848L102.039 74.5414ZM102.392 76.0414L103.377 76.216L102.392 76.0414ZM102.197 79.0414L103.197 79.0652L102.197 79.0414ZM101.94 80.5414L102.893 80.8451L101.94 80.5414ZM101.097 97.0159L100.245 96.4926L101.097 97.0159ZM100.194 98.2796L100.964 98.9173L100.194 98.2796ZM96.4668 100.882L97.0283 101.71L96.4668 100.882ZM92.1557 101.804L92.0336 100.811L92.1557 101.804ZM89.1672 101.928L88.6255 101.088L89.1672 101.928ZM86.1672 102.347L86.0137 101.359L86.1672 102.347ZM81.6672 102.096L82.0978 101.194L81.6672 102.096ZM80.1672 102.046L79.7872 101.121L80.1672 102.046ZM74.1672 101.985L74.5785 102.897L74.1672 101.985ZM69.6672 101.942L69.8555 102.924L69.6672 101.942ZM65.1672 102.014L65.0323 101.024L65.1672 102.014ZM62.1672 102.45L62.0054 101.464L62.1672 102.45ZM60.6672 102.085L60.1212 102.923L60.6672 102.085ZM54.6672 101.567L54.4561 100.589L54.6672 101.567ZM41.1672 102.264L41.3211 103.252L41.1672 102.264ZM39.6672 102.161L39.9483 101.201L39.6672 102.161ZM33.6672 101.77L33.5797 102.766L33.6672 101.77ZM30.6672 101.864L31.1801 101.006L30.6672 101.864ZM26.1672 102.114L26.3284 103.101L26.1672 102.114ZM21.6672 102.437L21.7264 103.436L21.6672 102.437ZM15.6672 102.262L15.5175 101.273L15.6672 102.262ZM9.81874 101.164L9.64669 102.149L9.81874 101.164ZM8.22569 101.253L8.45566 102.226L8.22569 101.253ZM6.85735 100.765L6.02919 101.326L6.85735 100.765ZM2.68731 96.3517L1.81717 96.8445L2.68731 96.3517ZM2.0303 93.3636L1.12 93.7775L2.0303 93.3636ZM1.6113 84.3758L0.617354 84.4856L1.6113 84.3758ZM2.32501 78.3758L1.35506 78.6191L2.32501 78.3758ZM1.9424 69.3758L1.06199 68.9016L1.9424 69.3758ZM1.71022 18.3758L0.733596 18.1608L1.71022 18.3758ZM1.61509 12.3673L0.617754 12.4402L1.61509 12.3673ZM2.68427 9.49255L1.70073 9.31188L2.68427 9.49255ZM3.02972 8.06825L2.07238 7.77929L3.02972 8.06825ZM12.75 1.91449L12.8633 2.90805C13.3846 2.84862 13.9056 2.77227 14.4262 2.67903L14.25 1.69469L14.0738 0.710344C13.5944 0.796165 13.1154 0.866345 12.6367 0.920926L12.75 1.91449ZM14.25 1.69469L14.4262 2.67903C14.7326 2.62419 15.0445 2.65331 15.3824 2.78687L15.75 1.8569L16.1176 0.926934C15.4555 0.665153 14.7674 0.586138 14.0738 0.710344L14.25 1.69469ZM15.75 1.8569L15.3824 2.78687C16.088 3.06583 16.822 3.10052 17.546 2.8762L17.25 1.92101L16.954 0.965811C16.678 1.05135 16.412 1.0433 16.1176 0.926934L15.75 1.8569ZM17.25 1.92101L17.546 2.8762C17.9038 2.76532 18.2481 2.74157 18.5907 2.79684L18.75 1.8096L18.9093 0.82236C18.2519 0.716321 17.5962 0.76684 16.954 0.965811L17.25 1.92101ZM18.75 1.8096L18.5907 2.79684C19.1963 2.89452 19.804 2.89442 20.4096 2.79654L20.25 1.80935L20.0904 0.822165C19.696 0.885918 19.3037 0.885981 18.9093 0.82236L18.75 1.8096ZM20.25 1.80935L20.4096 2.79654C20.9013 2.71706 21.393 2.64392 21.8846 2.57713L21.75 1.58623L21.6154 0.595337C21.107 0.664399 20.5987 0.740009 20.0904 0.822165L20.25 1.80935ZM21.75 1.58623L21.8846 2.57713C22.0992 2.54798 22.3581 2.59105 22.6961 2.8159L23.25 1.98332L23.8039 1.15075C23.1419 0.710296 22.4008 0.488639 21.6154 0.595337L21.75 1.58623ZM23.25 1.98332L22.6961 2.8159C23.4123 3.29242 24.2309 3.45948 25.0668 3.1803L24.75 2.23181L24.4332 1.28331C24.2691 1.33812 24.0877 1.33953 23.8039 1.15075L23.25 1.98332ZM24.75 2.23181L25.0668 3.1803C25.4887 3.03938 25.9032 2.95815 26.3121 2.9327L26.25 1.93463L26.1879 0.936563C25.5968 0.973356 25.0113 1.09024 24.4332 1.28331L24.75 2.23181ZM26.25 1.93463L26.3121 2.9327C26.801 2.90227 27.2897 2.88009 27.7785 2.86614L27.75 1.86655L27.7215 0.866955C27.2103 0.88154 26.699 0.904744 26.1879 0.936563L26.25 1.93463ZM27.75 1.86655L27.7785 2.86614C28.2113 2.85379 28.6451 2.88471 29.0807 2.95954L29.25 1.97397L29.4193 0.988401C28.8549 0.891465 28.2887 0.850773 27.7215 0.866955L27.75 1.86655ZM29.25 1.97397L29.0807 2.95954C29.7197 3.06929 30.3599 3.04361 30.9924 2.88562L30.75 1.91544L30.5076 0.945249C30.1401 1.03706 29.7803 1.0504 29.4193 0.988401L29.25 1.97397ZM30.75 1.91544L30.9924 2.88562C31.3683 2.79171 31.7368 2.77344 32.1051 2.82738L32.25 1.83794L32.3949 0.848498C31.7632 0.755969 31.1317 0.789365 30.5076 0.945249L30.75 1.91544ZM32.25 1.83794L32.1051 2.82738C32.6087 2.90116 33.1124 2.97208 33.6161 3.04015L33.75 2.04916L33.8839 1.05817C33.3876 0.991089 32.8913 0.9212 32.3949 0.848498L32.25 1.83794ZM33.75 2.04916L33.6161 3.04015C34.2562 3.12666 34.8945 3.07813 35.5225 2.90028L35.25 1.93812L34.9775 0.975958C34.6055 1.08131 34.2438 1.1068 33.8839 1.05817L33.75 2.04916ZM35.25 1.93812L35.5225 2.90028C35.9527 2.77845 36.3781 2.70807 36.7999 2.68699L36.75 1.68823L36.7001 0.68948C36.1219 0.718374 35.5473 0.814586 34.9775 0.975958L35.25 1.93812ZM36.75 1.68823L36.7999 2.68699C37.0606 2.67396 37.3605 2.74362 37.7187 2.96826L38.25 2.12106L38.7813 1.27385C38.1395 0.871415 37.4394 0.652533 36.7001 0.68948L36.75 1.68823ZM38.25 2.12106L37.7187 2.96826C38.4348 3.41729 39.2402 3.56474 40.0584 3.29949L39.75 2.34823L39.4416 1.39697C39.2598 1.45591 39.0652 1.4519 38.7813 1.27385L38.25 2.12106ZM39.75 2.34823L40.0584 3.29949C40.4501 3.17251 40.8304 3.12111 41.2047 3.13809L41.25 2.13911L41.2953 1.14014C40.6696 1.11176 40.0499 1.19977 39.4416 1.39697L39.75 2.34823ZM41.25 2.13911L41.2047 3.13809C41.708 3.16091 42.2113 3.18125 42.7146 3.1991L42.75 2.19973L42.7854 1.20036C42.2887 1.18274 41.792 1.16267 41.2953 1.14014L41.25 2.13911ZM42.75 2.19973L42.7146 3.1991C43.3022 3.21994 43.8878 3.1641 44.4693 3.03337L44.25 2.05772L44.0307 1.08207C43.6122 1.17615 43.1978 1.21498 42.7854 1.20036L42.75 2.19973ZM44.25 2.05772L44.4693 3.03337C44.8676 2.94383 45.2608 2.91937 45.6527 2.95767L45.75 1.96241L45.8473 0.967148C45.2392 0.907732 44.6324 0.946808 44.0307 1.08207L44.25 2.05772ZM45.75 1.96241L45.6527 2.95767C46.3124 3.02213 46.9641 2.93023 47.5971 2.69599L47.25 1.75815L46.9029 0.820305C46.5359 0.956131 46.1876 1.0004 45.8473 0.967148L45.75 1.96241ZM47.25 1.75815L47.5971 2.69599C47.7672 2.63302 47.9414 2.62979 48.2116 2.80244L48.75 1.95972L49.2884 1.117C48.5586 0.65082 47.7328 0.513207 46.9029 0.820305L47.25 1.75815ZM48.75 1.95972L48.2116 2.80244C48.8597 3.21646 49.5723 3.43623 50.3261 3.37869L50.25 2.38159L50.1739 1.38449C49.9276 1.40329 49.6403 1.34181 49.2884 1.117L48.75 1.95972ZM50.25 2.38159L50.3261 3.37869C50.9319 3.33245 51.5291 3.19103 52.115 2.96134L51.75 2.03032L51.385 1.09931C50.9709 1.26164 50.5681 1.35441 50.1739 1.38449L50.25 2.38159ZM51.75 2.03032L52.115 2.96134C52.5615 2.78628 53.0032 2.65733 53.4404 2.57251L53.25 1.59081L53.0596 0.609112C52.4968 0.718276 51.9385 0.882334 51.385 1.09931L51.75 2.03032ZM53.25 1.59081L53.4404 2.57251C53.8239 2.49812 54.2037 2.4931 54.5855 2.55676L54.75 1.57037L54.9145 0.58399C54.2963 0.480912 53.6761 0.489517 53.0596 0.609112L53.25 1.59081ZM54.75 1.57037L54.5855 2.55676C55.1395 2.64912 55.6949 2.69521 56.2511 2.69458L56.25 1.69458L56.2489 0.694582C55.8051 0.695082 55.3605 0.65836 54.9145 0.58399L54.75 1.57037ZM56.25 1.69458L56.2511 2.69458C56.6348 2.69415 57.0255 2.75902 57.4272 2.89602L57.75 1.94957L58.0728 1.00312C57.4745 0.799011 56.8652 0.693888 56.2489 0.694582L56.25 1.69458ZM57.75 1.94957L57.4272 2.89602C58.1381 3.13854 58.8667 3.13671 59.5767 2.89129L59.25 1.94616L58.9233 1.00103C58.6333 1.10127 58.3619 1.10172 58.0728 1.00312L57.75 1.94957ZM59.25 1.94616L59.5767 2.89129C59.9184 2.77317 60.2414 2.75086 60.5629 2.81208L60.75 1.82974L60.9371 0.84739C60.2586 0.718187 59.5816 0.773484 58.9233 1.00103L59.25 1.94616ZM60.75 1.82974L60.5629 2.81208C61.0823 2.91099 61.602 2.99403 62.1219 3.06117L62.25 2.0694L62.3781 1.07763C61.898 1.01565 61.4177 0.938915 60.9371 0.84739L60.75 1.82974ZM62.25 2.0694L62.1219 3.06117C62.7109 3.13722 63.3009 3.13372 63.8895 3.05082L63.75 2.06059L63.6105 1.07037C63.1991 1.12832 62.7891 1.1307 62.3781 1.07763L62.25 2.0694ZM63.75 2.06059L63.8895 3.05082C64.2667 2.99768 64.6437 3.01378 65.0267 3.10152L65.25 2.12677L65.4733 1.15202C64.8563 1.01066 64.2333 0.982637 63.6105 1.07037L63.75 2.06059ZM65.25 2.12677L65.0267 3.10152C65.7363 3.26408 66.4443 3.1977 67.1236 2.92409L66.75 1.99651L66.3764 1.06893C66.0557 1.19811 65.7637 1.21856 65.4733 1.15202L65.25 2.12677ZM66.75 1.99651L67.1236 2.92409C67.3499 2.83295 67.5536 2.8354 67.8083 2.96081L68.25 2.06363L68.6917 1.16645C67.9464 0.799583 67.1501 0.757285 66.3764 1.06893L66.75 1.99651ZM68.25 2.06363L67.8083 2.96081C68.5753 3.33835 69.3916 3.35348 70.1693 2.99433L69.75 2.08647L69.3307 1.17861C69.1084 1.28129 68.9247 1.28119 68.6917 1.16645L68.25 2.06363ZM69.75 2.08647L70.1693 2.99433C70.517 2.83375 70.8308 2.78764 71.1294 2.82392L71.25 1.83122L71.3706 0.83852C70.6692 0.753307 69.983 0.877373 69.3307 1.17861L69.75 2.08647ZM71.25 1.83122L71.1294 2.82392C71.5323 2.87287 71.944 2.98205 72.3661 3.15756L72.75 2.2342L73.1339 1.31085C72.556 1.07054 71.9677 0.911056 71.3706 0.83852L71.25 1.83122ZM72.75 2.2342L72.3661 3.15756C73.1341 3.47694 73.9295 3.44913 74.6789 3.09329L74.25 2.18995L73.8211 1.28661C73.5705 1.40558 73.3659 1.40728 73.1339 1.31085L72.75 2.2342ZM74.25 2.18995L74.6789 3.09329C75.0102 2.936 75.3016 2.90085 75.5795 2.94893L75.75 1.96357L75.9204 0.978201C75.1984 0.853297 74.4898 0.969074 73.8211 1.28661L74.25 2.18995ZM75.75 1.96357L75.5795 2.94893C76.0573 3.03157 76.5354 3.13096 77.0141 3.24715L77.25 2.27538L77.4859 1.30361C76.9645 1.17704 76.4427 1.06855 75.9204 0.978201L75.75 1.96357ZM77.25 2.27538L77.0141 3.24715C77.8135 3.44124 78.5865 3.27025 79.2786 2.83933L78.75 1.99045L78.2214 1.14156C77.9135 1.33332 77.6864 1.35229 77.4859 1.30361L77.25 2.27538ZM78.75 1.99045L79.2786 2.83933C79.5234 2.68691 79.675 2.69418 79.8457 2.76961L80.25 1.855L80.6543 0.940385C79.825 0.573737 78.9766 0.671305 78.2214 1.14156L78.75 1.99045ZM80.25 1.855L79.8457 2.76961C80.4093 3.01879 80.981 3.20146 81.5598 3.31359L81.75 2.33184L81.9402 1.3501C81.519 1.26851 81.0907 1.13329 80.6543 0.940385L80.25 1.855ZM81.75 2.33184L81.5598 3.31359C82.3656 3.4697 83.1304 3.2584 83.8069 2.80489L83.25 1.97429L82.6931 1.1437C82.3696 1.36064 82.1344 1.38771 81.9402 1.3501L81.75 2.33184ZM83.25 1.97429L83.8069 2.80489C83.9359 2.71839 84.0119 2.70636 84.0453 2.70485C84.0757 2.70347 84.1379 2.70733 84.2484 2.77141L84.75 1.90631L85.2516 1.04121C84.8621 0.815387 84.4243 0.685623 83.9547 0.706903C83.4881 0.728053 83.0641 0.894972 82.6931 1.1437L83.25 1.97429ZM84.75 1.90631L84.2484 2.77141C84.8427 3.116 85.4628 3.34636 86.1053 3.44031L86.25 2.45084L86.3947 1.46136C86.0372 1.40909 85.6573 1.27643 85.2516 1.04121L84.75 1.90631ZM86.25 2.45084L86.1053 3.44031C86.7599 3.53603 87.4117 3.47932 88.0499 3.27873L87.75 2.32475L87.4501 1.37077C87.0882 1.48452 86.7401 1.51187 86.3947 1.46136L86.25 2.45084ZM87.75 2.32475L88.0499 3.27873C88.3638 3.18006 88.663 3.17685 88.9727 3.26623L89.25 2.30543L89.5273 1.34464C88.837 1.14544 88.1362 1.15511 87.4501 1.37077L87.75 2.32475ZM89.25 2.30543L88.9727 3.26623C89.7222 3.48249 90.4722 3.40474 91.1773 3.07148L90.75 2.16738L90.3227 1.26328C90.0278 1.40266 89.7778 1.41695 89.5273 1.34464L89.25 2.30543ZM90.75 2.16738L91.1773 3.07148C91.5938 2.87463 92.0067 2.74898 92.4182 2.68831L92.2723 1.69901L92.1264 0.709705C91.5081 0.800881 90.9062 0.987482 90.3227 1.26328L90.75 2.16738ZM92.2723 1.69901L92.4182 2.68831C92.6954 2.64743 92.9562 2.6953 93.2358 2.86112L93.7459 2.00101L94.256 1.1409C93.6006 0.752203 92.879 0.598732 92.1264 0.709705L92.2723 1.69901ZM93.7459 2.00101L93.2358 2.86112C93.7582 3.17094 94.2904 3.41899 94.8323 3.60043L95.1498 2.65217L95.4673 1.70391C95.0723 1.57166 94.6686 1.38561 94.256 1.1409L93.7459 2.00101ZM95.1498 2.65217L94.8323 3.60043C95.3684 3.77995 95.9355 3.90604 96.5309 3.98171L96.657 2.98968L96.7831 1.99766C96.3057 1.937 95.8679 1.83807 95.4673 1.70391L95.1498 2.65217ZM96.657 2.98968L96.5309 3.98171C96.7187 4.00557 96.8359 4.07448 96.9489 4.29966L97.8427 3.85104L98.7364 3.40243C98.3414 2.61547 97.6681 2.11014 96.7831 1.99766L96.657 2.98968ZM97.8427 3.85104L96.9489 4.29966C97.2634 4.92616 97.6857 5.45568 98.2289 5.85384L98.8201 5.04732L99.4113 4.2408C99.1593 4.05606 98.93 3.78807 98.7364 3.40243L97.8427 3.85104ZM98.8201 5.04732L98.2289 5.85384C98.5222 6.06889 98.7611 6.32812 98.9507 6.63665L99.8027 6.11317L100.655 5.58968C100.329 5.05998 99.9131 4.60864 99.4113 4.2408L98.8201 5.04732ZM99.8027 6.11317L98.9507 6.63665C99.2845 7.18006 99.7324 7.64697 100.273 8.04285L100.864 7.23603L101.455 6.42921C101.095 6.16618 100.836 5.88452 100.655 5.58968L99.8027 6.11317ZM100.864 7.23603L100.273 8.04285C100.367 8.11188 100.388 8.15837 100.394 8.17512C100.402 8.19463 100.42 8.25713 100.393 8.3985L101.376 8.58573L102.358 8.77297C102.44 8.34399 102.427 7.89637 102.264 7.46598C102.1 7.03283 101.81 6.68964 101.455 6.42921L100.864 7.23603ZM101.376 8.58573L100.393 8.3985C100.271 9.04085 100.228 9.65791 100.281 10.2423L101.277 10.1528L102.273 10.0632C102.24 9.69892 102.263 9.27131 102.358 8.77297L101.376 8.58573ZM101.277 10.1528L100.281 10.2423C100.337 10.8681 100.532 11.4728 100.844 12.0516L101.724 11.5778L102.605 11.1041C102.405 10.7314 102.302 10.3861 102.273 10.0632L101.277 10.1528ZM101.724 11.5778L100.844 12.0516C101.007 12.3557 101.054 12.6325 101.017 12.9086L102.008 13.0414L102.999 13.1743C103.096 12.4503 102.953 11.7514 102.605 11.1041L101.724 11.5778ZM102.008 13.0414L101.017 12.9086C100.944 13.4487 100.905 13.9894 100.899 14.5306L101.899 14.5414L102.899 14.5522C102.904 14.0934 102.937 13.6342 102.999 13.1743L102.008 13.0414ZM101.899 14.5414L100.899 14.5306C100.893 15.1138 100.959 15.6946 101.095 16.2713L102.068 16.0414L103.041 15.8116C102.941 15.3882 102.895 14.969 102.899 14.5522L101.899 14.5414ZM102.068 16.0414L101.095 16.2713C101.179 16.629 101.184 16.9803 101.109 17.3356L102.088 17.5414L103.066 17.7472C103.202 17.1025 103.193 16.4538 103.041 15.8116L102.068 16.0414ZM102.088 17.5414L101.109 17.3356C100.995 17.8795 100.918 18.4248 100.88 18.9713L101.877 19.0414L102.875 19.1115C102.907 18.658 102.97 18.2033 103.066 17.7472L102.088 17.5414ZM101.877 19.0414L100.88 18.9713C100.836 19.5854 100.898 20.1964 101.059 20.7999L102.025 20.5414L102.991 20.2829C102.885 19.8864 102.848 19.4974 102.875 19.1115L101.877 19.0414ZM102.025 20.5414L101.059 20.7999C101.163 21.1893 101.196 21.5706 101.161 21.9493L102.156 22.0414L103.152 22.1335C103.21 21.5122 103.155 20.8935 102.991 20.2829L102.025 20.5414ZM102.156 22.0414L101.161 21.9493C101.104 22.563 101.152 23.1748 101.3 23.7802L102.272 23.5414L103.243 23.3026C103.146 22.908 103.117 22.5198 103.152 22.1335L102.156 22.0414ZM102.272 23.5414L101.3 23.7802C101.344 23.9561 101.33 24.1686 101.119 24.4789L101.946 25.0414L102.773 25.6039C103.242 24.9142 103.445 24.1267 103.243 23.3026L102.272 23.5414ZM101.946 25.0414L101.119 24.4789C100.646 25.1743 100.448 25.97 100.669 26.7991L101.636 26.5414L102.602 26.2837C102.556 26.1128 102.565 25.9085 102.773 25.6039L101.946 25.0414ZM101.636 26.5414L100.669 26.7991C100.775 27.1961 100.813 27.5857 100.786 27.9722L101.784 28.0414L102.781 28.1106C102.824 27.4971 102.763 26.8867 102.602 26.2837L101.636 26.5414ZM101.784 28.0414L100.786 27.9722C100.743 28.5871 100.806 29.1988 100.969 29.8028L101.935 29.5414L102.9 29.2801C102.793 28.884 102.754 28.4957 102.781 28.1106L101.784 28.0414ZM101.935 29.5414L100.969 29.8028C101.045 30.0812 101.031 30.3564 100.905 30.6625L101.831 31.0414L102.756 31.4203C103.04 30.7264 103.095 30.0016 102.9 29.2801L101.935 29.5414ZM101.831 31.0414L100.905 30.6625C100.663 31.2544 100.517 31.8598 100.476 32.4754L101.474 32.5414L102.472 32.6075C102.497 32.2231 102.589 31.8284 102.756 31.4203L101.831 31.0414ZM101.474 32.5414L100.476 32.4754C100.438 33.0487 100.463 33.6216 100.551 34.1929L101.539 34.0414L102.528 33.8899C102.462 33.4612 102.443 33.0341 102.472 32.6075L101.474 32.5414ZM101.539 34.0414L100.551 34.1929C100.615 34.614 100.629 35.0333 100.591 35.4525L101.587 35.5414L102.583 35.6303C102.635 35.0495 102.616 34.4688 102.528 33.8899L101.539 34.0414ZM101.587 35.5414L100.591 35.4525C100.529 36.1489 100.668 36.8274 100.975 37.4718L101.878 37.0414L102.781 36.611C102.611 36.2554 102.556 35.9339 102.583 35.6303L101.587 35.5414ZM101.878 37.0414L100.975 37.4718C101.103 37.7395 101.108 37.96 101.021 38.1962L101.96 38.5414L102.898 38.8866C103.179 38.1228 103.13 37.3434 102.781 36.611L101.878 37.0414ZM101.96 38.5414L101.021 38.1962C100.732 38.9832 100.811 39.78 101.204 40.5134L102.085 40.0414L102.967 39.5694C102.824 39.3028 102.82 39.0996 102.898 38.8866L101.96 38.5414ZM102.085 40.0414L101.204 40.5134C101.414 40.9056 101.518 41.2698 101.542 41.612L102.54 41.5414L103.537 41.4708C103.491 40.813 103.292 40.1773 102.967 39.5694L102.085 40.0414ZM102.54 41.5414L101.542 41.612C101.576 42.0871 101.592 42.5622 101.59 43.0371L102.59 43.0414L103.59 43.0457C103.592 42.5207 103.574 41.9957 103.537 41.4708L102.54 41.5414ZM102.59 43.0414L101.59 43.0371C101.588 43.3407 101.503 43.6735 101.291 44.0468L102.16 44.5414L103.029 45.036C103.385 44.4093 103.587 43.7421 103.59 43.0457L102.59 43.0414ZM102.16 44.5414L101.291 44.0468C100.841 44.8366 100.817 45.6985 101.242 46.507L102.127 46.0414L103.012 45.5758C102.912 45.3843 102.909 45.2462 103.029 45.036L102.16 44.5414ZM102.127 46.0414L101.242 46.507C101.42 46.8455 101.465 47.1366 101.428 47.4057L102.419 47.5414L103.41 47.6771C103.51 46.9462 103.36 46.2373 103.012 45.5758L102.127 46.0414ZM102.419 47.5414L101.428 47.4057C101.363 47.8804 101.28 48.3555 101.177 48.8312L102.155 49.0414L103.133 49.2516C103.246 48.7273 103.338 48.2025 103.41 47.6771L102.419 47.5414ZM102.155 49.0414L101.177 48.8312C101.073 49.3185 100.958 49.806 100.833 50.2936L101.802 50.5414L102.771 50.7892C102.902 50.2769 103.023 49.7643 103.133 49.2516L102.155 49.0414ZM101.802 50.5414L100.833 50.2936C100.643 51.0377 100.734 51.7771 101.065 52.4717L101.968 52.0414L102.87 51.6111C102.725 51.3058 102.705 51.0451 102.771 50.7892L101.802 50.5414ZM101.968 52.0414L101.065 52.4717C101.188 52.7306 101.192 52.9426 101.1 53.176L102.031 53.5414L102.962 53.9068C103.263 53.1402 103.224 52.3522 102.87 51.6111L101.968 52.0414ZM102.031 53.5414L101.1 53.176C100.79 53.9646 100.858 54.7694 101.253 55.5114L102.136 55.0414L103.018 54.5714C102.881 54.3134 102.879 54.1182 102.962 53.9068L102.031 53.5414ZM102.136 55.0414L101.253 55.5114C101.38 55.7501 101.38 55.9265 101.287 56.1338L102.2 56.5414L103.113 56.9491C103.467 56.1563 103.424 55.3327 103.018 54.5714L102.136 55.0414ZM102.2 56.5414L101.287 56.1338C101.014 56.7443 100.863 57.3756 100.851 58.0217L101.851 58.0414L102.85 58.0612C102.857 57.7072 102.939 57.3385 103.113 56.9491L102.2 56.5414ZM101.851 58.0414L100.851 58.0217C100.837 58.7034 101.004 59.3637 101.321 59.9916L102.214 59.5414L103.107 59.0912C102.919 58.7192 102.844 58.3795 102.85 58.0612L101.851 58.0414ZM102.214 59.5414L101.321 59.9916C101.448 60.2438 101.45 60.4416 101.359 60.6626L102.285 61.0414L103.21 61.4202C103.529 60.6412 103.484 59.839 103.107 59.0912L102.214 59.5414ZM102.285 61.0414L101.359 60.6626C101.08 61.3464 101.014 62.0604 101.186 62.7751L102.158 62.5414L103.131 62.3077C103.062 62.0224 103.081 61.7364 103.21 61.4202L102.285 61.0414ZM102.158 62.5414L101.186 62.7751C101.292 63.2151 101.354 63.6521 101.374 64.0869L102.373 64.0414L103.372 63.9959C103.346 63.4307 103.265 62.8677 103.131 62.3077L102.158 62.5414ZM102.373 64.0414L101.374 64.0869C101.393 64.5037 101.36 64.9219 101.275 65.3433L102.255 65.5414L103.236 65.7395C103.352 65.1609 103.398 64.5791 103.372 63.9959L102.373 64.0414ZM102.255 65.5414L101.275 65.3433C101.181 65.8081 101.061 66.2742 100.914 66.7417L101.868 67.0414L102.822 67.3411C102.989 66.8086 103.127 66.2747 103.236 65.7395L102.255 65.5414ZM101.868 67.0414L100.914 66.7417C100.709 67.3951 100.667 68.063 100.795 68.7307L101.777 68.5414L102.759 68.3521C102.695 68.0198 102.713 67.6878 102.822 67.3411L101.868 67.0414ZM101.777 68.5414L100.795 68.7307C100.883 69.1857 100.938 69.6393 100.961 70.0919L101.96 70.0414L102.958 69.9909C102.931 69.4435 102.864 68.8971 102.759 68.3521L101.777 68.5414ZM101.96 70.0414L100.961 70.0919C100.99 70.6715 101.088 71.2473 101.253 71.8181L102.214 71.5414L103.175 71.2647C103.051 70.8355 102.98 70.4114 102.958 69.9909L101.96 70.0414ZM102.214 71.5414L101.253 71.8181C101.312 72.0245 101.299 72.244 101.128 72.5373L101.992 73.0414L102.855 73.5455C103.268 72.8388 103.403 72.0583 103.175 71.2647L102.214 71.5414ZM101.992 73.0414L101.128 72.5373C100.903 72.9236 100.77 73.3573 100.785 73.8232C100.8 74.2871 100.958 74.7113 101.2 75.0848L102.039 74.5414L102.879 73.998C102.797 73.8715 102.785 73.7957 102.784 73.7596C102.783 73.7255 102.789 73.6592 102.855 73.5455L101.992 73.0414ZM102.039 74.5414L101.2 75.0848C101.411 75.4116 101.444 75.6583 101.407 75.8668L102.392 76.0414L103.377 76.216C103.517 75.4245 103.315 74.6712 102.879 73.998L102.039 74.5414ZM102.392 76.0414L101.407 75.8668C101.31 76.4141 101.253 76.9626 101.237 77.512L102.237 77.5414L103.236 77.5708C103.25 77.1202 103.296 76.6687 103.377 76.216L102.392 76.0414ZM102.237 77.5414L101.237 77.512C101.223 78.0139 101.209 78.5157 101.197 79.0176L102.197 79.0414L103.197 79.0652C103.209 78.5671 103.222 78.0689 103.236 77.5708L102.237 77.5414ZM102.197 79.0414L101.197 79.0176C101.188 79.4179 101.119 79.8238 100.987 80.2377L101.94 80.5414L102.893 80.8451C103.08 80.259 103.182 79.6649 103.197 79.0652L102.197 79.0414ZM101.94 80.5414L100.987 80.2377C100.778 80.894 100.736 81.5657 100.869 82.2367L101.85 82.0414L102.831 81.8461C102.765 81.5172 102.783 81.1888 102.893 80.8451L101.94 80.5414ZM101.85 82.0414L100.869 82.2367C100.962 82.7031 101.03 83.1686 101.073 83.6335L102.069 83.5414L103.065 83.4493C103.015 82.9142 102.937 82.3797 102.831 81.8461L101.85 82.0414ZM102.069 83.5414L101.073 83.6335C101.104 83.9671 101.056 84.3107 100.913 84.6756L101.843 85.0414L102.774 85.4072C103.024 84.7722 103.126 84.1157 103.065 83.4493L102.069 83.5414ZM101.843 85.0414L100.913 84.6756C100.629 85.3972 100.614 86.1461 100.873 86.8765L101.815 86.5414L102.758 86.2063C102.662 85.9367 102.665 85.6856 102.774 85.4072L101.843 85.0414ZM101.815 86.5414L100.873 86.8765C101.037 87.3369 101.167 87.7948 101.265 88.2504L102.243 88.0414L103.22 87.8324C103.104 87.288 102.95 86.7459 102.758 86.2063L101.815 86.5414ZM102.243 88.0414L101.265 88.2504C101.314 88.4822 101.287 88.7349 101.109 89.0503L101.98 89.5414L102.851 90.0325C103.237 89.348 103.385 88.6006 103.22 87.8324L102.243 88.0414ZM101.98 89.5414L101.109 89.0503C100.682 89.8077 100.617 90.6379 100.97 91.4428L101.886 91.0414L102.802 90.64C102.716 90.4449 102.714 90.2751 102.851 90.0325L101.98 89.5414ZM101.886 91.0414L100.97 91.4428C101.069 91.6686 101.061 91.841 100.953 92.0492L101.84 92.5109L102.727 92.9726C103.118 92.2215 103.141 91.4142 102.802 90.64L101.886 91.0414ZM101.84 92.5109L100.953 92.0492C100.606 92.7166 100.486 93.4363 100.611 94.1766L101.597 94.0097L102.583 93.8427C102.533 93.544 102.575 93.2646 102.727 92.9726L101.84 92.5109ZM101.597 94.0097L100.611 94.1766C100.682 94.5944 100.688 95.0103 100.628 95.4281L101.618 95.5695L102.608 95.7109C102.697 95.0879 102.688 94.464 102.583 93.8427L101.597 94.0097ZM101.618 95.5695L100.628 95.4281C100.573 95.8144 100.446 96.1664 100.245 96.4926L101.097 97.0159L101.95 97.5393C102.294 96.9778 102.514 96.3654 102.608 95.7109L101.618 95.5695ZM101.097 97.0159L100.245 96.4926C99.997 96.8968 99.7231 97.2798 99.4232 97.6419L100.194 98.2796L100.964 98.9173C101.324 98.4823 101.652 98.0229 101.95 97.5393L101.097 97.0159ZM100.194 98.2796L99.4232 97.6419C99.1561 97.9647 98.8491 98.2405 98.4999 98.4715L99.0517 99.3055L99.6035 100.14C100.117 99.7998 100.571 99.3916 100.964 98.9173L100.194 98.2796ZM99.0517 99.3055L98.4999 98.4715C98.0901 98.7427 97.6781 98.9924 97.264 99.221L97.7474 100.096L98.2307 100.972C98.693 100.717 99.1506 100.439 99.6035 100.14L99.0517 99.3055ZM97.7474 100.096L97.264 99.221C96.799 99.4778 96.346 99.7557 95.9053 100.055L96.4668 100.882L97.0283 101.71C97.4185 101.445 97.8193 101.199 98.2307 100.972L97.7474 100.096ZM96.4668 100.882L95.9053 100.055C95.5636 100.287 95.1977 100.469 94.8055 100.603L95.1292 101.55L95.4529 102.496C96.0131 102.304 96.539 102.042 97.0283 101.71L96.4668 100.882ZM95.1292 101.55L94.8055 100.603C94.4514 100.725 94.0878 100.775 93.7076 100.755L93.6545 101.754L93.6014 102.752C94.235 102.786 94.8545 102.7 95.4529 102.496L95.1292 101.55ZM93.6545 101.754L93.7076 100.755C93.1436 100.725 92.5854 100.744 92.0336 100.811L92.1557 101.804L92.2777 102.796C92.7106 102.743 93.1516 102.728 93.6014 102.752L93.6545 101.754ZM92.1557 101.804L92.0336 100.811C91.6858 100.854 91.3289 100.824 90.9544 100.712L90.6672 101.67L90.38 102.628C91.0055 102.815 91.6409 102.875 92.2777 102.796L92.1557 101.804ZM90.6672 101.67L90.9544 100.712C90.1334 100.466 89.3331 100.632 88.6255 101.088L89.1672 101.928L89.7088 102.769C90.0012 102.58 90.201 102.574 90.38 102.628L90.6672 101.67ZM89.1672 101.928L88.6255 101.088C88.2844 101.307 88.0152 101.356 87.7871 101.328L87.6672 102.321L87.5472 103.314C88.3191 103.407 89.0499 103.193 89.7088 102.769L89.1672 101.928ZM87.6672 102.321L87.7871 101.328C87.1958 101.257 86.6038 101.267 86.0137 101.359L86.1672 102.347L86.3206 103.335C86.7306 103.271 87.1386 103.264 87.5472 103.314L87.6672 102.321ZM86.1672 102.347L86.0137 101.359C85.5586 101.429 85.1045 101.468 84.651 101.475L84.6672 102.475L84.6833 103.475C85.2299 103.466 85.7757 103.42 86.3206 103.335L86.1672 102.347ZM84.6672 102.475L84.651 101.475C84.1638 101.483 83.6767 101.482 83.1895 101.471L83.1672 102.471L83.1449 103.47C83.6577 103.482 84.1705 103.484 84.6833 103.475L84.6672 102.475ZM83.1672 102.471L83.1895 101.471C82.8455 101.463 82.484 101.378 82.0978 101.194L81.6672 102.096L81.2365 102.999C81.8504 103.292 82.4888 103.456 83.1449 103.47L83.1672 102.471ZM81.6672 102.096L82.0978 101.194C81.3502 100.837 80.5558 100.806 79.7872 101.121L80.1672 102.046L80.5471 102.971C80.7786 102.876 80.9842 102.878 81.2365 102.999L81.6672 102.096ZM80.1672 102.046L79.7872 101.121C79.4379 101.265 79.115 101.304 78.8017 101.262L78.6672 102.253L78.5326 103.243C79.2194 103.337 79.8964 103.239 80.5471 102.971L80.1672 102.046ZM78.6672 102.253L78.8017 101.262C78.2794 101.191 77.7569 101.138 77.2341 101.103L77.1672 102.1L77.1003 103.098C77.5775 103.13 78.0549 103.179 78.5326 103.243L78.6672 102.253ZM77.1672 102.1L77.2341 101.103C76.8013 101.074 76.3658 101.001 75.9268 100.883L75.6672 101.849L75.4076 102.814C75.9685 102.965 76.533 103.06 77.1003 103.098L77.1672 102.1ZM75.6672 101.849L75.9268 100.883C75.1897 100.685 74.453 100.759 73.7559 101.074L74.1672 101.985L74.5785 102.897C74.8814 102.76 75.1447 102.744 75.4076 102.814L75.6672 101.849ZM74.1672 101.985L73.7559 101.074C73.4486 101.213 73.1805 101.231 72.9146 101.163L72.6672 102.132L72.4197 103.101C73.1539 103.289 73.8858 103.209 74.5785 102.897L74.1672 101.985ZM72.6672 102.132L72.9146 101.163C72.3658 101.023 71.8147 100.926 71.2617 100.874L71.1672 101.869L71.0726 102.865C71.5196 102.907 71.9685 102.986 72.4197 103.101L72.6672 102.132ZM71.1672 101.869L71.2617 100.874C70.666 100.817 70.0708 100.846 69.4789 100.96L69.6672 101.942L69.8555 102.924C70.2636 102.846 70.6684 102.827 71.0726 102.865L71.1672 101.869ZM69.6672 101.942L69.4789 100.96C69.0044 101.051 68.5305 101.123 68.057 101.175L68.1672 102.169L68.2774 103.163C68.8039 103.105 69.3299 103.025 69.8555 102.924L69.6672 101.942ZM68.1672 102.169L68.057 101.175C67.6697 101.218 67.2817 101.196 66.8881 101.107L66.6672 102.082L66.4462 103.058C67.0527 103.195 67.6646 103.231 68.2774 103.163L68.1672 102.169ZM66.6672 102.082L66.8881 101.107C66.2733 100.968 65.6528 100.939 65.0323 101.024L65.1672 102.014L65.302 103.005C65.6815 102.954 66.061 102.97 66.4462 103.058L66.6672 102.082ZM65.1672 102.014L65.0323 101.024C64.5308 101.092 64.0294 101.161 63.5279 101.232L63.6672 102.222L63.8065 103.212C64.305 103.142 64.8035 103.073 65.302 103.005L65.1672 102.014ZM63.6672 102.222L63.5279 101.232C63.0203 101.303 62.5128 101.38 62.0054 101.464L62.1672 102.45L62.329 103.437C62.8215 103.357 63.314 103.282 63.8065 103.212L63.6672 102.222ZM62.1672 102.45L62.0054 101.464C61.7945 101.498 61.5436 101.462 61.2132 101.247L60.6672 102.085L60.1212 102.923C60.7908 103.359 61.5399 103.567 62.329 103.437L62.1672 102.45ZM60.6672 102.085L61.2132 101.247C60.4719 100.764 59.6283 100.634 58.7889 100.977L59.1672 101.902L59.5454 102.828C59.7061 102.762 59.8624 102.754 60.1212 102.923L60.6672 102.085ZM59.1672 101.902L58.7889 100.977C58.4003 101.135 58.0296 101.207 57.6707 101.206L57.6672 102.206L57.6636 103.206C58.3047 103.208 58.934 103.078 59.5454 102.828L59.1672 101.902ZM57.6672 102.206L57.6707 101.206C57.354 101.205 57.0128 101.122 56.6372 100.921L56.1672 101.804L55.6972 102.687C56.3215 103.019 56.9804 103.204 57.6636 103.206L57.6672 102.206ZM56.1672 101.804L56.6372 100.921C55.9525 100.557 55.2124 100.426 54.4561 100.589L54.6672 101.567L54.8783 102.544C55.1219 102.492 55.3819 102.519 55.6972 102.687L56.1672 101.804ZM54.6672 101.567L54.4561 100.589C54.0547 100.676 53.6579 100.699 53.2621 100.662L53.1672 101.657L53.0722 102.653C53.6765 102.71 54.2797 102.674 54.8783 102.544L54.6672 101.567ZM53.1672 101.657L53.2621 100.662C52.6287 100.601 51.9992 100.667 51.3805 100.852L51.6672 101.81L51.9539 102.768C52.3352 102.654 52.7057 102.618 53.0722 102.653L53.1672 101.657ZM51.6672 101.81L51.3805 100.852C50.8943 100.998 50.4084 101.132 49.9227 101.254L50.1672 102.224L50.4117 103.193C50.926 103.064 51.4401 102.922 51.9539 102.768L51.6672 101.81ZM50.1672 102.224L49.9227 101.254C49.5026 101.36 49.0873 101.41 48.675 101.407L48.6672 102.407L48.6594 103.407C49.2471 103.411 49.8318 103.34 50.4117 103.193L50.1672 102.224ZM48.6672 102.407L48.675 101.407C48.3045 101.404 47.924 101.331 47.5286 101.178L47.1672 102.11L46.8057 103.043C47.4103 103.277 48.0299 103.402 48.6594 103.407L48.6672 102.407ZM47.1672 102.11L47.5286 101.178C46.9824 100.966 46.4325 100.8 45.8792 100.68L45.6672 101.657L45.4552 102.634C45.9019 102.731 46.352 102.867 46.8057 103.043L47.1672 102.11ZM45.6672 101.657L45.8792 100.68C45.1693 100.526 44.4629 100.6 43.7865 100.878L44.1672 101.803L44.5479 102.728C44.8715 102.594 45.1651 102.571 45.4552 102.634L45.6672 101.657ZM44.1672 101.803L43.7865 100.878C43.3907 101.041 43.0114 101.121 42.6437 101.13L42.6672 102.129L42.6906 103.129C43.3229 103.114 43.9436 102.976 44.5479 102.728L44.1672 101.803ZM42.6672 102.129L42.6437 101.13C42.0995 101.142 41.5559 101.191 41.0132 101.276L41.1672 102.264L41.3211 103.252C41.7784 103.181 42.2348 103.14 42.6906 103.129L42.6672 102.129ZM41.1672 102.264L41.0132 101.276C40.6629 101.33 40.3114 101.308 39.9483 101.201L39.6672 102.161L39.3861 103.121C40.0229 103.307 40.6714 103.353 41.3211 103.252L41.1672 102.264ZM39.6672 102.161L39.9483 101.201C39.4186 101.046 38.8877 100.917 38.3558 100.815L38.1672 101.797L37.9785 102.779C38.4467 102.869 38.9158 102.983 39.3861 103.121L39.6672 102.161ZM38.1672 101.797L38.3558 100.815C37.8451 100.717 37.3343 100.627 36.8234 100.547L36.6672 101.534L36.5109 102.522C37 102.599 37.4892 102.685 37.9785 102.779L38.1672 101.797ZM36.6672 101.534L36.8234 100.547C36.1776 100.444 35.5323 100.485 34.8974 100.663L35.1672 101.626L35.437 102.589C35.8021 102.486 36.1568 102.466 36.5109 102.522L36.6672 101.534ZM35.1672 101.626L34.8974 100.663C34.5094 100.772 34.1304 100.807 33.7547 100.774L33.6672 101.77L33.5797 102.766C34.2039 102.821 34.8249 102.76 35.437 102.589L35.1672 101.626ZM33.6672 101.77L33.7547 100.774C33.0853 100.715 32.4269 100.824 31.7915 101.082L32.1672 102.008L32.5429 102.935C32.9074 102.787 33.2491 102.737 33.5797 102.766L33.6672 101.77ZM32.1672 102.008L31.7915 101.082C31.6078 101.156 31.4357 101.159 31.1801 101.006L30.6672 101.864L30.1543 102.723C30.8986 103.167 31.7266 103.266 32.5429 102.935L32.1672 102.008ZM30.6672 101.864L31.1801 101.006C30.7848 100.77 30.3351 100.635 29.851 100.667C29.3719 100.699 28.9444 100.888 28.5775 101.156L29.1672 101.964L29.7569 102.771C29.8899 102.674 29.9624 102.664 29.9834 102.663C29.9993 102.662 30.0496 102.66 30.1543 102.723L30.6672 101.864ZM29.1672 101.964L28.5775 101.156C28.2905 101.366 28.1288 101.353 27.9945 101.307L27.6672 102.252L27.3399 103.197C28.2055 103.496 29.0439 103.292 29.7569 102.771L29.1672 101.964ZM27.6672 102.252L27.9945 101.307C27.3449 101.082 26.6771 101.018 26.006 101.127L26.1672 102.114L26.3284 103.101C26.6572 103.048 26.9895 103.075 27.3399 103.197L27.6672 102.252ZM26.1672 102.114L26.006 101.127C25.6507 101.185 25.2954 101.167 24.9303 101.068L24.6672 102.032L24.404 102.997C25.039 103.17 25.6837 103.207 26.3284 103.101L26.1672 102.114ZM24.6672 102.032L24.9303 101.068C24.2205 100.874 23.5051 100.914 22.8146 101.175L23.1672 102.11L23.5198 103.046C23.8292 102.929 24.1138 102.918 24.404 102.997L24.6672 102.032ZM23.1672 102.11L22.8146 101.175C22.4024 101.33 22.0011 101.416 21.608 101.439L21.6672 102.437L21.7264 103.436C22.3333 103.4 22.932 103.268 23.5198 103.046L23.1672 102.11ZM21.6672 102.437L21.608 101.439C21.2271 101.462 20.8418 101.418 20.4475 101.303L20.1672 102.263L19.8868 103.223C20.4925 103.4 21.1073 103.472 21.7264 103.436L21.6672 102.437ZM20.1672 102.263L20.4475 101.303C19.9638 101.162 19.4797 101.007 18.9952 100.839L18.6672 101.783L18.3392 102.728C18.8547 102.907 19.3706 103.072 19.8868 103.223L20.1672 102.263ZM18.6672 101.783L18.9952 100.839C18.257 100.582 17.5033 100.612 16.7823 100.913L17.1672 101.836L17.5521 102.759C17.8311 102.642 18.0773 102.637 18.3392 102.728L18.6672 101.783ZM17.1672 101.836L16.7823 100.913C16.3524 101.092 15.9312 101.211 15.5175 101.273L15.6672 102.262L15.8168 103.251C16.4032 103.162 16.982 102.996 17.5521 102.759L17.1672 101.836ZM15.6672 102.262L15.5175 101.273C15.1692 101.326 14.8191 101.301 14.4564 101.192L14.1672 102.149L13.878 103.106C14.5153 103.299 15.1651 103.349 15.8168 103.251L15.6672 102.262ZM14.1672 102.149L14.4564 101.192C13.7623 100.982 13.0558 100.988 12.3639 101.207L12.6654 102.16L12.9668 103.113C13.2773 103.015 13.5721 103.014 13.878 103.106L14.1672 102.149ZM12.6654 102.16L12.3639 101.207C12.2261 101.25 12.0834 101.255 11.8381 101.059L11.2152 101.842L10.5923 102.624C11.2781 103.17 12.1022 103.387 12.9668 103.113L12.6654 102.16ZM11.2152 101.842L11.8381 101.059C11.275 100.611 10.6585 100.295 9.99079 100.179L9.81874 101.164L9.64669 102.149C9.90977 102.195 10.2243 102.331 10.5923 102.624L11.2152 101.842ZM9.81874 101.164L9.99079 100.179C9.35862 100.068 8.68667 100.117 7.99572 100.28L8.22569 101.253L8.45566 102.226C8.95795 102.108 9.34804 102.097 9.64669 102.149L9.81874 101.164ZM8.22569 101.253L7.99572 100.28C7.83546 100.318 7.77572 100.296 7.77206 100.295C7.76844 100.294 7.76276 100.291 7.75218 100.283C7.74045 100.273 7.71681 100.251 7.68551 100.205L6.85735 100.765L6.02919 101.326C6.28618 101.705 6.64031 102.015 7.10021 102.179C7.55267 102.34 8.0193 102.33 8.45566 102.226L8.22569 101.253ZM6.85735 100.765L7.68551 100.205C7.23498 99.539 6.60311 99.0894 5.82557 98.8863L5.5729 99.8539L5.32023 100.821C5.62407 100.901 5.8485 101.059 6.02919 101.326L6.85735 100.765ZM5.5729 99.8539L5.82557 98.8863C5.46206 98.7914 5.19165 98.6234 4.98041 98.3878L4.2358 99.0552L3.49118 99.7227C3.98136 100.27 4.60234 100.634 5.32023 100.821L5.5729 99.8539ZM4.2358 99.0552L4.98041 98.3878C4.69957 98.0745 4.47453 97.7267 4.30334 97.3412L3.38941 97.7471L2.47548 98.153C2.73139 98.7292 3.07061 99.2536 3.49118 99.7227L4.2358 99.0552ZM3.38941 97.7471L4.30334 97.3412C4.07685 96.8312 3.82826 96.3371 3.55745 95.8589L2.68731 96.3517L1.81717 96.8445C2.05539 97.2651 2.27486 97.7012 2.47548 98.153L3.38941 97.7471ZM2.68731 96.3517L3.55745 95.8589C3.3963 95.5744 3.3193 95.2662 3.3307 94.9119L2.33122 94.8797L1.33174 94.8476C1.3089 95.5572 1.4693 96.2303 1.81717 96.8445L2.68731 96.3517ZM2.33122 94.8797L3.3307 94.9119C3.3527 94.2282 3.22272 93.57 2.9406 92.9496L2.0303 93.3636L1.12 93.7775C1.27334 94.1148 1.34397 94.4673 1.33174 94.8476L2.33122 94.8797ZM2.0303 93.3636L2.9406 92.9496C2.80109 92.6428 2.76131 92.3464 2.80877 92.0373L1.82035 91.8856L0.83193 91.7338C0.723846 92.4378 0.824038 93.1267 1.12 93.7775L2.0303 93.3636ZM1.82035 91.8856L2.80877 92.0373C2.88268 91.5559 2.97488 91.0775 3.08539 90.6022L2.11136 90.3758L1.13734 90.1493C1.01536 90.674 0.913555 91.2022 0.83193 91.7338L1.82035 91.8856ZM2.11136 90.3758L3.08539 90.6022C3.25863 89.857 3.15199 89.1214 2.81237 88.4332L1.91561 88.8758L1.01886 89.3183C1.17272 89.6301 1.19658 89.8945 1.13734 90.1493L2.11136 90.3758ZM1.91561 88.8758L2.81237 88.4332C2.63677 88.0774 2.57949 87.758 2.60436 87.4585L1.6078 87.3758L0.611227 87.293C0.55304 87.9935 0.700975 88.6741 1.01886 89.3183L1.91561 88.8758ZM1.6078 87.3758L2.60436 87.4585C2.64773 86.9364 2.67362 86.4142 2.68201 85.8918L1.68214 85.8758L0.682267 85.8597C0.674593 86.3374 0.650919 86.8151 0.611227 87.293L1.6078 87.3758ZM1.68214 85.8758L2.68201 85.8918C2.69072 85.3495 2.6651 84.8075 2.60525 84.2659L1.6113 84.3758L0.617354 84.4856C0.668018 84.9441 0.68962 85.402 0.682267 85.8597L1.68214 85.8758ZM1.6113 84.3758L2.60525 84.2659C2.56838 83.9323 2.61043 83.5905 2.74689 83.2286L1.81119 82.8758L0.875486 82.523C0.634927 83.161 0.543714 83.8193 0.617354 84.4856L1.6113 84.3758ZM1.81119 82.8758L2.74689 83.2286C3.00537 82.543 3.05108 81.8327 2.86876 81.126L1.90046 81.3758L0.932171 81.6256C1.00784 81.9189 0.994035 82.2085 0.875486 82.523L1.81119 82.8758ZM1.90046 81.3758L2.86876 81.126C2.80904 80.8945 2.82839 80.6515 2.9909 80.3492L2.11005 79.8758L1.22921 79.4024C0.854271 80.1 0.733896 80.8571 0.932171 81.6256L1.90046 81.3758ZM2.11005 79.8758L2.9909 80.3492C3.36465 79.6538 3.48733 78.8994 3.29496 78.1325L2.32501 78.3758L1.35506 78.6191C1.41353 78.8522 1.39291 79.0978 1.22921 79.4024L2.11005 79.8758ZM2.32501 78.3758L3.29496 78.1325C3.20511 77.7743 3.19656 77.424 3.26677 77.0707L2.28596 76.8758L1.30515 76.6808C1.17659 77.3276 1.19406 77.9772 1.35506 78.6191L2.32501 78.3758ZM2.28596 76.8758L3.26677 77.0707C3.37802 76.5111 3.43691 75.9493 3.44269 75.386L2.44275 75.3758L1.4428 75.3655C1.43831 75.8023 1.39268 76.2404 1.30515 76.6808L2.28596 76.8758ZM2.44275 75.3758L3.44269 75.386C3.449 74.7724 3.35221 74.1648 3.15833 73.5672L2.20713 73.8758L1.25594 74.1844C1.38647 74.5867 1.44677 74.9792 1.4428 75.3655L2.44275 75.3758ZM2.20713 73.8758L3.15833 73.5672C3.06888 73.2915 3.07481 73.0287 3.18775 72.7387L2.25594 72.3758L1.32414 72.0128C1.04757 72.7229 1.02095 73.4601 1.25594 74.1844L2.20713 73.8758ZM2.25594 72.3758L3.18775 72.7387C3.51752 71.8921 3.36611 71.0502 2.87284 70.3174L2.04326 70.8758L1.21368 71.4342C1.3935 71.7013 1.38388 71.8594 1.32414 72.0128L2.25594 72.3758ZM2.04326 70.8758L2.87284 70.3174C2.78296 70.1838 2.76619 70.1005 2.76338 70.0587C2.76083 70.0207 2.76524 69.9569 2.82281 69.85L1.9424 69.3758L1.06199 68.9016C0.850253 69.2947 0.73682 69.7308 0.767886 70.1929C0.798695 70.6511 0.96701 71.0677 1.21368 71.4342L2.04326 70.8758ZM1.9424 69.3758L2.82281 69.85C3.16243 69.2194 3.34513 68.5509 3.33196 67.8568L2.33214 67.8758L1.33232 67.8947C1.33812 68.2006 1.26099 68.5321 1.06199 68.9016L1.9424 69.3758ZM2.33214 67.8758L3.33196 67.8568C3.32139 67.2995 3.26312 66.7433 3.15771 66.189L2.17532 66.3758L1.19292 66.5626C1.27765 67.0082 1.32393 67.452 1.33232 67.8947L2.33214 67.8758ZM2.17532 66.3758L3.15771 66.189C3.0826 65.7939 3.07213 65.4023 3.12529 65.0101L2.13435 64.8758L1.14341 64.7415C1.06105 65.3492 1.0779 65.9576 1.19292 66.5626L2.17532 66.3758ZM2.13435 64.8758L3.12529 65.0101C3.20105 64.451 3.22637 63.8909 3.20095 63.3305L2.20198 63.3758L1.203 63.4211C1.22293 63.8606 1.20317 64.3005 1.14341 64.7415L2.13435 64.8758ZM2.20198 63.3758L3.20095 63.3305C3.181 62.8905 3.20053 62.4503 3.25983 62.0089L2.26873 61.8758L1.27763 61.7426C1.20258 62.3013 1.17761 62.861 1.203 63.4211L2.20198 63.3758ZM2.26873 61.8758L3.25983 62.0089C3.33096 61.4795 3.37815 60.9496 3.40132 60.4194L2.40227 60.3758L1.40323 60.3321C1.38269 60.8019 1.34085 61.2721 1.27763 61.7426L2.26873 61.8758ZM2.40227 60.3758L3.40132 60.4194C3.42395 59.9017 3.43278 59.3839 3.42781 58.8662L2.42786 58.8758L1.4279 58.8854C1.43253 59.3676 1.42431 59.8498 1.40323 60.3321L2.40227 60.3758ZM2.42786 58.8758L3.42781 58.8662C3.42161 58.2204 3.2774 57.5884 3.01116 56.9767L2.09424 57.3758L1.17731 57.7748C1.3463 58.1631 1.4245 58.5312 1.4279 58.8854L2.42786 58.8758ZM2.09424 57.3758L3.01116 56.9767C2.85964 56.6286 2.81706 56.3103 2.85673 56.0043L1.86502 55.8758L0.873317 55.7472C0.783374 56.4412 0.893609 57.123 1.17731 57.7748L2.09424 57.3758ZM1.86502 55.8758L2.85673 56.0043C2.92522 55.4758 2.97065 54.947 2.99294 54.4179L1.99383 54.3758L0.994714 54.3337C0.974875 54.8046 0.93443 55.2757 0.873317 55.7472L1.86502 55.8758ZM1.99383 54.3758L2.99294 54.4179C3.01453 53.9056 3.02664 53.3933 3.02929 52.8809L2.0293 52.8758L1.02932 52.8706C1.0268 53.3583 1.01526 53.846 0.994714 54.3337L1.99383 54.3758ZM2.0293 52.8758L3.02929 52.8809C3.0314 52.4728 3.08891 52.0608 3.20477 51.6429L2.24112 51.3758L1.27747 51.1086C1.11608 51.6907 1.03238 52.2788 1.02932 52.8706L2.0293 52.8758ZM2.24112 51.3758L3.20477 51.6429C3.36532 51.0638 3.45135 50.4791 3.46011 49.8907L2.46022 49.8758L1.46034 49.8609C1.4542 50.2724 1.39416 50.6877 1.27747 51.1086L2.24112 51.3758ZM2.46022 49.8758L3.46011 49.8907C3.46953 49.2587 3.35614 48.6358 3.13011 48.0275L2.19272 48.3758L1.25534 48.7241C1.40087 49.1157 1.46582 49.4928 1.46034 49.8609L2.46022 49.8758ZM2.19272 48.3758L3.13011 48.0275C2.99847 47.6732 2.96303 47.3396 3.00818 47.0125L2.01757 46.8758L1.02697 46.739C0.93408 47.412 1.01541 48.0783 1.25534 48.7241L2.19272 48.3758ZM2.01757 46.8758L3.00818 47.0125C3.06935 46.5694 3.16959 46.1234 3.31006 45.6742L2.35564 45.3758L1.40122 45.0773C1.22897 45.6281 1.10383 46.1822 1.02697 46.739L2.01757 46.8758ZM2.35564 45.3758L3.31006 45.6742C3.50845 45.0399 3.56766 44.3922 3.4794 43.7414L2.48847 43.8758L1.49754 44.0102C1.5449 44.3593 1.51556 44.7117 1.40122 45.0773L2.35564 45.3758ZM2.48847 43.8758L3.4794 43.7414C3.38874 43.0729 3.13198 42.4359 2.7451 41.8346L1.90416 42.3758L1.06321 42.9169C1.31979 43.3156 1.45258 43.6787 1.49754 44.0102L2.48847 43.8758ZM1.90416 42.3758L2.7451 41.8346C2.56508 41.5549 2.56512 41.3709 2.62387 41.1987L1.67743 40.8758L0.730999 40.5529C0.44858 41.3807 0.599767 42.1967 1.06321 42.9169L1.90416 42.3758ZM1.67743 40.8758L2.62387 41.1987C2.83116 40.5911 2.9289 39.9711 2.90898 39.344L1.90948 39.3758L0.909986 39.4075C0.921834 39.7804 0.864876 40.1605 0.730999 40.5529L1.67743 40.8758ZM1.90948 39.3758L2.90898 39.344C2.89751 38.9831 2.95842 38.6128 3.1031 38.2267L2.16668 37.8758L1.23026 37.5249C1.00024 38.1388 0.889682 38.7685 0.909986 39.4075L1.90948 39.3758ZM2.16668 37.8758L3.1031 38.2267C3.33837 37.5988 3.4372 36.9526 3.3858 36.2976L2.38887 36.3758L1.39193 36.454C1.41899 36.7989 1.3697 37.1528 1.23026 37.5249L2.16668 37.8758ZM2.38887 36.3758L3.3858 36.2976C3.33451 35.6438 3.1358 35.0114 2.81326 34.4057L1.93061 34.8758L1.04797 35.3458C1.25798 35.7402 1.36476 36.1077 1.39193 36.454L2.38887 36.3758ZM1.93061 34.8758L2.81326 34.4057C2.70543 34.2032 2.70497 34.0587 2.81686 33.8522L1.93767 33.3758L1.05848 32.8993C0.628416 33.6928 0.623258 34.5483 1.04797 35.3458L1.93061 34.8758ZM1.93767 33.3758L2.81686 33.8522C3.26339 33.0283 3.22464 32.1491 2.74211 31.356L1.88781 31.8758L1.03351 32.3955C1.1594 32.6025 1.1539 32.7232 1.05848 32.8993L1.93767 33.3758ZM1.88781 31.8758L2.74211 31.356C2.53623 31.0176 2.48961 30.7439 2.52073 30.5048L1.52909 30.3758L0.537455 30.2467C0.43843 31.0076 0.630956 31.7339 1.03351 32.3955L1.88781 31.8758ZM1.52909 30.3758L2.52073 30.5048C2.58329 30.0241 2.66014 29.5431 2.7513 29.0619L1.76877 28.8758L0.786245 28.6896C0.687979 29.2084 0.605037 29.7274 0.537455 30.2467L1.52909 30.3758ZM1.76877 28.8758L2.7513 29.0619C2.87066 28.4318 2.86394 27.7986 2.73187 27.1701L1.75324 27.3758L0.774614 27.5814C0.852675 27.9529 0.856315 28.3197 0.786245 28.6896L1.76877 28.8758ZM1.75324 27.3758L2.73187 27.1701C2.66127 26.8342 2.6736 26.5008 2.77421 26.1554L1.81412 25.8758L0.854026 25.5961C0.663328 26.2507 0.635072 26.9174 0.774614 27.5814L1.75324 27.3758ZM1.81412 25.8758L2.77421 26.1554C2.92799 25.6276 3.05712 25.0987 3.16143 24.5689L2.18026 24.3758L1.1991 24.1826C1.10652 24.6528 0.991557 25.124 0.854026 25.5961L1.81412 25.8758ZM2.18026 24.3758L3.16143 24.5689C3.29915 23.8694 3.22454 23.1743 2.95867 22.5061L2.02951 22.8758L1.10036 23.2455C1.23237 23.5772 1.25826 23.8821 1.1991 24.1826L2.18026 24.3758ZM2.02951 22.8758L2.95867 22.5061C2.87466 22.2949 2.87664 22.1014 3.01285 21.8453L2.12991 21.3758L1.24698 20.9063C0.851444 21.6501 0.78649 22.4566 1.10036 23.2455L2.02951 22.8758ZM2.12991 21.3758L3.01285 21.8453C3.22091 21.454 3.33252 21.0214 3.30416 20.5639C3.276 20.1097 3.11395 19.6946 2.8732 19.3274L2.03694 19.8758L1.20068 20.4241C1.28778 20.5569 1.30515 20.6419 1.30799 20.6876C1.31062 20.7301 1.30478 20.7976 1.24698 20.9063L2.12991 21.3758ZM2.03694 19.8758L2.8732 19.3274C2.66613 19.0116 2.64442 18.7835 2.68685 18.5907L1.71022 18.3758L0.733596 18.1608C0.555945 18.968 0.752043 19.7399 1.20068 20.4241L2.03694 19.8758ZM1.71022 18.3758L2.68685 18.5907C2.78957 18.124 2.91754 17.656 3.07108 17.1867L2.12065 16.8758L1.17022 16.5648C0.996606 17.0955 0.850964 17.6275 0.733596 18.1608L1.71022 18.3758ZM2.12065 16.8758L3.07108 17.1867C3.28671 16.5276 3.33086 15.852 3.19397 15.177L2.21392 15.3758L1.23387 15.5745C1.29977 15.8995 1.28174 16.2239 1.17022 16.5648L2.12065 16.8758ZM2.21392 15.3758L3.19397 15.177C3.08888 14.6588 2.96882 14.1409 2.83382 13.6234L1.8662 13.8758L0.898572 14.1282C1.02442 14.6106 1.13617 15.0927 1.23387 15.5745L2.21392 15.3758ZM1.8662 13.8758L2.83382 13.6234C2.71844 13.181 2.64489 12.7382 2.61243 12.2943L1.61509 12.3673L0.617754 12.4402C0.659253 13.0076 0.753111 13.5705 0.898572 14.1282L1.8662 13.8758ZM1.61509 12.3673L2.61243 12.2943C2.59456 12.0501 2.65687 11.7901 2.8721 11.4864L2.05628 10.9081L1.24046 10.3298C0.793474 10.9604 0.561649 11.6731 0.617754 12.4402L1.61509 12.3673ZM2.05628 10.9081L2.8721 11.4864C3.27227 10.9219 3.54962 10.3167 3.66782 9.67321L2.68427 9.49255L1.70073 9.31188C1.64382 9.62165 1.50251 9.96013 1.24046 10.3298L2.05628 10.9081ZM2.68427 9.49255L3.66782 9.67321C3.74852 9.23386 3.85484 8.79524 3.98705 8.35722L3.02972 8.06825L2.07238 7.77929C1.9191 8.2871 1.79512 8.79801 1.70073 9.31188L2.68427 9.49255ZM3.02972 8.06825L3.98705 8.35722C4.07713 8.0588 4.23515 7.80573 4.47561 7.58454L3.7986 6.84857L3.12159 6.11259C2.62236 6.57182 2.2678 7.13188 2.07238 7.77929L3.02972 8.06825ZM3.7986 6.84857L4.47561 7.58454C4.91943 7.17627 5.29139 6.71228 5.58752 6.19418L4.71933 5.69795L3.85113 5.20173C3.6593 5.53735 3.41744 5.84044 3.12159 6.11259L3.7986 6.84857ZM4.71933 5.69795L5.58752 6.19418C5.73133 5.94257 5.92621 5.75898 6.19371 5.62776L5.7533 4.72996L5.31289 3.83217C4.68971 4.13787 4.19528 4.59961 3.85113 5.20173L4.71933 5.69795ZM5.7533 4.72996L6.19371 5.62776C6.7862 5.33712 7.28566 4.9171 7.68835 4.38404L6.89043 3.78128L6.09251 3.17851C5.86971 3.47345 5.61109 3.68589 5.31289 3.83217L5.7533 4.72996ZM6.89043 3.78128L7.68835 4.38404C7.92169 4.07515 8.19598 3.83394 8.5147 3.65169L8.01832 2.78359L7.52194 1.91549C6.96229 2.23549 6.48465 2.65941 6.09251 3.17851L6.89043 3.78128ZM8.01832 2.78359L8.5147 3.65169C8.94702 3.4045 9.39371 3.15591 9.8548 2.90593L9.3782 2.02681L8.9016 1.14769C8.4279 1.4045 7.968 1.66043 7.52194 1.91549L8.01832 2.78359ZM9.3782 2.02681L9.8548 2.90593C10.1767 2.7314 10.5078 2.64842 10.8624 2.64983L10.8664 1.64983L10.8703 0.649841C10.1755 0.647093 9.51446 0.815436 8.9016 1.14769L9.3782 2.02681ZM10.8664 1.64983L10.8624 2.64983C11.0967 2.65075 11.2417 2.66482 11.3191 2.67905C11.3568 2.68599 11.3555 2.68893 11.3297 2.67861C11.3089 2.67028 11.2181 2.63219 11.1191 2.5331L11.8267 1.82647L12.5343 1.11984C12.2485 0.833691 11.8762 0.747968 11.6809 0.712047C11.4381 0.667402 11.1608 0.65099 10.8703 0.649841L10.8664 1.64983ZM11.8267 1.82647L11.1191 2.5331C11.4347 2.84915 11.8432 2.91108 12.0493 2.93073C12.3018 2.9548 12.5814 2.94019 12.8633 2.90805L12.75 1.91449L12.6367 0.920926C12.5319 0.932875 12.4459 0.939274 12.3768 0.941641C12.3067 0.944044 12.2624 0.941977 12.2391 0.939754C12.2129 0.937258 12.2301 0.936159 12.2735 0.951028C12.3147 0.965134 12.4231 1.00853 12.5343 1.11984L11.8267 1.82647Z" fill="#087236"/>
</svg>
