<svg width="121" height="121" viewBox="0 0 121 121" fill="none" xmlns="http://www.w3.org/2000/svg">
<path d="M1.6084 11.7188C1.6084 6.1959 6.08555 1.71875 11.6084 1.71875H109.163C114.686 1.71875 119.163 6.1959 119.163 11.7187V108.906C119.163 114.429 114.686 118.906 109.163 118.906H11.6084C6.08554 118.906 1.6084 114.429 1.6084 108.906V11.7188Z" fill="#D9D9D9"/>
<path d="M54.5225 0.304688C54.9685 0.379058 55.4146 0.414562 55.8584 0.414062C56.4732 0.413499 57.0817 0.515485 57.6787 0.71875C57.9674 0.81724 58.2406 0.818657 58.5303 0.71875C59.1885 0.491232 59.8675 0.433358 60.5459 0.5625C61.0255 0.653837 61.5043 0.734958 61.9834 0.796875C62.394 0.849897 62.8067 0.846866 63.2178 0.789062C63.8406 0.701332 64.4679 0.725821 65.085 0.867188C65.3741 0.932969 65.6642 0.917299 65.9834 0.789062C66.7571 0.477421 67.5585 0.515945 68.3037 0.882812C68.5349 0.996132 68.716 0.999644 68.9365 0.898438C69.5877 0.597725 70.2755 0.470352 70.9756 0.554688C71.5725 0.627208 72.1634 0.79103 72.7412 1.03125C72.9726 1.12748 73.1789 1.12605 73.4287 1.00781C74.0975 0.690279 74.8082 0.570409 75.5303 0.695312C76.0518 0.785549 76.5722 0.897084 77.0928 1.02344C77.293 1.07204 77.52 1.05026 77.8271 0.859375C78.5824 0.389117 79.4353 0.289602 80.2646 0.65625C80.7 0.848673 81.1257 0.988715 81.5459 1.07031C81.7401 1.10793 81.9801 1.07632 82.3037 0.859375C82.6736 0.611987 83.0966 0.443243 83.5615 0.421875C84.0302 0.400634 84.4695 0.532749 84.8584 0.757812C85.2641 0.993033 85.6494 1.12742 86.0068 1.17969C86.3511 1.22948 86.7009 1.19929 87.0615 1.08594C87.7452 0.871806 88.444 0.864779 89.1318 1.0625C89.3816 1.13458 89.635 1.12251 89.9287 0.984375C90.4997 0.714508 91.0872 0.516381 91.6787 0.40625C92.3694 0.27836 93.0559 0.354239 93.7178 0.609375C94.1108 0.760846 94.4906 0.828771 94.8584 0.828125C95.2312 0.827255 95.6116 0.755794 96.0068 0.609375C96.7892 0.318948 97.5852 0.39687 98.3193 0.78125C98.6564 0.957943 98.9495 0.998302 99.2178 0.960938C99.7945 0.879978 100.374 0.867441 100.952 0.921875C101.253 0.950254 101.575 0.895959 101.929 0.726562C102.745 0.336519 103.597 0.396733 104.366 0.851562C104.76 1.08536 105.126 1.20868 105.46 1.24219C105.763 1.27224 106.084 1.21925 106.437 1.05469C107.093 0.748609 107.784 0.624029 108.491 0.71875C108.974 0.783444 109.454 0.837081 109.929 0.875C110.39 0.911771 110.864 0.927349 111.351 0.921875C112.062 0.913816 112.73 1.10578 113.327 1.49219C113.764 1.7749 114.193 2.05703 114.608 2.33594C114.966 2.57605 115.358 2.78544 115.78 2.96875C116.406 3.24074 116.933 3.65111 117.351 4.1875C117.626 4.54175 117.938 4.87982 118.288 5.19531C118.965 5.80717 119.191 6.63662 119.062 7.50781C119.002 7.91274 119.073 8.16753 119.187 8.34375C119.542 8.89894 119.752 9.50942 119.804 10.1641C119.837 10.5806 119.92 11.007 120.046 11.4375C120.257 12.1588 120.206 12.8889 119.921 13.5859C119.754 13.9937 119.657 14.3893 119.632 14.7734C119.604 15.1994 119.629 15.6267 119.694 16.0547C119.783 16.6331 119.801 17.2166 119.749 17.7969C119.722 18.0995 119.776 18.4192 119.944 18.7734C120.293 19.5047 120.341 20.2841 120.062 21.0469C119.983 21.2599 119.989 21.4678 120.132 21.7344C120.456 22.3412 120.655 22.9762 120.702 23.6328C120.739 24.1577 120.751 24.6859 120.749 25.2109C120.746 25.9069 120.551 26.5768 120.194 27.2031C120.076 27.4125 120.078 27.5511 120.179 27.7422C120.526 28.4028 120.669 29.114 120.569 29.8438C120.497 30.3675 120.408 30.8912 120.296 31.4141C120.186 31.9266 120.068 32.441 119.937 32.9531C119.871 33.2083 119.886 33.4692 120.03 33.7734C120.384 34.5145 120.425 35.3037 120.124 36.0703C120.041 36.2812 120.042 36.4773 120.179 36.7344C120.583 37.4942 120.632 38.318 120.28 39.1094C120.106 39.4988 120.022 39.8726 120.015 40.2266C120.009 40.5444 120.085 40.8863 120.272 41.2578C120.648 42.0047 120.692 42.8081 120.374 43.5859C120.245 43.9008 120.228 44.1847 120.296 44.4688C120.43 45.0277 120.512 45.5922 120.538 46.1562C120.565 46.7395 120.514 47.3277 120.397 47.9062C120.289 48.4405 120.15 48.9763 119.983 49.5078C119.875 49.8531 119.857 50.1845 119.921 50.5156C120.026 51.0607 120.096 51.6089 120.124 52.1562C120.145 52.5762 120.212 53.001 120.335 53.4297C120.563 54.223 120.435 55.0045 120.022 55.7109C119.957 55.8228 119.944 55.8872 119.944 55.9219C119.945 55.9579 119.964 56.0375 120.046 56.1641C120.48 56.8364 120.678 57.5926 120.538 58.3828C120.458 58.8344 120.411 59.2849 120.397 59.7344C120.383 60.2317 120.37 60.7293 120.358 61.2266C120.344 61.8261 120.24 62.4218 120.054 63.0078C119.944 63.3505 119.926 63.6797 119.991 64.0078C120.097 64.5401 120.176 65.0756 120.226 65.6094C120.287 66.2756 120.186 66.9354 119.937 67.5703C119.827 67.8478 119.826 68.0986 119.921 68.3672C120.113 68.9068 120.265 69.4557 120.382 70C120.545 70.7667 120.4 71.5119 120.015 72.1953C119.878 72.4379 119.882 72.6096 119.968 72.8047C120.3 73.5633 120.29 74.3614 119.952 75.1172C119.837 75.378 119.836 75.6006 119.929 75.8438C120.137 76.3875 120.299 76.9422 120.421 77.4922C120.55 78.0751 120.605 78.6611 120.577 79.25C120.553 79.7464 120.534 80.2458 120.515 80.7422C120.494 81.2923 120.43 81.843 120.327 82.3906C120.238 82.8667 120.17 83.345 120.116 83.8203C120.069 84.2394 120.07 84.6585 120.124 85.0781C120.193 85.6156 120.234 86.1569 120.241 86.6953C120.249 87.273 120.188 87.8496 120.062 88.4219C119.973 88.8215 119.947 89.2157 119.983 89.6094C120.043 90.2426 119.974 90.8738 119.788 91.4922C119.735 91.6708 119.741 91.8726 119.929 92.1641C120.353 92.8229 120.569 93.5562 120.476 94.3281C120.427 94.7358 120.436 95.1457 120.499 95.5547C120.583 96.0981 120.631 96.6425 120.64 97.1875C120.648 97.7 120.643 98.2141 120.632 98.7266C120.617 99.3815 120.455 100.02 120.163 100.633C120.043 100.885 120.037 101.097 120.132 101.328C120.399 101.978 120.498 102.658 120.405 103.344C120.341 103.82 120.297 104.298 120.265 104.773C120.227 105.34 120.126 105.908 119.976 106.469C119.906 106.73 119.926 106.996 120.062 107.297C120.378 108 120.442 108.745 120.226 109.484C120.081 109.978 119.945 110.465 119.812 110.938C119.69 111.368 119.594 111.81 119.53 112.266C119.449 112.844 119.299 113.413 119.085 113.961C118.84 114.586 118.459 115.126 117.952 115.57C117.615 115.866 117.315 116.192 117.054 116.539C116.721 116.981 116.352 117.402 115.952 117.797C115.554 118.189 115.126 118.555 114.671 118.898C113.979 119.422 113.164 119.539 112.335 119.344C111.983 119.261 111.75 119.321 111.562 119.445C110.972 119.831 110.321 120.05 109.624 120.078C108.919 120.107 108.239 119.934 107.601 119.594C107.286 119.427 107.024 119.401 106.78 119.453C106.183 119.582 105.578 119.62 104.976 119.562C104.61 119.528 104.239 119.558 103.858 119.672C103.345 119.825 102.833 119.972 102.319 120.102C101.739 120.248 101.149 120.317 100.562 120.312C99.9332 120.307 99.3134 120.179 98.71 119.945C98.257 119.77 97.8043 119.636 97.3584 119.539C97.0691 119.477 96.7748 119.5 96.4521 119.633C95.8482 119.881 95.2248 120.024 94.5928 120.039C94.1382 120.05 93.6817 120.085 93.2256 120.156C92.5762 120.257 91.9247 120.21 91.2881 120.023C90.8192 119.886 90.3486 119.777 89.8818 119.688C89.3932 119.594 88.9016 119.507 88.4131 119.43C88.0603 119.374 87.7065 119.39 87.3428 119.492C86.7307 119.664 86.1077 119.727 85.4834 119.672C85.1541 119.643 84.8151 119.697 84.4521 119.844C83.6369 120.174 82.8051 120.076 82.0615 119.633C81.958 119.571 81.9062 119.569 81.8896 119.57C81.8687 119.572 81.7962 119.583 81.6631 119.68C80.951 120.199 80.1135 120.4 79.249 120.102C78.8986 119.98 78.5622 119.954 78.2334 120.008C77.5897 120.113 76.9455 120.079 76.3115 119.906C76.0222 119.827 75.7371 119.837 75.4287 119.953C74.8409 120.175 74.2387 120.308 73.6318 120.344C73.0143 120.38 72.4001 120.309 71.7959 120.133C71.2796 119.982 70.7567 119.812 70.2412 119.633C69.9814 119.543 69.7367 119.549 69.46 119.664C68.8909 119.901 68.3108 120.067 67.7256 120.156C67.0739 120.255 66.4176 120.208 65.7803 120.016C65.475 119.924 65.1819 119.926 64.874 120.023C64.0432 120.286 63.2325 120.111 62.5225 119.641C62.1669 119.404 61.8753 119.338 61.6318 119.352C61.3584 119.367 61.0356 119.472 60.6553 119.742C59.8969 120.281 59.0068 120.417 58.1396 120C57.9078 119.888 57.7171 119.887 57.4912 119.992C56.872 120.28 56.2231 120.435 55.5615 120.43C55.0057 120.425 54.4506 120.372 53.8975 120.273C53.4817 120.199 53.0678 120.178 52.6553 120.211C52.0146 120.262 51.3775 120.177 50.7568 119.969C50.4513 119.866 50.158 119.863 49.8584 119.953C49.2164 120.147 48.5609 120.189 47.9053 120.078C47.3855 119.99 46.8618 119.886 46.3428 119.766C46.0892 119.708 45.8248 119.738 45.5146 119.891C44.8714 120.208 44.1906 120.355 43.4912 120.297C43.0133 120.257 42.5314 120.234 42.0537 120.227C41.5983 120.219 41.1427 120.239 40.6865 120.289C40.0202 120.363 39.3558 120.272 38.7178 120.031C38.404 119.913 38.1121 119.901 37.8193 119.977C37.0528 120.173 36.2965 120.053 35.6006 119.68C35.297 119.517 35.0518 119.497 34.8193 119.555C34.1775 119.716 33.5208 119.73 32.874 119.602C32.4349 119.514 31.9971 119.465 31.5615 119.461C31.1758 119.457 30.7835 119.518 30.3818 119.648C29.658 119.883 28.9196 119.862 28.21 119.586C28.0566 119.526 27.899 119.515 27.6318 119.695C27.2656 119.942 26.8475 120.11 26.3896 120.141C25.9283 120.172 25.4932 120.055 25.1006 119.844C24.7316 119.645 24.3983 119.565 24.0928 119.57C23.6501 119.579 23.2025 119.626 22.7568 119.711C22.1526 119.826 21.5435 119.848 20.9365 119.766C20.4961 119.706 20.0552 119.683 19.6162 119.703C19.0568 119.728 18.4946 119.7 17.9365 119.625C17.4675 119.562 16.9986 119.521 16.5303 119.5C16.0489 119.479 15.5663 119.472 15.085 119.477C14.732 119.48 14.3624 119.559 13.9756 119.727C13.3238 120.01 12.6383 120.122 11.9443 120.031C11.4401 119.965 10.9353 119.893 10.4365 119.82C9.9042 119.743 9.3767 119.637 8.8584 119.5C8.23785 119.336 7.67261 119.047 7.1709 118.641C6.80463 118.344 6.43699 118.08 6.06934 117.844C5.73795 117.631 5.35758 117.442 4.92871 117.289C4.2406 117.043 3.67264 116.617 3.27246 116.008C2.93679 115.496 2.69321 114.937 2.53809 114.344C2.43447 113.947 2.28271 113.589 2.08496 113.273C1.88968 112.962 1.60652 112.627 1.21777 112.273C0.545958 111.663 0.217262 110.847 0.405273 109.93C0.49966 109.47 0.538052 109.032 0.522461 108.617C0.498509 107.976 0.604331 107.342 0.834961 106.727C0.974299 106.355 1.02608 106.001 0.999023 105.656C0.971694 105.31 0.865014 104.941 0.655273 104.547C0.231928 103.75 0.233796 102.894 0.663086 102.102C0.758372 101.926 0.765005 101.808 0.639648 101.602C0.237572 100.941 0.0492395 100.213 0.147461 99.4531C0.215043 98.9338 0.299194 98.4094 0.397461 97.8906C0.46696 97.5217 0.459692 97.1517 0.381836 96.7812C0.243179 96.1184 0.269619 95.4503 0.459961 94.7969C0.597259 94.3254 0.711249 93.8524 0.803711 93.3828C0.862258 93.0831 0.841617 92.7762 0.709961 92.4453C0.397317 91.6573 0.463318 90.8524 0.858398 90.1094C0.915446 90.0016 0.915706 89.9329 0.913086 89.8906C0.91012 89.8447 0.89819 89.7572 0.811523 89.625C0.36368 88.9417 0.166171 88.1732 0.342773 87.3672C0.460141 86.8339 0.606661 86.2963 0.780273 85.7656C0.890578 85.4269 0.907714 85.1042 0.842773 84.7812C0.745073 84.2995 0.632682 83.8106 0.506836 83.3281C0.362487 82.774 0.269642 82.2156 0.225586 81.6562C0.169003 80.9344 0.343042 80.2401 0.702148 79.5938C0.898476 79.2406 0.958136 78.9339 0.936523 78.6562C0.898651 78.1699 0.853485 77.6818 0.795898 77.1953C0.721961 76.5691 0.767142 75.9445 0.928711 75.3281C1.02292 74.9696 1.03444 74.6171 0.967773 74.2656C0.84576 73.6221 0.863678 72.9741 1.02246 72.3359C1.09608 72.0394 1.08494 71.7468 0.967773 71.4297C0.755675 70.858 0.611438 70.273 0.545898 69.6875C0.495062 69.2347 0.418826 68.7764 0.303711 68.3203C0.149029 67.7062 0.0980621 67.0838 0.170898 66.4609C0.241057 65.8624 0.405159 65.2737 0.647461 64.6953C0.820214 64.2833 0.917315 63.8811 0.952148 63.4922C0.980387 63.175 0.929358 62.8432 0.772461 62.4844C0.437115 61.7197 0.446363 60.9135 0.795898 60.1562C0.896573 59.9369 0.903163 59.7554 0.788086 59.5234C0.392164 58.7267 0.414638 57.8815 0.834961 57.1016C1.02123 56.7544 1.07269 56.4482 1.0459 56.1719C1.01411 55.8511 0.897483 55.4988 0.655273 55.1094C0.418541 54.7292 0.272005 54.2964 0.272461 53.8281C0.272946 53.3599 0.418071 52.9267 0.655273 52.5469C0.785476 52.3379 0.777348 52.2235 0.686523 52.0547C0.258018 51.2585 0.257634 50.3974 0.686523 49.6016C0.828385 49.3377 0.835606 49.1402 0.756836 48.9297C0.489688 48.2157 0.479255 47.4789 0.725586 46.7578C0.84595 46.4059 0.872661 46.0654 0.819336 45.7344C0.735297 45.2121 0.670062 44.687 0.624023 44.1641C0.569369 43.5395 0.630274 42.9167 0.803711 42.3047C0.904313 41.9487 0.919884 41.6035 0.858398 41.2578C0.771222 40.7705 0.675943 40.2767 0.569336 39.7891C0.444456 39.2166 0.380541 38.6402 0.389648 38.0625C0.399494 37.4448 0.524201 36.8318 0.741211 36.2344C0.894728 35.8107 0.990319 35.3942 1.03027 34.9844C1.06752 34.6011 1.03462 34.2124 0.936523 33.8203C0.793292 33.2473 0.716085 32.666 0.709961 32.0859C0.704428 31.5472 0.737058 31.0068 0.795898 30.4688C0.827949 30.1719 0.774336 29.8569 0.608398 29.5078C0.203333 28.655 0.320705 27.7767 0.834961 27.0156C1.06833 26.669 1.12184 26.3962 1.10059 26.1719C1.04717 25.607 1.0502 25.0413 1.1084 24.4766C1.15406 24.0334 1.16136 23.5911 1.13184 23.1484C1.11001 22.8227 1.00422 22.4659 0.780273 22.0781C0.393499 21.4078 0.225594 20.6732 0.350586 19.9141C0.446176 19.3348 0.617221 18.7602 0.850586 18.1953C0.913987 18.0401 0.918152 17.889 0.749023 17.6328C0.496238 17.2503 0.337757 16.8062 0.342773 16.3203C0.348386 15.8344 0.521601 15.3938 0.780273 15.0156C1.01924 14.666 1.07343 14.3882 1.05371 14.1641C1.00574 13.6174 0.999038 13.0705 1.03027 12.5234C1.04654 12.2391 0.979287 11.9098 0.772461 11.5234C0.568831 11.1441 0.436981 10.7207 0.444336 10.2734C0.452065 9.82188 0.597675 9.40584 0.834961 9.03906C1.12342 8.59317 1.38856 8.16327 1.63184 7.75C1.83252 7.40906 1.9838 7.03767 2.08496 6.63281C2.23729 6.02231 2.49554 5.45388 2.85059 4.9375C3.26077 4.3417 3.82435 3.91623 4.50684 3.66406C4.87565 3.5279 5.16437 3.3386 5.38965 3.10156C5.71994 2.75331 6.06609 2.37172 6.4209 1.96875C7.03124 1.2779 7.85925 1.02473 8.74902 1.20312C9.16385 1.28672 9.49806 1.26542 9.77246 1.17188C10.2174 1.01948 10.5363 0.889081 10.7412 0.78125C10.8835 0.706397 11.0962 0.597854 11.3193 0.554688C11.411 0.537028 11.697 0.487773 12.0068 0.632812C12.0173 0.637768 12.0277 0.650906 12.0381 0.65625C12.093 0.652147 12.1655 0.650153 12.249 0.640625C12.7254 0.586236 13.2018 0.515005 13.6787 0.429688C14.3724 0.305482 15.0634 0.386657 15.7256 0.648438C16.0191 0.764371 16.2862 0.772442 16.5615 0.6875C17.2026 0.488856 17.8584 0.433713 18.5146 0.539062C18.9091 0.602683 19.3077 0.602816 19.7021 0.539062C20.2092 0.457127 20.7184 0.381403 21.2256 0.3125C22.01 0.206472 22.7517 0.42734 23.4131 0.867188C23.6954 1.05499 23.8746 1.05397 24.0381 1C24.616 0.806979 25.205 0.693074 25.7959 0.65625C26.3062 0.624488 26.8168 0.600528 27.3271 0.585938C27.8943 0.569756 28.4659 0.614001 29.0303 0.710938C29.3902 0.772324 29.7497 0.755608 30.1162 0.664062C30.7402 0.508209 31.3752 0.47779 32.0068 0.570312C32.5014 0.642734 32.9967 0.706598 33.4912 0.773438C33.8507 0.822028 34.2133 0.800416 34.585 0.695312C35.1548 0.53394 35.7334 0.435144 36.3115 0.40625C37.0496 0.37008 37.7488 0.590397 38.3896 0.992188C38.6736 1.17024 38.8719 1.17612 39.0537 1.11719C39.6611 0.920654 40.2805 0.83104 40.9053 0.859375C41.4015 0.881874 41.9013 0.904278 42.3975 0.921875C42.8085 0.936132 43.2225 0.898438 43.6396 0.804688C44.2403 0.669669 44.8452 0.628549 45.4521 0.6875C45.7924 0.720754 46.1476 0.674889 46.5146 0.539062C47.3435 0.233363 48.1686 0.370303 48.8975 0.835938C49.2482 1.05987 49.5346 1.11989 49.7803 1.10156C50.1736 1.07154 50.5781 0.981995 50.9912 0.820312C51.5447 0.603337 52.1082 0.437289 52.6709 0.328125C53.2865 0.209049 53.9052 0.201778 54.5225 0.304688ZM53.0459 2.28906C52.6101 2.37376 52.1706 2.50537 51.7256 2.67969C51.1404 2.9091 50.5416 3.04733 49.9365 3.09375C49.183 3.15127 48.4673 2.93725 47.8193 2.52344C47.5491 2.35079 47.3723 2.35109 47.2021 2.41406C46.5712 2.64712 45.9221 2.74334 45.2646 2.67969C44.8727 2.64139 44.4755 2.66046 44.0771 2.75C43.4957 2.88071 42.907 2.9349 42.3193 2.91406C41.8173 2.89625 41.3136 2.88214 40.8115 2.85938C40.4377 2.8426 40.0543 2.88881 39.6631 3.01562C38.8459 3.27969 38.0424 3.13594 37.3271 2.6875C36.9689 2.46286 36.666 2.39322 36.4053 2.40625C35.9849 2.4275 35.5605 2.49589 35.1318 2.61719C34.5041 2.79495 33.8654 2.84415 33.2256 2.75781C32.7219 2.68974 32.2136 2.62065 31.71 2.54688C31.3429 2.49355 30.9752 2.50804 30.6006 2.60156C29.9681 2.75955 29.3255 2.78944 28.6865 2.67969C28.2526 2.6053 27.8208 2.57382 27.3896 2.58594C26.9011 2.59988 26.4095 2.61803 25.9209 2.64844C25.5131 2.67382 25.0995 2.75821 24.6787 2.89844C23.8428 3.17761 23.02 3.00777 22.3037 2.53125C21.9668 2.30762 21.7054 2.26778 21.4912 2.29688C21.0002 2.3636 20.5057 2.43625 20.0146 2.51562C19.4111 2.61282 18.8057 2.61266 18.2021 2.51562C17.8599 2.46042 17.5127 2.48318 17.1553 2.59375C16.4317 2.81794 15.6965 2.78636 14.9912 2.50781C14.6546 2.37473 14.3434 2.34437 14.0381 2.39844C13.5174 2.49167 12.9891 2.56557 12.4678 2.625C12.2076 2.65457 11.9497 2.6779 11.7334 2.66406C11.6793 2.66052 11.6004 2.62884 11.5068 2.60938C11.2002 2.7578 10.8383 2.91952 10.4209 3.0625C9.76122 3.28816 9.06494 3.30622 8.3584 3.16406C8.1274 3.11751 8.03377 3.16868 7.9209 3.29688C7.55176 3.71611 7.19157 4.10879 6.84277 4.47656C6.38942 4.95457 5.83455 5.3053 5.20215 5.53906C4.88389 5.65656 4.66166 5.83466 4.49902 6.07031C4.28083 6.38765 4.12527 6.73645 4.03027 7.11719C3.88411 7.70275 3.65968 8.25378 3.3584 8.76562C3.09956 9.20536 2.81691 9.65777 2.51465 10.125C2.45832 10.2121 2.4454 10.2681 2.44434 10.3047C2.44365 10.3461 2.45446 10.4369 2.53027 10.5781C2.87996 11.2301 3.06255 11.9196 3.02246 12.6328C2.99662 13.0845 3.00613 13.5402 3.0459 13.9922C3.11389 14.7667 2.87215 15.4914 2.42871 16.1406C2.34537 16.2625 2.34294 16.3297 2.34277 16.3438C2.34302 16.3613 2.3485 16.4217 2.4209 16.5312C2.90957 17.2723 3.04236 18.1184 2.69434 18.9609C2.51503 19.3951 2.39626 19.8224 2.32715 20.2422C2.28761 20.4824 2.32462 20.749 2.51465 21.0781C2.86828 21.6904 3.08666 22.3413 3.13184 23.0156C3.16881 23.5703 3.15757 24.1255 3.10059 24.6797C3.05582 25.1141 3.05166 25.5501 3.09277 25.9844C3.16621 26.7593 2.93164 27.4888 2.49121 28.1406C2.33125 28.3777 2.34412 28.5025 2.41309 28.6484C2.72197 29.2983 2.857 29.9851 2.78027 30.6875C2.7299 31.1481 2.70511 31.6104 2.70996 32.0703C2.71451 32.4886 2.76771 32.9106 2.87402 33.3359C3.02614 33.9439 3.07458 34.563 3.01465 35.1797C2.95726 35.7667 2.82432 36.3489 2.61621 36.9219C2.47061 37.3232 2.3958 37.7126 2.38965 38.0938C2.38301 38.5149 2.42923 38.9407 2.52246 39.3672C2.63434 39.879 2.73554 40.3941 2.82715 40.9062C2.9433 41.5581 2.9074 42.2101 2.72559 42.8516C2.61587 43.2387 2.58324 43.6177 2.61621 43.9922C2.65811 44.4678 2.71918 44.9456 2.7959 45.4219C2.90317 46.0901 2.83767 46.7588 2.61621 47.4062C2.52208 47.6833 2.52583 47.9425 2.63184 48.2266C2.92715 49.0157 2.84854 49.8191 2.45215 50.5547C2.34254 50.7581 2.34355 50.8988 2.45215 51.1016C2.89928 51.9323 2.84408 52.8192 2.35059 53.6094C2.2779 53.7262 2.27284 53.7956 2.27246 53.8281C2.27243 53.8595 2.27801 53.9292 2.35059 54.0469C2.72935 54.6552 2.97238 55.3067 3.03809 55.9844C3.10774 56.7064 2.94339 57.4041 2.59277 58.0547C2.4745 58.2744 2.47643 58.4299 2.57715 58.6328C2.95826 59.3997 2.976 60.2205 2.61621 61C2.50451 61.2424 2.50531 61.4446 2.6084 61.6797C2.88776 62.3179 3.00422 62.9843 2.94434 63.6641C2.88999 64.2745 2.73752 64.8814 2.49121 65.4688C2.31573 65.8879 2.20978 66.2962 2.16309 66.6953C2.11908 67.0716 2.14402 67.4509 2.24121 67.8359C2.37797 68.3781 2.47703 68.9233 2.53809 69.4688C2.58452 69.8829 2.68401 70.3064 2.84277 70.7344C3.09471 71.415 3.14215 72.119 2.96777 72.8203C2.87792 73.1814 2.86931 73.5349 2.93652 73.8906C3.05954 74.5392 3.03481 75.1944 2.86621 75.8359C2.7663 76.2171 2.73645 76.5897 2.78027 76.9609C2.84097 77.4737 2.89657 77.9871 2.93652 78.5C2.9927 79.2216 2.81088 79.9163 2.45215 80.5625C2.2561 80.9152 2.19607 81.2229 2.21777 81.5C2.25239 81.9395 2.32833 82.3834 2.44434 82.8281C2.57915 83.3451 2.69874 83.8652 2.80371 84.3828C2.93999 85.057 2.89408 85.7323 2.67871 86.3906C2.52526 86.8597 2.39857 87.3304 2.2959 87.7969C2.25419 87.9892 2.27721 88.2168 2.4834 88.5312C2.72346 88.8977 2.88466 89.3125 2.91309 89.7656C2.94138 90.2221 2.8312 90.6563 2.62402 91.0469C2.48781 91.303 2.48533 91.4998 2.56934 91.7109C2.83456 92.3785 2.91004 93.0746 2.77246 93.7734C2.66818 94.303 2.53557 94.8317 2.38184 95.3594C2.28139 95.7045 2.27222 96.0392 2.34277 96.375C2.47447 97.0029 2.47764 97.6361 2.3584 98.2656C2.26728 98.7467 2.19438 99.2304 2.13184 99.7109C2.1013 99.9495 2.14535 100.225 2.35059 100.562C2.83139 101.354 2.87354 102.232 2.42871 103.055C2.31686 103.261 2.31316 103.407 2.4209 103.609C2.74324 104.215 2.93976 104.847 2.99121 105.5C3.0426 106.155 2.94523 106.802 2.70996 107.43C2.56606 107.814 2.50892 108.187 2.52246 108.547C2.54415 109.132 2.48946 109.726 2.36621 110.328C2.33627 110.474 2.34873 110.596 2.56152 110.789C3.05509 111.238 3.46721 111.711 3.78027 112.211C4.09158 112.708 4.32356 113.253 4.47559 113.836C4.57593 114.221 4.7289 114.577 4.94434 114.906C5.09558 115.137 5.30441 115.3 5.60059 115.406C6.1581 115.605 6.67663 115.855 7.14746 116.156C7.5812 116.434 8.00838 116.746 8.42871 117.086C8.71376 117.317 9.02498 117.472 9.36621 117.562C9.81099 117.68 10.2678 117.777 10.7256 117.844C11.2149 117.915 11.7072 117.981 12.2021 118.047C12.5071 118.087 12.8251 118.048 13.1709 117.898C13.7821 117.632 14.4163 117.483 15.0615 117.477C15.5793 117.472 16.0985 117.485 16.6162 117.508C17.1452 117.531 17.6738 117.578 18.2021 117.648C18.6435 117.708 19.0903 117.723 19.5303 117.703C20.0898 117.678 20.6519 117.706 21.21 117.781C21.6013 117.834 21.9955 117.825 22.3896 117.75C22.9429 117.645 23.4975 117.589 24.0537 117.578C24.7479 117.565 25.4154 117.746 26.0459 118.086C26.1527 118.143 26.2189 118.143 26.2568 118.141C26.299 118.138 26.3825 118.12 26.5146 118.031C27.2472 117.539 28.0903 117.389 28.9365 117.719C29.2261 117.831 29.4893 117.839 29.7646 117.75C30.3623 117.556 30.9713 117.455 31.585 117.461C32.1466 117.467 32.7065 117.53 33.2646 117.641C33.6173 117.711 33.9696 117.699 34.3271 117.609C35.0938 117.417 35.8507 117.541 36.5459 117.914C36.8466 118.076 37.089 118.098 37.3193 118.039C38.026 117.857 38.7431 117.898 39.4287 118.156C39.7888 118.292 40.1279 118.341 40.46 118.305C41.0002 118.245 41.5439 118.218 42.085 118.227C42.6073 118.235 43.1332 118.261 43.6553 118.305C43.9547 118.33 44.276 118.269 44.6318 118.094C45.3187 117.755 46.0523 117.648 46.7959 117.82C47.2763 117.932 47.7616 118.028 48.2412 118.109C48.5829 118.167 48.9251 118.146 49.2803 118.039C49.9802 117.828 50.6957 117.838 51.3896 118.07C51.7677 118.197 52.1332 118.247 52.4912 118.219C53.0777 118.172 53.6657 118.2 54.249 118.305C54.693 118.384 55.1358 118.426 55.5771 118.43C55.913 118.432 56.2694 118.355 56.6475 118.18C57.4214 117.819 58.2388 117.825 59.0068 118.195C59.1385 118.259 59.2514 118.279 59.4912 118.109C60.1097 117.67 60.7891 117.393 61.5146 117.352C62.2706 117.309 62.9808 117.549 63.624 117.977C63.9127 118.168 64.105 118.162 64.2725 118.109C64.9621 117.891 65.6662 117.893 66.3584 118.102C66.7203 118.211 67.0733 118.232 67.4209 118.18C67.834 118.117 68.2572 117.999 68.6865 117.82C69.4063 117.52 70.1605 117.487 70.8975 117.742C71.3813 117.91 71.8675 118.07 72.3506 118.211C72.7449 118.326 73.1337 118.366 73.5146 118.344C73.907 118.32 74.3064 118.233 74.7178 118.078C75.4083 117.818 76.1252 117.783 76.835 117.977C77.2 118.076 77.5578 118.089 77.9131 118.031C78.5826 117.922 79.2494 117.987 79.8975 118.211C80.0318 118.257 80.1964 118.272 80.4834 118.062C80.8503 117.795 81.2779 117.602 81.7568 117.57C82.2408 117.538 82.6898 117.678 83.085 117.914C83.3399 118.066 83.5112 118.058 83.6943 117.984C84.3298 117.727 84.9937 117.621 85.6631 117.68C86.0379 117.712 86.4167 117.679 86.8037 117.57C87.4374 117.393 88.081 117.352 88.7256 117.453C89.2365 117.534 89.7539 117.621 90.2646 117.719C90.7948 117.821 91.3226 117.955 91.8506 118.109C92.2137 118.216 92.5706 118.234 92.9209 118.18C93.4616 118.096 94.0036 118.052 94.5459 118.039C94.9136 118.03 95.2986 117.944 95.6943 117.781C96.3698 117.504 97.0792 117.432 97.7881 117.586C98.3403 117.706 98.8913 117.875 99.4365 118.086C99.8298 118.238 100.209 118.309 100.577 118.312C100.989 118.316 101.408 118.27 101.827 118.164C102.313 118.042 102.802 117.903 103.288 117.758C103.906 117.573 104.538 117.51 105.171 117.57C105.565 117.608 105.959 117.578 106.358 117.492C107.115 117.329 107.861 117.464 108.546 117.828C108.907 118.02 109.237 118.091 109.546 118.078C109.861 118.065 110.165 117.972 110.468 117.773C111.172 117.311 111.974 117.207 112.788 117.398C113.125 117.478 113.317 117.418 113.468 117.305C113.855 117.012 114.219 116.697 114.554 116.367C114.885 116.041 115.188 115.698 115.46 115.336C115.806 114.876 116.201 114.455 116.64 114.07C116.908 113.836 117.099 113.558 117.226 113.234C117.383 112.831 117.494 112.415 117.554 111.992C117.63 111.448 117.743 110.912 117.89 110.391C118.025 109.911 118.165 109.422 118.312 108.922C118.386 108.668 118.367 108.413 118.233 108.117C117.919 107.42 117.848 106.682 118.046 105.945C118.164 105.507 118.236 105.073 118.265 104.641C118.3 104.118 118.358 103.593 118.429 103.07C118.471 102.758 118.431 102.434 118.288 102.086C117.972 101.317 118.002 100.521 118.358 99.7734C118.542 99.3879 118.624 99.0232 118.632 98.6797C118.643 98.1936 118.648 97.7048 118.64 97.2188C118.632 96.7664 118.593 96.3133 118.522 95.8594C118.431 95.2695 118.42 94.6771 118.491 94.0859C118.519 93.8581 118.468 93.5905 118.249 93.25C117.794 92.5435 117.63 91.7415 117.874 90.9219C117.988 90.5403 118.026 90.1636 117.991 89.7969C117.935 89.1927 117.976 88.5903 118.108 87.9922C118.203 87.5656 118.247 87.1399 118.241 86.7188C118.235 86.2583 118.199 85.7973 118.14 85.3359C118.065 84.7566 118.058 84.1735 118.124 83.5938C118.183 83.07 118.268 82.5464 118.366 82.0234C118.451 81.5711 118.498 81.114 118.515 80.6641C118.534 80.1619 118.553 79.6584 118.577 79.1562C118.597 78.7476 118.568 78.3366 118.476 77.9219C118.376 77.4719 118.236 77.0187 118.062 76.5625C117.773 75.8083 117.803 75.033 118.132 74.2969C118.24 74.0544 118.236 73.8491 118.132 73.6094C117.779 72.8045 117.845 71.9684 118.272 71.2109C118.449 70.8967 118.478 70.6452 118.429 70.4141C118.331 69.9584 118.202 69.4994 118.038 69.0391C117.779 68.3089 117.794 67.5572 118.077 66.8359C118.22 66.4723 118.264 66.1294 118.233 65.7969C118.19 65.3323 118.123 64.8646 118.03 64.3984C117.897 63.7283 117.939 63.054 118.147 62.3984C118.279 61.9852 118.349 61.5794 118.358 61.1797C118.37 60.6797 118.383 60.1797 118.397 59.6797C118.414 59.1305 118.472 58.5783 118.569 58.0312C118.606 57.8232 118.576 57.5757 118.366 57.25C118.124 56.8765 117.967 56.4483 117.952 55.9844C117.938 55.5206 118.064 55.088 118.288 54.7031C118.459 54.4105 118.472 54.1904 118.413 53.9844C118.249 53.4142 118.153 52.8367 118.124 52.2578C118.101 51.8065 118.047 51.3521 117.96 50.8984C117.831 50.231 117.872 49.5594 118.077 48.9062C118.224 48.4391 118.343 47.9723 118.437 47.5078C118.522 47.0864 118.557 46.6668 118.538 46.25C118.518 45.8154 118.456 45.3772 118.351 44.9375C118.179 44.2237 118.243 43.5111 118.522 42.8281C118.613 42.6072 118.61 42.4083 118.483 42.1562C118.167 41.5289 118.002 40.8685 118.015 40.1875C118.027 39.5415 118.18 38.9074 118.452 38.2969C118.544 38.0902 118.54 37.9101 118.413 37.6719C118.02 36.9319 117.957 36.13 118.265 35.3438C118.356 35.1104 118.349 34.8917 118.226 34.6328C117.896 33.9399 117.81 33.203 117.999 32.4609C118.124 31.9733 118.238 31.4795 118.343 30.9922C118.445 30.5178 118.528 30.0437 118.593 29.5703C118.63 29.3014 118.583 29.0101 118.405 28.6719C117.98 27.8637 118.003 27.0005 118.452 26.2109C118.664 25.8385 118.747 25.5061 118.749 25.2031L118.702 23.7734C118.678 23.4325 118.575 23.0702 118.366 22.6797C117.974 21.9463 117.897 21.1464 118.187 20.3594C118.273 20.1237 118.267 19.9 118.14 19.6328C117.833 18.9891 117.695 18.3127 117.757 17.6172C117.794 17.199 117.782 16.7794 117.718 16.3594C117.63 15.7886 117.602 15.2135 117.64 14.6406C117.68 14.0254 117.827 13.4197 118.069 12.8281C118.192 12.5275 118.201 12.263 118.124 12C117.961 11.4441 117.856 10.8804 117.812 10.3203C117.786 10.0009 117.688 9.70493 117.507 9.42188C117.081 8.75844 116.969 7.99384 117.085 7.21094C117.132 6.89291 117.049 6.77446 116.944 6.67969C116.511 6.28859 116.122 5.86388 115.772 5.41406C115.565 5.14731 115.307 4.94549 114.983 4.80469C114.455 4.57524 113.955 4.30324 113.491 3.99219C113.086 3.72018 112.668 3.44831 112.241 3.17188C111.975 2.99961 111.694 2.91825 111.374 2.92188C110.83 2.92802 110.296 2.90885 109.772 2.86719C109.261 2.82638 108.743 2.77247 108.226 2.70312C107.933 2.66388 107.624 2.70686 107.28 2.86719C106.634 3.16858 105.953 3.29637 105.257 3.22656C104.593 3.1596 103.955 2.93596 103.351 2.57812C103.121 2.44203 102.97 2.44432 102.788 2.53125C102.143 2.83982 101.463 2.9798 100.765 2.91406C100.343 2.87435 99.9219 2.88604 99.499 2.94531C98.7682 3.0479 98.0594 2.8936 97.3975 2.54688C97.1337 2.40857 96.9255 2.40534 96.71 2.48438C96.1066 2.70835 95.4843 2.82703 94.8584 2.82812C94.2271 2.82901 93.6051 2.71007 92.999 2.47656C92.6621 2.3467 92.3461 2.31765 92.0381 2.375C91.6314 2.45103 91.2152 2.58744 90.7881 2.78906C90.084 3.12183 89.3333 3.19944 88.585 2.98438C88.2753 2.895 87.9692 2.90133 87.6553 3C87.0183 3.19971 86.3634 3.25179 85.71 3.15625C85.0696 3.06203 84.4508 2.83538 83.8584 2.49219C83.7499 2.42925 83.6863 2.42072 83.6553 2.42188C83.6219 2.42339 83.5421 2.43694 83.4131 2.52344C82.7377 2.97585 81.9753 3.18637 81.1709 3.03125C80.5921 2.91912 80.0158 2.74136 79.4521 2.49219C79.2824 2.41719 79.1323 2.40454 78.8896 2.55469C78.1982 2.98522 77.4227 3.16202 76.624 2.96875C76.1454 2.85255 75.6643 2.7467 75.1865 2.66406C74.9093 2.61651 74.6184 2.65576 74.2881 2.8125C73.5388 3.16827 72.7435 3.19417 71.9756 2.875C71.5545 2.69992 71.1432 2.58819 70.7412 2.53906C70.4435 2.50289 70.1268 2.55146 69.7803 2.71094C69.0026 3.07008 68.18 3.05723 67.4131 2.67969C67.1604 2.55604 66.958 2.55063 66.7334 2.64062C66.0541 2.91423 65.3414 2.98288 64.6318 2.82031C64.2501 2.73324 63.875 2.72055 63.499 2.77344C62.9115 2.8562 62.3213 2.85688 61.7334 2.78125C61.2134 2.71411 60.6903 2.63016 60.1709 2.53125C59.85 2.47019 59.5276 2.49175 59.1865 2.60938C58.4775 2.85445 57.7481 2.85867 57.0381 2.61719C56.6365 2.48018 56.2421 2.41363 55.8584 2.41406C55.3026 2.41463 54.7479 2.36574 54.1943 2.27344C53.8125 2.20978 53.4294 2.21467 53.0459 2.28906Z" fill="#979797"/>
</svg>
